<svg width="299" height="97" viewBox="0 0 299 97" fill="none" xmlns="http://www.w3.org/2000/svg">
<g filter="url(#filter0_d)">
<path d="M162.596 64.4799C167.38 64.4799 169.874 62.8709 169.874 59.5105C169.874 56.22 167.302 54.4012 162.311 54.4012C160.459 54.4012 158.245 54.5463 155.823 54.9116V43.8174C157.818 44.0428 159.675 44.1101 161.529 44.1101C166.662 44.1101 169.226 42.5763 169.226 39.0812C169.226 35.6534 166.88 34.0522 162.031 34.0522C158.89 34.0522 154.904 34.9331 149.988 36.4644V24.8934C154.352 23.3544 159.62 22.6289 165.818 22.6289C179.299 22.6289 187.069 28.5414 187.069 37.8194C187.069 43.5168 183.438 47.6752 177.085 49.0665C184.147 50.533 187.779 54.5463 187.779 60.6816C187.779 70.312 179.874 75.9265 164.754 75.9265C159.685 75.9265 154.704 75.2036 149.568 73.9652V62.0574C154.64 63.5912 158.91 64.4695 162.63 64.4695L162.596 64.4799ZM218.856 41.6203C229.48 41.6203 236.538 48.2634 236.538 58.0492C236.538 68.5683 228.48 75.8695 215.789 75.8695C200.817 75.8695 191.184 66.3039 191.184 50.6055C191.184 32.7205 201.392 22.6393 219.788 22.6393C223.988 22.6583 228.173 23.1273 232.272 24.0384V35.6534C228.42 34.4356 224.403 33.8195 220.363 33.8268C212.239 33.8268 208.455 37.1872 208.255 44.7864C211.265 42.4623 214.541 41.6514 218.879 41.6514L218.856 41.6203ZM220.353 57.6917C220.353 53.4504 218.001 50.7454 214.577 50.7454C211.153 50.7454 208.872 53.3752 208.872 57.6891C208.872 61.9226 211.156 64.5498 214.577 64.5498C218.074 64.5498 220.353 61.9226 220.353 57.6917ZM241.819 23.9451H276.541V36.0705H258.058V43.7396C259.54 43.6619 260.558 43.5919 260.892 43.5919C272.358 43.5919 278.579 49.5225 278.579 59.5131C278.579 69.8197 271.008 75.9524 256.263 75.9524C251.127 75.9524 246.059 75.1648 240.923 73.8538V62.3087C244.841 63.415 248.273 63.9332 251.195 63.9332C257.172 63.9332 260.314 61.8812 260.314 58.0933C260.314 53.8701 257.04 51.7507 250.332 51.7507C247.476 51.7507 244.694 52.2611 241.77 52.9918V23.9477L241.819 23.9451Z" fill="#FFE418"/>
<path d="M20 20H37.5991V41.5227C40.101 38.0224 43.5301 36.3849 48.1792 36.3849C58.4097 36.3849 64.2061 43.6809 64.2061 56.6406C64.2061 69.007 58.3398 76.3808 48.6117 76.3808C42.6754 76.3808 38.6661 74.1474 36.3817 69.3801V75.8574H20V20ZM37.094 56.265C37.094 61.9313 38.3113 64.6854 41.4581 64.6854C44.5377 64.6854 45.8922 61.9339 45.8922 56.265C45.8922 50.6271 44.605 47.8549 41.4581 47.8549C38.3113 47.8549 37.094 50.6271 37.094 56.265ZM109.194 59.8508H84.807C85.2343 64.0273 88.3838 66.0068 94.32 66.0068C98.4692 66.0068 102.761 65.2036 106.905 63.5895V73.3313C102.831 75.0154 97.2519 75.9688 90.7433 75.9688C75.7213 75.9688 67.6405 68.6443 67.6405 55.752C67.6405 43.1498 75.5866 35.605 88.8267 35.605C103.502 35.605 109.213 42.5642 109.213 57.3635V59.8508H109.194ZM93.8875 52.4537V51.28C93.8875 46.9558 92.3154 44.4685 89.311 44.4685C86.2341 44.4685 84.6619 46.9558 84.6619 51.3552V52.4511H93.8875V52.4537ZM143.965 36.631V47.8393H135.76V56.9956C135.76 61.6851 136.485 63.8848 140.008 63.8848C140.958 63.8848 142.24 63.7268 143.748 63.3666V74.3495C139.94 75.5206 136.133 75.9507 132.103 75.9507C127.143 75.9507 123.336 74.3262 121.101 71.5513C118.223 67.8748 118.156 63.276 118.156 57.12V47.8264H111.867V36.6207H118.133V28.1355L135.76 22.4873V36.6285L143.965 36.631Z" fill="white"/>
</g>
<defs>
<filter id="filter0_d" x="0" y="0" width="299" height="97" filterUnits="userSpaceOnUse" color-interpolation-filters="sRGB">
<feFlood flood-opacity="0" result="BackgroundImageFix"/>
<feColorMatrix in="SourceAlpha" type="matrix" values="0 0 0 0 0 0 0 0 0 0 0 0 0 0 0 0 0 0 127 0"/>
<feOffset/>
<feGaussianBlur stdDeviation="10"/>
<feColorMatrix type="matrix" values="0 0 0 0 0.282353 0 0 0 0 0.572549 0 0 0 0 0.760784 0 0 0 1 0"/>
<feBlend mode="normal" in2="BackgroundImageFix" result="effect1_dropShadow"/>
<feBlend mode="normal" in="SourceGraphic" in2="effect1_dropShadow" result="shape"/>
</filter>
</defs>
</svg>
