<svg width="406" height="78" viewBox="0 0 406 78" fill="none" xmlns="http://www.w3.org/2000/svg">
<g filter="url(#filter0_d)">
<path fill-rule="evenodd" clip-rule="evenodd" d="M54.5054 34.5592C56.1254 35.2792 57.3764 36.2602 58.2584 37.5022C59.1404 38.7442 59.5814 40.2292 59.5814 41.9572C59.5814 45.9532 57.9344 48.9592 54.6404 50.9752C51.3464 52.9912 47.1074 53.9992 41.9234 53.9992H20.1074L27.6674 16.1992H47.7014C52.1294 16.1992 55.4954 16.9822 57.7994 18.5482C60.1034 20.1142 61.2554 22.3372 61.2554 25.2172C61.2554 27.3412 60.6614 29.2042 59.4734 30.8062C58.2854 32.4082 56.6294 33.6592 54.5054 34.5592ZM38.4134 25.1092L37.2794 30.7252H43.7594C46.5674 30.7252 47.9714 29.6272 47.9714 27.4312C47.9714 26.6752 47.6834 26.0992 47.1074 25.7032C46.5314 25.3072 45.7034 25.1092 44.6234 25.1092H38.4134ZM42.6254 45.0892C43.9214 45.0892 44.9654 44.7922 45.7574 44.1982C46.5494 43.6042 46.9454 42.7492 46.9454 41.6332C46.9454 40.8412 46.6484 40.2292 46.0544 39.7972C45.4604 39.3652 44.7134 39.1492 43.8134 39.1492H35.6054L34.4174 45.0892H42.6254ZM79.9934 25.8112L79.1294 30.2392H95.1134L93.2774 39.4192H77.2394L76.2674 44.3872H95.2214L93.2774 53.9992H61.8494L69.4094 16.1992H100.135L98.1914 25.8112H79.9934ZM111.961 26.0812H100.891L102.889 16.1992H137.773L135.775 26.0812H124.705L119.143 53.9992H106.399L111.961 26.0812Z" fill="#FFCE06"/>
<path fill-rule="evenodd" clip-rule="evenodd" d="M207.173 16.1992L187.517 53.9992H173.855L171.695 34.0732L161.327 53.9992H147.665L143.129 16.1992H155.711L158.141 37.7452L169.373 16.1992H181.091L183.251 38.0692L194.645 16.1992H207.173ZM210.791 16.1992H223.535L215.975 53.9992H203.231L210.791 16.1992ZM266.951 16.1992L259.391 53.9992H248.915L238.061 36.3952L234.551 53.9992H222.131L229.691 16.1992H240.167L251.021 33.8032L254.531 16.1992H266.951ZM310.367 16.1992L302.807 53.9992H292.331L281.477 36.3952L277.967 53.9992H265.547L273.107 16.1992H283.583L294.437 33.8032L297.947 16.1992H310.367ZM327.107 25.8112L326.243 30.2392H342.227L340.391 39.4192H324.353L323.381 44.3872H342.335L340.391 53.9992H308.963L316.523 16.1992H347.249L345.305 25.8112H327.107ZM385.535 28.6192C385.535 31.9672 384.644 34.8922 382.862 37.3942C381.08 39.8962 378.569 41.7592 375.329 42.9832L381.647 53.9992H368.417L363.071 44.4952H359.939L358.049 53.9992H345.305L352.865 16.1992H369.821C374.789 16.1992 378.65 17.2882 381.404 19.4662C384.158 21.6442 385.535 24.6952 385.535 28.6192ZM372.629 29.8612C372.629 27.3052 371.045 26.0272 367.877 26.0272H363.611L361.829 34.8832H367.067C368.831 34.8832 370.199 34.4422 371.171 33.5602C372.143 32.6782 372.629 31.4452 372.629 29.8612Z" fill="white"/>
</g>
<defs>
<filter id="filter0_d" x="0" y="0" width="406" height="78" filterUnits="userSpaceOnUse" color-interpolation-filters="sRGB">
<feFlood flood-opacity="0" result="BackgroundImageFix"/>
<feColorMatrix in="SourceAlpha" type="matrix" values="0 0 0 0 0 0 0 0 0 0 0 0 0 0 0 0 0 0 127 0"/>
<feOffset dy="4"/>
<feGaussianBlur stdDeviation="10"/>
<feColorMatrix type="matrix" values="0 0 0 0 0.301961 0 0 0 0 0.580392 0 0 0 0 0.764706 0 0 0 1 0"/>
<feBlend mode="normal" in2="BackgroundImageFix" result="effect1_dropShadow"/>
<feBlend mode="normal" in="SourceGraphic" in2="effect1_dropShadow" result="shape"/>
</filter>
</defs>
</svg>
