<svg width="403" height="106" viewBox="0 0 403 106" fill="none" xmlns="http://www.w3.org/2000/svg">
<g filter="url(#filter0_d)">
<path fill-rule="evenodd" clip-rule="evenodd" d="M236.492 45.6192C240.529 48.0132 242.513 51.57 242.513 56.358C242.513 60.5988 241.076 64.0188 238.134 66.5496C235.192 69.0804 231.292 70.38 226.435 70.38H206.251V22.5H225.135C234.713 22.5 240.939 27.6984 240.939 36.1116C240.939 40.1472 239.434 43.2936 236.492 45.6192ZM224.792 33.444H218.498V40.968H224.792C226.982 40.968 228.692 39.6 228.692 37.206C228.692 34.9488 227.05 33.444 224.792 33.444ZM218.498 59.436H226.092C228.556 59.436 230.266 57.7944 230.266 55.4004C230.266 52.938 228.556 51.3648 226.092 51.3648H218.498V59.436ZM265.371 71.3376C260.308 71.3376 255.997 69.6276 252.439 66.1392C248.882 62.6508 247.103 58.3416 247.103 53.28C247.103 48.2184 248.882 43.9776 252.439 40.4892C255.997 37.0008 260.308 35.2224 265.371 35.2224C270.502 35.2224 274.812 37.0008 278.302 40.4892C281.859 43.9776 283.638 48.2184 283.638 53.28C283.638 58.3416 281.859 62.6508 278.302 66.1392C274.812 69.6276 270.502 71.3376 265.371 71.3376ZM265.371 60.3936C269.407 60.3936 272.281 57.4524 272.281 53.28C272.281 49.1076 269.407 46.1664 265.371 46.1664C261.471 46.1664 258.529 49.1076 258.529 53.28C258.529 57.4524 261.471 60.3936 265.371 60.3936ZM306.359 71.3376C301.296 71.3376 296.986 69.6276 293.428 66.1392C289.87 62.6508 288.091 58.3416 288.091 53.28C288.091 48.2184 289.87 43.9776 293.428 40.4892C296.986 37.0008 301.296 35.2224 306.359 35.2224C311.491 35.2224 315.801 37.0008 319.29 40.4892C322.848 43.9776 324.627 48.2184 324.627 53.28C324.627 58.3416 322.848 62.6508 319.29 66.1392C315.801 69.6276 311.491 71.3376 306.359 71.3376ZM306.359 60.3936C310.396 60.3936 313.269 57.4524 313.269 53.28C313.269 49.1076 310.396 46.1664 306.359 46.1664C302.459 46.1664 299.517 49.1076 299.517 53.28C299.517 57.4524 302.459 60.3936 306.359 60.3936ZM369.994 35.2224C377.931 35.2224 382.857 40.626 382.857 49.4496V70.38H371.431V50.7492C371.431 47.5344 369.994 45.9612 367.189 45.9612C364.11 45.9612 362.468 48.15 362.468 51.7068V70.38H351.111V50.7492C351.111 47.5344 349.674 45.9612 346.8 45.9612C343.722 45.9612 342.079 48.15 342.079 51.7068V70.38H330.722V36.18H342.079V39.3948C344.2 36.5904 347.279 35.2224 351.316 35.2224C355.216 35.2224 358.158 36.6588 360.074 39.6C362.468 36.6588 365.752 35.2224 369.994 35.2224Z" fill="#FFD000"/>
<path fill-rule="evenodd" clip-rule="evenodd" d="M50.2411 45.8905C54.2778 48.2845 56.262 51.8413 56.262 56.6293C56.262 60.8701 54.8252 64.2901 51.8832 66.8209C48.9412 69.3517 45.0413 70.6513 40.1836 70.6513H20V22.7713H38.8836C48.4622 22.7713 54.6884 27.9697 54.6884 36.3829C54.6884 40.4185 53.1831 43.5649 50.2411 45.8905ZM38.5415 33.7153H32.247V41.2393H38.5415C40.7309 41.2393 42.4414 39.8713 42.4414 37.4773C42.4414 35.2201 40.7993 33.7153 38.5415 33.7153ZM32.247 59.7073H39.8415C42.3045 59.7073 44.015 58.0657 44.015 55.6717C44.015 53.2093 42.3045 51.6361 39.8415 51.6361H32.247V59.7073ZM72.0724 31.7317C69.5409 34.2625 65.5042 34.2625 62.8359 31.7317C60.3044 29.0641 60.3044 25.0285 62.8359 22.4977C65.5042 19.9669 69.5409 19.9669 72.0724 22.4977C74.7408 25.0285 74.7408 29.0641 72.0724 31.7317ZM73.1671 70.6513H61.8115V36.4513H73.169V70.6513H73.1671ZM101.704 35.4937C109.093 35.4937 114.293 40.6921 114.293 50.1997V70.6513H102.935V51.6361C102.935 48.0793 100.882 46.2325 97.8036 46.2325C94.2458 46.2325 92.1933 48.4213 92.1933 52.4569V70.6513H80.8358V36.4513H92.1933V39.8713C94.2458 36.9301 97.3931 35.4937 101.704 35.4937ZM145.976 39.7345V36.4513H157.197V69.2833C157.197 80.6377 148.166 85.3573 139.203 85.3573C131.608 85.3573 125.382 82.4845 122.372 77.0125L131.813 71.5405C133.456 74.1397 135.85 75.4393 139.066 75.4393C143.171 75.4393 145.976 73.3189 145.976 69.2833V66.0001C143.65 68.8045 140.434 70.2409 136.398 70.2409C131.677 70.2409 127.777 68.5309 124.698 65.1793C121.619 61.8277 120.114 57.7237 120.114 52.8673C120.114 48.0109 121.619 43.9069 124.698 40.5553C127.777 37.2037 131.677 35.4937 136.398 35.4937C140.434 35.4937 143.65 36.9301 145.976 39.7345ZM133.456 57.9973C134.824 59.2969 136.603 59.9809 138.724 59.9809C140.845 59.9809 142.624 59.2969 143.924 57.9973C145.292 56.6293 145.976 54.9193 145.976 52.8673C145.976 50.8153 145.292 49.1053 143.924 47.8057C142.624 46.4377 140.845 45.7537 138.724 45.7537C136.603 45.7537 134.824 46.4377 133.456 47.8057C132.156 49.1053 131.471 50.8153 131.471 52.8673C131.471 54.9193 132.156 56.6293 133.456 57.9973ZM181.425 71.6089C176.362 71.6089 172.051 69.8989 168.494 66.4105C164.936 62.9221 163.157 58.6129 163.157 53.5513C163.157 48.4897 164.936 44.2489 168.494 40.7605C172.051 37.2721 176.362 35.4937 181.425 35.4937C186.556 35.4937 190.867 37.2721 194.356 40.7605C197.914 44.2489 199.693 48.4897 199.693 53.5513C199.693 58.6129 197.914 62.9221 194.356 66.4105C190.867 69.8989 186.556 71.6089 181.425 71.6089ZM181.425 60.6649C185.461 60.6649 188.335 57.7237 188.335 53.5513C188.335 49.3789 185.461 46.4377 181.425 46.4377C177.525 46.4377 174.583 49.3789 174.583 53.5513C174.583 57.7237 177.525 60.6649 181.425 60.6649Z" fill="#E80012"/>
</g>
<defs>
<filter id="filter0_d" x="0" y="-7" width="403" height="116" filterUnits="userSpaceOnUse" color-interpolation-filters="sRGB">
<feFlood flood-opacity="0" result="BackgroundImageFix"/>
<feColorMatrix in="SourceAlpha" type="matrix" values="0 0 0 0 0 0 0 0 0 0 0 0 0 0 0 0 0 0 127 0"/>
<feOffset/>
<feGaussianBlur stdDeviation="10"/>
<feColorMatrix type="matrix" values="0 0 0 0 0.298039 0 0 0 0 0.576471 0 0 0 0 0.764706 0 0 0 1 0"/>
<feBlend mode="normal" in2="BackgroundImageFix" result="effect1_dropShadow"/>
<feBlend mode="normal" in="SourceGraphic" in2="effect1_dropShadow" result="shape"/>
</filter>
</defs>
</svg>
