<svg width="331" height="169" viewBox="0 0 331 169" fill="none" xmlns="http://www.w3.org/2000/svg">
<g filter="url(#filter0_d)">
<path d="M72.2704 148.999C69.7796 149 67.3702 148.112 65.4758 146.497L23.6478 110.729C22.2583 109.538 21.2062 108.004 20.5967 106.279C19.9871 104.555 19.8414 102.701 20.1742 100.903L30.2733 46.7995C30.612 45.0016 31.4172 43.3241 32.6084 41.9346C33.7996 40.5452 35.335 39.4924 37.0613 38.8816L88.985 20.5889C90.7121 19.9841 92.5677 19.8421 94.3668 20.177C96.1659 20.5119 97.8458 21.3121 99.2389 22.4977L115.536 36.4391C115.972 36.8029 116.331 37.2495 116.593 37.7529C116.854 38.2563 117.013 38.8066 117.061 39.3718C117.108 39.9371 117.042 40.5061 116.868 41.0459C116.694 41.5857 116.414 42.0856 116.044 42.5166C115.675 42.9475 115.224 43.301 114.717 43.5566C114.21 43.8121 113.658 43.9647 113.091 44.0054C112.525 44.046 111.956 43.974 111.418 43.7935C110.879 43.613 110.382 43.3276 109.955 42.9539L93.6578 29.0158C93.4106 28.8063 93.1128 28.6649 92.7941 28.6058C92.4754 28.5467 92.1467 28.5718 91.8406 28.6786L39.9169 46.9717C39.6111 47.0794 39.3389 47.2654 39.1277 47.5112C38.9165 47.757 38.7736 48.0539 38.7133 48.3721L28.6143 102.472C28.5557 102.79 28.5817 103.118 28.6898 103.423C28.7979 103.728 28.9842 103.999 29.2302 104.209L71.0582 139.977C71.304 140.188 71.6009 140.33 71.9192 140.389C72.2374 140.449 72.5656 140.424 72.871 140.316L104.225 129.27C104.757 129.081 105.321 128.998 105.885 129.027C106.45 129.056 107.002 129.195 107.512 129.438C108.022 129.681 108.479 130.022 108.857 130.441C109.235 130.861 109.526 131.35 109.714 131.883C109.902 132.415 109.983 132.979 109.953 133.542C109.922 134.106 109.78 134.657 109.536 135.166C109.291 135.675 108.949 136.13 108.528 136.506C108.106 136.882 107.615 137.172 107.082 137.358L75.728 148.404C74.6174 148.796 73.4482 148.996 72.2704 148.996V148.999Z" fill="url(#paint0_linear)"/>
<path d="M215.142 99.0303L213.252 109.739H202.529L204.42 99.0303H215.142Z" fill="#EF502A"/>
<path d="M229.842 59.0051L238.655 57.665L235.607 74.931H246.728C247.687 74.9159 248.637 75.1229 249.503 75.5357C250.303 75.9195 251.006 76.4801 251.558 77.1751C252.117 77.8879 252.52 78.7101 252.741 79.5883C252.982 80.5173 253.016 81.4878 252.84 82.4314L249.343 102.243C249.161 103.277 248.782 104.266 248.227 105.157C247.136 106.944 245.506 108.339 243.571 109.14C242.624 109.535 241.609 109.738 240.583 109.739H220.887L229.842 59.0051ZM230.786 102.243H237.889C238.697 102.242 239.477 101.943 240.079 101.404C240.711 100.891 241.136 100.168 241.278 99.3668L243.759 85.3086C243.839 84.9541 243.837 84.5862 243.754 84.2326C243.671 83.8789 243.509 83.5485 243.28 83.266C243.051 82.9905 242.76 82.7718 242.431 82.6272C242.103 82.4826 241.745 82.4159 241.387 82.4324H234.283L230.786 102.243Z" fill="#EF502A"/>
<path d="M258.202 82.4305C258.385 81.426 258.748 80.4628 259.274 79.5874C259.807 78.6815 260.482 77.8667 261.273 77.1742C262.057 76.4887 262.948 75.935 263.91 75.5348C264.854 75.1354 265.87 74.9298 266.895 74.9305H278.622C279.582 74.9153 280.531 75.1223 281.397 75.5351C282.197 75.9197 282.9 76.4801 283.453 77.1745C284.008 77.8849 284.401 78.7088 284.602 79.5878C284.82 80.5208 284.843 81.4887 284.669 82.4308L283.464 89.2558C283.285 90.2746 282.92 91.2516 282.385 92.1374C281.848 93.0271 281.176 93.8282 280.392 94.5122C279.609 95.1978 278.719 95.7515 277.758 96.1515C276.813 96.5491 275.797 96.7529 274.771 96.7509H272.761C271.777 96.7509 270.725 96.7636 269.606 96.789C268.484 96.8112 267.421 96.8222 266.416 96.8222H264.241L263.662 100.101C263.597 100.368 263.596 100.646 263.66 100.913C263.723 101.18 263.849 101.429 264.027 101.638C264.212 101.841 264.44 102.001 264.694 102.105C264.948 102.21 265.222 102.257 265.496 102.242H277.959L276.636 109.737H260.756C259.798 109.751 258.85 109.546 257.983 109.138C257.181 108.754 256.477 108.193 255.923 107.498C255.372 106.797 254.979 105.985 254.771 105.118C254.546 104.175 254.525 103.194 254.708 102.242L258.202 82.4305ZM276.237 84.6367C276.3 84.3621 276.297 84.0767 276.229 83.8034C276.161 83.5301 276.031 83.2763 275.847 83.0623C275.66 82.8535 275.428 82.6887 275.169 82.5797C274.911 82.4707 274.631 82.4202 274.35 82.4318H268.99C268.38 82.4262 267.79 82.6515 267.339 83.0623C266.871 83.4693 266.559 84.0257 266.455 84.6367L265.628 89.3209H273.267C273.878 89.3284 274.469 89.1029 274.919 88.6904C275.387 88.2838 275.698 87.7272 275.8 87.1163L276.237 84.6367Z" fill="#EF502A"/>
<path d="M307.432 75.0038L306.168 82.1663H300.137L296.984 100.032C296.921 100.305 296.92 100.588 296.983 100.861C297.045 101.133 297.168 101.388 297.343 101.606C297.521 101.819 297.745 101.987 297.999 102.097C298.253 102.208 298.529 102.258 298.805 102.244H310.997L309.674 109.739H294.2C293.242 109.753 292.292 109.548 291.425 109.14C290.624 108.753 289.912 108.206 289.332 107.533C288.751 106.854 288.331 106.053 288.103 105.19C287.856 104.249 287.823 103.265 288.009 102.309L291.563 82.1653H287.408L288.436 76.3425L292.827 75.0028L295.455 67.7039L302.926 66.3691L301.402 75.0028L307.432 75.0038Z" fill="#EF502A"/>
<path d="M98.3815 84.5048C99.5398 85.0061 100.487 85.8955 101.059 87.0197C101.631 88.1438 101.792 89.4322 101.515 90.6625L99.991 99.2958C99.7392 100.676 99.2222 101.995 98.4685 103.179C96.9421 105.626 94.7477 107.588 92.1433 108.832C90.9684 109.414 89.6771 109.723 88.3658 109.736H66.7246L75.5613 59.6721H95.5285C96.7388 59.6626 97.9313 59.9626 98.9927 60.5436C100.046 61.1179 100.968 61.9044 101.701 62.8533C102.455 63.8289 103.01 64.9429 103.333 66.1321C103.675 67.387 103.729 68.7029 103.491 69.9816L101.79 79.6202C101.613 80.637 101.202 81.5991 100.59 82.4307C99.9931 83.2567 99.2434 83.961 98.3815 84.5058V84.5048ZM83.8548 68.1066L81.7044 80.2889H88.5392C89.4795 80.2882 90.3868 79.9421 91.0882 79.3165C91.8233 78.7181 92.3178 77.8749 92.4808 76.9417L93.4492 71.4538C93.5432 71.0415 93.5422 70.6133 93.4463 70.2014C93.3504 69.7896 93.1622 69.4049 92.8958 69.0763C92.6281 68.7553 92.2896 68.5006 91.9068 68.3324C91.524 68.1641 91.1073 68.0869 90.6896 68.1066H83.8548ZM80.2162 88.7208L77.9947 101.306H86.5035C87.4441 101.305 88.3519 100.961 89.0548 100.336C89.7878 99.7364 90.2809 98.8937 90.4444 97.9614L91.4849 92.0676C91.5781 91.6554 91.577 91.2275 91.4816 90.8158C91.3861 90.4042 91.1989 90.0194 90.9338 89.6901C90.6654 89.3693 90.3263 89.1148 89.9431 88.9467C89.5599 88.7785 89.143 88.7012 88.7249 88.7208H80.2162Z" fill="white"/>
<path d="M111.404 59.6719H121.186L114.428 97.9618C114.335 98.3736 114.336 98.8011 114.431 99.2123C114.527 99.6235 114.714 100.008 114.979 100.337C115.247 100.658 115.586 100.913 115.969 101.081C116.353 101.249 116.77 101.326 117.188 101.306H122.415C123.354 101.306 124.261 100.961 124.963 100.337C125.698 99.7379 126.192 98.8948 126.355 97.9618L133.114 59.6719H142.896L135.902 99.2959C135.649 100.676 135.132 101.994 134.379 103.179C133.612 104.411 132.671 105.527 131.584 106.49C130.525 107.435 129.336 108.224 128.054 108.833C126.879 109.414 125.588 109.723 124.277 109.737H112.35C111.138 109.748 109.944 109.436 108.892 108.833C107.844 108.24 106.925 107.444 106.19 106.49C105.431 105.506 104.877 104.38 104.562 103.179C104.223 101.912 104.171 100.585 104.41 99.2959L111.404 59.6719Z" fill="white"/>
<path d="M154.126 81.8267H170.205L168.74 90.1252H152.662L149.2 109.738H139.418L146.79 67.9736C146.994 66.8147 147.407 65.7026 148.01 64.6918C148.608 63.6791 149.372 62.7741 150.271 62.0147C151.172 61.2552 152.19 60.6456 153.286 60.2091C154.374 59.7676 155.537 59.5401 156.711 59.5391H176.957L175.492 67.8375H158.405C157.932 67.8313 157.473 67.9978 157.115 68.3058C156.751 68.614 156.509 69.0419 156.433 69.5124L154.126 81.8267Z" fill="white"/>
<path d="M186.822 81.8267H202.9L201.436 90.1252H185.357L181.895 109.738H172.113L179.485 67.9736C179.689 66.8148 180.102 65.7027 180.705 64.6918C181.303 63.6792 182.068 62.7742 182.966 62.0147C183.868 61.2553 184.886 60.6457 185.981 60.2091C187.069 59.7676 188.232 59.5401 189.407 59.5391H209.652L208.187 67.8375H191.101C190.629 67.8313 190.17 67.9978 189.811 68.3058C189.447 68.6141 189.205 69.0419 189.129 69.5124L186.822 81.8267Z" fill="white"/>
</g>
<defs>
<filter id="filter0_d" x="0" y="0" width="331" height="169" filterUnits="userSpaceOnUse" color-interpolation-filters="sRGB">
<feFlood flood-opacity="0" result="BackgroundImageFix"/>
<feColorMatrix in="SourceAlpha" type="matrix" values="0 0 0 0 0 0 0 0 0 0 0 0 0 0 0 0 0 0 127 0"/>
<feOffset/>
<feGaussianBlur stdDeviation="10"/>
<feColorMatrix type="matrix" values="0 0 0 0 0.215686 0 0 0 0 0.556863 0 0 0 0 0.741176 0 0 0 1 0"/>
<feBlend mode="normal" in2="BackgroundImageFix" result="effect1_dropShadow"/>
<feBlend mode="normal" in="SourceGraphic" in2="effect1_dropShadow" result="shape"/>
</filter>
<linearGradient id="paint0_linear" x1="-19.5193" y1="68.7915" x2="118.766" y2="90.1602" gradientUnits="userSpaceOnUse">
<stop offset="0.0583" stop-color="#FFC50A"/>
<stop offset="0.2485" stop-color="#FB9F10"/>
<stop offset="0.7348" stop-color="#F0411E"/>
<stop offset="0.9542" stop-color="#EC1C24"/>
</linearGradient>
</defs>
</svg>
