<svg width="382" height="102" viewBox="0 0 382 102" fill="none" xmlns="http://www.w3.org/2000/svg">
<g filter="url(#filter0_d)">
<g clip-path="url(#clip0)">
<path d="M51.806 30.4288L48.728 43.7227H92.96L90.566 54.1516H46.334L42.344 71.4566H86.576L84.182 81.8854H28.664C25.814 81.8854 23.42 80.7394 21.71 78.7911C20.114 76.7283 19.544 73.8632 20.228 70.8835L29.348 31.3457C30.83 25.0425 36.986 20 43.256 20H98.432L96.038 30.4288H51.806Z" fill="#FFA000"/>
<path d="M137.192 43.7227L134.798 54.1516H145.856L141.98 71.4566H119.75L129.212 30.4288H173.558L175.952 20H120.662C114.506 20 108.236 25.0425 106.868 31.3457L97.7475 70.8836C97.0635 73.8632 97.6335 76.7283 99.2295 78.7911C100.826 80.7394 103.22 81.8854 106.184 81.8854H150.416C156.572 81.8854 162.842 76.7283 164.324 70.5397L170.48 43.7227H137.192ZM249.482 23.0943C247.886 21.146 245.378 20 242.528 20H187.01L172.76 82H227.936C234.206 82 240.362 76.8429 241.844 70.6543L244.124 60.7985C244.808 57.8189 244.238 54.9538 242.642 52.8909C241.046 50.8281 238.196 49.7967 235.232 49.7967L235.46 49.2237L235.688 48.3068C241.844 48.3068 248.114 43.2643 249.596 36.9612L250.964 31.0018C251.648 28.0222 251.078 25.1571 249.482 23.0943ZM219.386 71.4566H197.27L201.26 54.1516H223.49L219.386 71.4566ZM225.77 43.7227H203.654L206.732 30.4288H228.848L225.77 43.7227ZM269.432 60.5693L266.012 75.5823H283.112L281.63 82H265.214C263.39 82 261.794 81.3124 260.768 80.0518C259.742 78.6765 259.4 76.9575 259.855 75.0092L262.934 61.7153C263.846 57.5897 267.95 54.2662 271.94 54.2662H288.014L286.532 60.6839H269.432V60.5693ZM361.771 61.2569L356.984 82H350.714L355.616 60.5693H344.786L339.884 82H333.614L338.516 60.5693H327.8L322.898 82H316.628L322.898 54.1516H339.314C340.568 54.1516 341.708 54.4954 342.62 55.0684L342.961 55.2976L343.418 55.0684C344.672 54.3808 346.04 54.037 347.294 54.037H356.299C358.124 54.037 359.72 54.7246 360.746 55.9852C361.885 57.475 362.228 59.3087 361.771 61.2569ZM314.918 56.2144C313.892 54.9538 312.296 54.2662 310.472 54.2662H300.212C296.108 54.2662 292.118 57.5897 291.206 61.7153L288.242 75.0092C287.786 76.9575 288.128 78.7911 289.154 80.0518C290.18 81.3124 291.776 82 293.6 82H303.86C307.964 82 311.954 78.6765 312.866 74.5508L315.944 61.1423C316.286 59.3087 315.944 57.475 314.918 56.2144ZM306.254 75.5823H294.398L297.818 60.5693H309.674L306.254 75.5823ZM255.068 75.5823L253.585 82H247.316L248.798 75.5823H255.068Z" fill="white"/>
</g>
</g>
<defs>
<filter id="filter0_d" x="0" y="0" width="382" height="102" filterUnits="userSpaceOnUse" color-interpolation-filters="sRGB">
<feFlood flood-opacity="0" result="BackgroundImageFix"/>
<feColorMatrix in="SourceAlpha" type="matrix" values="0 0 0 0 0 0 0 0 0 0 0 0 0 0 0 0 0 0 127 0"/>
<feOffset/>
<feGaussianBlur stdDeviation="10"/>
<feColorMatrix type="matrix" values="0 0 0 0 0.215686 0 0 0 0 0.556863 0 0 0 0 0.741176 0 0 0 1 0"/>
<feBlend mode="normal" in2="BackgroundImageFix" result="effect1_dropShadow"/>
<feBlend mode="normal" in="SourceGraphic" in2="effect1_dropShadow" result="shape"/>
</filter>
<clipPath id="clip0">
<rect x="20" y="20" width="342" height="62" fill="white"/>
</clipPath>
</defs>
</svg>
