<svg width="290" height="89" viewBox="0 0 290 89" fill="none" xmlns="http://www.w3.org/2000/svg">
<path d="M283.038 88.4053C286.882 88.4053 290 85.2636 290 81.3849V7.01983C290 3.14233 286.882 8.39233e-05 283.038 8.39233e-05H6.96361C3.11673 8.39233e-05 0 3.14233 0 7.01983V81.3849C0 85.2636 3.11673 88.4053 6.96361 88.4053H283.038Z" fill="#D42A28"/>
<path d="M36.448 65.0774C36.2707 65.2404 35.8405 65.3203 35.1523 65.3203H26.5869C25.663 65.3203 25.2911 64.9171 25.4824 64.112L32.4013 34.5492C32.7417 33.1007 33.2736 31.6835 34.0028 30.294C34.7287 28.9081 35.6665 27.6821 36.8233 26.6159C37.9766 25.5494 39.3729 24.6914 41.0156 24.049C42.6517 23.406 44.5377 23.0829 46.6671 23.0829H65.0138C65.4965 23.0829 65.7919 23.1561 65.8997 23.2988C66.0038 23.4375 65.9795 23.8474 65.8198 24.5317L64.2256 31.3499C64.1003 31.8745 63.9405 32.2251 63.7356 32.4057C63.5307 32.5864 63.2076 32.6769 62.7666 32.6769H47.8654C47.0593 32.6769 46.3893 32.788 45.8577 33.0103C45.3194 33.2291 44.8922 33.5002 44.5796 33.8233C44.2632 34.146 44.0134 34.5073 43.8397 34.9105C43.666 35.3131 43.5306 35.7162 43.4368 36.1158L42.5646 39.8564H58.4318C58.9145 39.8564 59.2066 39.9399 59.3104 40.0962C59.4149 40.2595 59.3832 40.6833 59.2236 41.364L57.7544 47.6403C57.5389 48.5648 57.0492 49.0302 56.285 49.0302H40.4182L36.8858 64.112C36.771 64.5947 36.6253 64.9171 36.448 65.0774Z" fill="white"/>
<path d="M90.0208 44.2012C90.3503 42.6346 90.5695 41.1342 90.6806 39.7064C90.7957 38.2789 90.7117 37.0424 90.4343 35.9935C90.156 34.9479 89.6244 34.1178 88.8464 33.4927C88.0684 32.8706 86.9741 32.5546 85.5682 32.5546C84.4008 32.5546 83.3026 32.857 82.2782 33.4612C81.2539 34.0656 80.3368 34.882 79.5339 35.9067C78.7287 36.9312 78.03 38.1295 77.4291 39.4948C76.825 40.8631 76.3492 42.291 76.0019 43.7807C75.5711 45.6323 75.3003 47.2997 75.1925 48.7858C75.088 50.2765 75.1925 51.5334 75.5189 52.558C75.8383 53.5866 76.3978 54.3781 77.1895 54.9416C77.9849 55.5078 79.0653 55.7883 80.4339 55.7883C81.7606 55.7883 82.9381 55.4759 83.9694 54.8511C85.0016 54.2287 85.9008 53.3847 86.6718 52.3185C87.4467 51.2519 88.1065 50.0157 88.6552 48.6091C89.2078 47.1989 89.6633 45.7331 90.0208 44.2012ZM102.046 44.142C101.254 47.5217 100.177 50.5573 98.8227 53.2526C97.468 55.9486 95.797 58.2447 93.8066 60.1306C91.8161 62.0199 89.4721 63.4717 86.7868 64.4757C84.0954 65.4791 81.0417 65.9834 77.6237 65.9834C74.3658 65.9834 71.6495 65.4897 69.4888 64.507C67.3284 63.5203 65.7026 62.0925 64.6121 60.2238C63.5213 58.3521 62.9172 56.0661 62.806 53.3711C62.6913 50.6791 63.0282 47.6437 63.8204 44.2601C64.5915 40.964 65.7099 37.9663 67.1654 35.2746C68.6205 32.5789 70.3644 30.2724 72.3997 28.3622C74.4353 26.4517 76.7624 24.9826 79.3746 23.9576C81.9868 22.9333 84.8625 22.4223 87.9993 22.4223C91.2604 22.4223 93.9667 22.9333 96.1164 23.9576C98.2701 24.9826 99.9201 26.441 101.07 28.3307C102.213 30.2239 102.855 32.5094 102.994 35.1807C103.129 37.8588 102.817 40.8422 102.046 44.142Z" fill="white"/>
<path d="M172.361 51.5633C172.634 50.3966 172.506 49.4411 171.982 48.6979C171.458 47.955 170.533 47.5792 169.214 47.5792H162.135L160.284 55.4849H167.362C168.165 55.4849 168.852 55.3634 169.432 55.1236C170.006 54.8807 170.498 54.5574 170.916 54.1581C171.329 53.7553 171.645 53.3345 171.874 52.8906C172.093 52.4458 172.26 52.0047 172.361 51.5633ZM164.222 38.6525H170.519C171.315 38.6525 172.107 38.4479 172.881 38.048C173.649 37.6451 174.174 36.8604 174.447 35.6933C174.664 34.7692 174.555 34.0642 174.132 33.5815C173.704 33.0982 173.031 32.8589 172.114 32.8589H165.58L164.222 38.6525ZM180.088 42.272C181.1 42.7514 181.916 43.3662 182.523 44.1093C183.131 44.8559 183.583 45.6793 183.878 46.5858C184.166 47.489 184.306 48.4378 184.295 49.4205C184.288 50.4072 184.173 51.3793 183.944 52.3447C183.493 54.2766 182.708 56.0374 181.593 57.6283C180.478 59.2155 179.12 60.5838 177.522 61.7308C175.931 62.8765 174.163 63.7624 172.229 64.3839C170.29 65.0093 168.276 65.3184 166.185 65.3184H150.499C148.849 65.3184 147.855 65.0093 147.518 64.3839C147.185 63.7624 147.181 62.7448 147.508 61.3373L155.532 27.0651C155.84 25.7384 156.316 24.7447 156.956 24.0817C157.591 23.4144 158.738 23.0813 160.384 23.0813H176.073C177.88 23.0813 179.527 23.286 180.999 23.6851C182.475 24.0884 183.691 24.7341 184.649 25.6167C185.608 26.5056 186.271 27.6313 186.636 28.9963C186.998 30.3649 186.956 32.015 186.5 33.9428C186.137 35.5127 185.359 37.0304 184.166 38.4998C182.983 39.9692 181.648 41.105 180.176 41.9107L180.088 42.272Z" fill="white"/>
<path d="M216.106 65.3203H197.46C195.043 65.3203 193.166 64.9766 191.82 64.2956C190.472 63.608 189.492 62.7185 188.888 61.6103C188.279 60.5022 187.978 59.2656 187.975 57.8973C187.971 56.5287 188.131 55.1808 188.439 53.854L192.959 34.5489C193.299 33.1001 193.83 31.6833 194.559 30.294C195.286 28.9081 196.227 27.6818 197.38 26.6153C198.534 25.549 199.933 24.6911 201.573 24.0483C203.209 23.4057 205.095 23.0826 207.228 23.0826H225.026C225.512 23.0826 225.804 23.1555 225.911 23.2982C226.023 23.4372 225.991 23.8504 225.836 24.5311L224.245 31.3529C224.12 31.8742 223.952 32.2251 223.747 32.4055C223.546 32.5861 223.223 32.6763 222.782 32.6763H208.422C207.616 32.6763 206.942 32.7877 206.415 33.0099C205.876 33.2288 205.453 33.5 205.137 33.8263C204.818 34.1457 204.574 34.507 204.397 34.9101C204.223 35.3127 204.091 35.7156 203.994 36.1154L203.399 38.6508H219.576C220.059 38.6508 220.35 38.7342 220.455 38.8906C220.555 39.054 220.527 39.4778 220.365 40.1617L218.898 46.435C218.68 47.3585 218.19 47.8209 217.425 47.8209H201.253L200.197 52.347C200.017 53.1142 199.964 53.7189 200.045 54.1601C200.121 54.6012 200.291 54.9312 200.565 55.1534C200.837 55.372 201.187 55.5147 201.612 55.5769C202.041 55.6364 202.518 55.6635 203.039 55.6635H218.367C218.849 55.6635 219.142 55.7372 219.253 55.8793C219.361 56.0181 219.336 56.4315 219.177 57.1125L217.579 63.9344C217.363 64.8579 216.867 65.3203 216.106 65.3203Z" fill="white"/>
<path d="M261.269 32.677H250.954L243.607 64.0531C243.495 64.5359 243.346 64.8689 243.165 65.0495C242.975 65.2302 242.544 65.3203 241.86 65.3203H233.291C232.367 65.3203 232.005 64.8968 232.207 64.0531L239.55 32.677H229.469C228.625 32.677 228.31 32.2152 228.528 31.2911L230.106 24.5318C230.269 23.8474 230.453 23.4379 230.672 23.2952C230.884 23.1528 231.234 23.0833 231.714 23.0833H263.517C263.996 23.0833 264.312 23.1528 264.458 23.2952C264.608 23.4379 264.601 23.8474 264.44 24.5318L262.86 31.2911C262.641 32.2152 262.113 32.677 261.269 32.677Z" fill="white"/>
<path d="M119.038 42.4548L113.881 64.0528C113.77 64.5355 113.62 64.8685 113.436 65.0491C113.248 65.2298 112.818 65.3203 112.134 65.3203H103.568C102.64 65.3203 102.28 64.9004 102.481 64.0528L111.123 27.8555C111.574 25.9662 112.186 24.6947 112.967 24.0523C113.739 23.4099 114.974 23.0865 116.663 23.0865H119.799C120.404 23.0865 120.922 23.1179 121.348 23.1767C121.776 23.2393 122.158 23.3574 122.495 23.5417C122.835 23.7223 123.144 23.9931 123.419 24.3544C123.697 24.719 123.982 25.2017 124.28 25.8028L129.827 38.714L132.776 46.0737H133.2L138.382 24.3544C138.497 23.8717 138.647 23.5417 138.831 23.3574C139.015 23.1767 139.449 23.0865 140.13 23.0865H148.699C149.622 23.0865 149.988 23.5104 149.783 24.3544L141.144 60.5544C140.817 61.92 140.266 63.0594 139.487 63.9626C138.709 64.8685 137.413 65.3203 135.604 65.3203H132.467C131.901 65.3203 131.398 65.293 130.949 65.2298C130.498 65.1715 130.105 65.0491 129.769 64.8685C129.428 64.6882 129.109 64.414 128.817 64.0528C128.521 63.6915 128.244 63.2088 127.983 62.6046L122.502 49.9361L119.462 42.4548H119.038Z" fill="white"/>
</svg>
