<svg width="339" height="98" viewBox="0 0 339 98" fill="none" xmlns="http://www.w3.org/2000/svg">
<g filter="url(#filter0_d)">
<g clip-path="url(#clip0)">
<path fill-rule="evenodd" clip-rule="evenodd" d="M163.446 78.001H144.645L147.902 59.57H166.703L163.446 78.001ZM50.8011 42.1921L49.1607 52.0435H60.0474L58.741 59.4139C58.5363 60.5756 57.7431 64.5872 56.6698 65.4974C55.706 66.1709 54.536 66.4935 53.3586 66.4109H47.7126C44.5518 66.4109 41.7838 65.667 40.2802 62.4362C38.8051 59.0388 39.937 52.1564 40.4924 49.0092C41.0659 45.7783 42.1646 40.0174 44.7294 36.7867C46.0347 35.1951 47.7015 33.9304 49.5946 33.0954C51.4875 32.2603 53.5532 31.8784 55.6237 31.9807H76.9849L84.4882 20.0142H49.2675C47.6917 20.0142 39.955 20.096 33.954 23.9887C25.4348 29.4565 22.7992 40.1424 21.1737 49.3393C19.8265 56.9595 18.5532 67.4817 23.9477 73.1058C27.098 76.4197 32.9621 77.9949 37.6943 77.9949H65.174C67.5207 78.0135 69.8166 77.3199 71.7514 76.0077C73.915 74.3665 75.3514 71.9615 75.7597 69.2964L78.8094 52.0421L78.999 50.956L80.1142 44.6614L80.5491 42.1921H50.8011ZM114.182 42.1921L112.543 52.0435H123.428L122.126 59.4122C121.922 60.5739 121.128 64.5856 120.055 65.4959C119.091 66.1692 117.921 66.4921 116.744 66.4092H111.093C107.933 66.4092 105.163 65.6656 103.659 62.4347C102.183 59.0374 103.318 52.155 103.873 49.0075C104.444 45.7769 105.544 40.0159 108.109 36.7852C109.414 35.1937 111.081 33.929 112.974 33.0939C114.867 32.2588 116.933 31.8769 119.003 31.9792H140.366L147.871 20.0127H112.65C111.072 20.0127 103.337 20.0945 97.3347 23.9872C88.814 29.455 86.18 40.1409 84.5545 49.3378C83.2074 56.9595 81.9294 67.4846 87.327 73.1101C90.4772 76.4243 96.3414 77.9995 101.075 77.9995H128.555C130.901 78.0181 133.197 77.3243 135.132 76.0123C137.295 74.3706 138.732 71.9656 139.141 69.301L142.191 52.0464L142.381 50.9606L143.495 44.6643L143.93 42.195H114.182V42.1921Z" fill="#FF7D02"/>
<path fill-rule="evenodd" clip-rule="evenodd" d="M217.133 77.9971C214.725 77.9971 212.347 77.8306 210.428 76.0099C208.17 73.7788 208.576 71.454 209.061 68.7214L216.085 28.9574C216.388 26.362 217.701 23.9851 219.747 22.3308C221.891 20.7294 224.529 19.9097 227.215 20.0104H264.931L257.429 31.9636H238.134C237.056 31.9238 235.991 32.2125 235.083 32.7906C234.261 33.5125 233.756 34.5224 233.675 35.6063L232.507 42.1883H255.716L253.979 52.0397H230.77L228.742 63.5065C228.629 63.8739 228.611 64.2634 228.69 64.6397C228.769 65.0157 228.942 65.3661 229.194 65.6588C230.2 66.3343 231.432 66.6006 232.632 66.4024H259.574L257.525 77.9942H217.133V77.9971ZM272.36 77.9971L280.506 31.8996H266.487L268.587 20H318.08L310.588 31.8996H299.265L291.121 77.9913H272.36V77.9971ZM203.918 45.2733C206.473 42.9012 208.072 39.6939 208.418 36.2459C209.091 32.4336 209.613 27.1323 206.96 23.8168C204.341 20.4462 199.49 20.0327 195.415 20.0074H154.91L153.265 29.3397C153.265 29.3501 153.265 29.359 153.265 29.3709L149.258 52.0397H183.097C183.861 51.9242 184.643 52.0172 185.357 52.3087C186.072 52.6001 186.693 53.0791 187.152 53.6936C187.516 54.4208 187.629 55.2456 187.475 56.0424C187.475 56.0424 186.459 61.8434 186.456 61.8598C186.206 63.1177 185.627 64.2893 184.778 65.2586C184.373 65.6721 183.162 66.4188 179.591 66.4188H174.118L166.894 77.9956H185.859C190.838 77.9956 195.156 77.9956 199.607 73.9381C203.85 70.1255 204.589 65.4848 205.247 61.7588C205.877 58.1961 206.451 54.4701 203.906 51.4952C202.252 49.7298 199.974 48.6612 197.545 48.5113L197.604 48.1812C200 48.014 202.25 46.9816 203.925 45.2808L203.918 45.2733ZM189.956 35.5334C189.956 35.5736 189.933 35.6257 189.924 35.6688L189.53 37.8628L189.477 38.1603C189.468 38.2004 189.461 38.2406 189.449 38.2823C189.274 39.1138 188.942 39.9054 188.472 40.6161C187.861 41.2317 187.111 41.6954 186.284 41.9692C185.457 42.243 184.575 42.3191 183.712 42.1913H169.763L170.192 39.7638L170.599 37.4656C170.639 37.2381 170.673 37.0194 170.717 36.7993L171.028 35.0426C171.036 34.5691 171.145 34.1026 171.35 33.6742C171.554 33.2459 171.848 32.8655 172.213 32.5585C172.939 32.0285 173.841 31.7909 174.737 31.8936H185.446C186.693 31.8936 188.518 31.8936 189.477 33.0554C189.961 33.7895 190.131 34.6832 189.95 35.5409L189.956 35.5334Z" fill="white"/>
</g>
</g>
<defs>
<filter id="filter0_d" x="0" y="0" width="340" height="98" filterUnits="userSpaceOnUse" color-interpolation-filters="sRGB">
<feFlood flood-opacity="0" result="BackgroundImageFix"/>
<feColorMatrix in="SourceAlpha" type="matrix" values="0 0 0 0 0 0 0 0 0 0 0 0 0 0 0 0 0 0 127 0"/>
<feOffset/>
<feGaussianBlur stdDeviation="10"/>
<feColorMatrix type="matrix" values="0 0 0 0 0.215686 0 0 0 0 0.556863 0 0 0 0 0.741176 0 0 0 1 0"/>
<feBlend mode="normal" in2="BackgroundImageFix" result="effect1_dropShadow"/>
<feBlend mode="normal" in="SourceGraphic" in2="effect1_dropShadow" result="shape"/>
</filter>
<clipPath id="clip0">
<rect x="20" y="20" width="300" height="58" fill="white"/>
</clipPath>
</defs>
</svg>
