<svg width="431" height="119" viewBox="0 0 431 119" fill="none" xmlns="http://www.w3.org/2000/svg">
<g filter="url(#filter0_d)">
<path d="M90.6998 31.2097C73.7998 37.5097 65.7998 56.6097 73.3998 72.2097C78.9998 83.5097 89.3998 89.4097 102.4 88.6097C111.2 88.0097 116.2 85.6097 122.2 78.9097C135.2 64.4097 131 42.0097 113.5 33.1097C107.4 29.9097 96.4998 29.0097 90.6998 31.2097ZM105.3 50.0097C111.9 54.0097 117.4 57.8097 117.7 58.5097C118 59.2097 117.7 60.4097 117.1 61.1097C115 63.7097 93.9998 75.9097 92.1998 75.6097C90.6998 75.3097 90.4998 73.6097 90.1998 60.3097C89.8998 44.7097 90.0998 42.8097 92.1998 42.8097C92.8998 42.8097 98.7998 46.0097 105.3 50.0097Z" fill="#EBEAEA"/>
<path d="M155 30.7098C133.4 37.8098 126.1 62.6098 140.8 78.9098C146.8 85.6098 151.8 88.0098 160.6 88.6098C169.7 89.2098 176.2 87.1098 182.4 81.7098C197.6 68.3098 194.9 43.5098 177.1 33.5098C172.9 31.1098 170.4 30.4098 164.6 30.2098C160.7 30.0098 156.4 30.2098 155 30.7098ZM168.1 50.0098C174.6 54.0098 180.2 57.9098 180.5 58.7098C180.8 59.5098 180.5 60.7098 179.8 61.4098C177.1 63.9098 156.7 75.8098 155 75.8098C152.3 75.8098 152 73.9098 152 58.9098C152 45.7098 152.6 42.8098 155.3 42.8098C155.8 42.8098 161.6 46.1098 168.1 50.0098Z" fill="#EBEAEA"/>
<path d="M30 59.8096V86.8096H50.5H71V80.3096V73.8096H58H45V53.3096V32.8096H37.5H30V59.8096Z" fill="#EBEAEA"/>
<path d="M192 38.8096V44.8096H200H208V65.8096V86.8096H216H224V65.8096V44.8096H232H240V38.8096V32.8096H216H192V38.8096Z" fill="#EBEAEA"/>
<path d="M255 59.8098V87.0098L273.8 86.6098C294.6 86.2098 296.7 85.7098 301.4 79.5098C305.6 74.0098 304.8 65.1098 299.7 60.6098C297.8 58.9098 297.8 58.9098 300.1 55.7098C301.7 53.4098 302.4 51.1098 302.4 47.9098C302.4 42.3098 301 39.7098 296.3 36.1098L292.7 33.3098L273.8 33.0098L255 32.6098V59.8098ZM286.7 47.4098C288 50.9098 285.6 52.3098 278.1 52.6098L271 52.9098V49.3098V45.8098H278.5C284.6 45.8098 286.2 46.1098 286.7 47.4098ZM287 66.8098C288.1 67.9098 289 69.2098 289 69.8098C289 70.3098 288.1 71.7098 287 72.8098C285.4 74.4098 283.7 74.8098 278 74.8098H271V69.8098V64.8098H278C283.7 64.8098 285.4 65.2098 287 66.8098Z" fill="#00D487"/>
<path d="M307 59.8096V86.8096L328.8 86.6096L350.5 86.3096V80.3096V74.3096L336.3 74.0096L322 73.7096V69.8096V65.8096H335H348V59.8096C348 52.7096 348.5 52.9096 333 52.5096L322.5 52.3096L322.2 49.1096L321.9 45.9096L335.7 45.6096L349.5 45.3096V39.3096V33.3096L328.3 33.0096L307 32.8096V59.8096Z" fill="#00D487"/>
<path d="M353 38.8096C353 45.5096 352.3 45.0096 362 45.2096L367.5 45.3096L368.1 65.8096C368.4 77.1096 368.7 86.4096 368.8 86.5096C368.9 86.7096 372.4 86.8096 376.5 86.8096H384L384.2 66.0096L384.5 45.3096L390 45.2096C400.8 45.1096 400 45.5096 400 38.8096V32.8096H376.5H353V38.8096Z" fill="#00D487"/>
<path d="M237.2 75.4095C235.7 76.4095 235 77.9095 235 80.1095C235 83.9095 235.7 85.1095 238.7 86.7095C246.1 90.6095 253.8 81.6095 248 75.8095C245.6 73.4095 240.3 73.2095 237.2 75.4095Z" fill="#EBEAEA"/>
</g>
<defs>
<filter id="filter0_d" x="0" y="0" width="430.014" height="118.709" filterUnits="userSpaceOnUse" color-interpolation-filters="sRGB">
<feFlood flood-opacity="0" result="BackgroundImageFix"/>
<feColorMatrix in="SourceAlpha" type="matrix" values="0 0 0 0 0 0 0 0 0 0 0 0 0 0 0 0 0 0 127 0"/>
<feOffset/>
<feGaussianBlur stdDeviation="15"/>
<feColorMatrix type="matrix" values="0 0 0 0 0.270588 0 0 0 0 0.564706 0 0 0 0 0.760784 0 0 0 1 0"/>
<feBlend mode="normal" in2="BackgroundImageFix" result="effect1_dropShadow"/>
<feBlend mode="normal" in="SourceGraphic" in2="effect1_dropShadow" result="shape"/>
</filter>
</defs>
</svg>
