<svg width="396" height="90" viewBox="0 0 396 90" fill="none" xmlns="http://www.w3.org/2000/svg">
<g filter="url(#filter0_d)">
<path fill-rule="evenodd" clip-rule="evenodd" d="M313.201 36.6357H303.22L298.354 61.589H287.337L292.19 36.6357H282.425L284.043 28.3179H314.819L313.201 36.6357ZM257.888 36.6357L257.056 40.7946H271.612L269.99 49.1123H255.434L254.627 53.2712H271.196L269.578 61.589H242.005L248.472 28.3179H275.771L274.149 36.6357H257.888ZM230.701 44.5376C232.014 45.0828 233.153 45.9757 233.995 47.1202C234.786 48.2692 235.192 49.6394 235.155 51.0337C235.155 54.5411 233.71 57.175 230.818 58.9356C227.926 60.6962 224.205 61.5807 219.655 61.589H200.495L207.15 28.4011H224.737C228.619 28.4011 231.575 29.0943 233.604 30.4806C234.576 31.1086 235.366 31.9789 235.899 33.0058C236.431 34.0326 236.687 35.1805 236.64 36.3363C236.66 38.0894 236.107 39.8011 235.064 41.2105C233.938 42.6941 232.43 43.844 230.701 44.5376ZM213.014 53.2712H219.668C220.256 53.2507 220.82 53.0353 221.272 52.6588C221.723 52.2823 222.037 51.7662 222.163 51.1918C222.228 50.9416 222.233 50.6797 222.179 50.427C222.125 50.1743 222.013 49.9376 221.852 49.7358C221.69 49.534 221.484 49.3726 221.249 49.2644C221.015 49.1562 220.758 49.1041 220.5 49.1123H213.804L213.014 53.2712ZM222.067 36.6357H216.245L215.438 40.7946H221.261C221.848 40.7741 222.413 40.5586 222.864 40.1822C223.316 39.8057 223.63 39.2896 223.756 38.7151C223.821 38.4628 223.827 38.1987 223.771 37.944C223.716 37.6893 223.601 37.4511 223.437 37.2488C223.273 37.0464 223.063 36.8855 222.825 36.779C222.587 36.6725 222.328 36.6234 222.067 36.6357ZM187.187 36.6357L182.321 61.589H171.304L176.158 36.6357H166.393L168.01 28.3179H198.786L197.168 36.6357H187.187ZM151.279 36.7937C149.708 36.3819 148.091 36.175 146.467 36.1782C144.92 36.1782 143.72 36.3986 142.866 36.8395C142.012 37.2803 141.585 37.8016 141.585 38.4032C141.585 39.0077 141.972 39.4818 142.745 39.8256C143.982 40.3166 145.259 40.6979 146.563 40.9651C148.407 41.3797 150.22 41.9188 151.99 42.5787C153.458 43.1432 154.768 44.0534 155.808 45.2321C156.881 46.4326 157.419 48.013 157.422 49.9732C157.464 52.3028 156.747 54.5829 155.38 56.4694C153.887 58.4352 151.868 59.9388 149.557 60.8071C146.714 61.8902 143.687 62.4127 140.645 62.3459C137.916 62.3631 135.195 62.0532 132.539 61.4226C130.339 60.9377 128.228 60.1142 126.28 58.9814L130.593 50.7301C133.982 52.7364 137.846 53.8004 141.784 53.8119C142.898 53.8666 144.011 53.6896 145.053 53.292C145.816 52.9427 146.196 52.4686 146.193 51.8697C146.19 51.2708 145.802 50.8119 145.028 50.4931C143.837 50.0153 142.609 49.6356 141.356 49.3577C139.489 48.8972 137.652 48.3194 135.858 47.6276C134.393 47.0356 133.085 46.11 132.04 44.9243C130.951 43.7044 130.406 42.1005 130.406 40.1125C130.359 37.7649 131.064 35.4638 132.419 33.5457C133.898 31.5606 135.92 30.0456 138.241 29.183C140.767 28.1571 143.753 27.6442 147.199 27.6442C149.519 27.6291 151.834 27.8747 154.099 28.3762C156.038 28.7915 157.901 29.5042 159.622 30.4889L155.592 38.6403C154.253 37.8046 152.792 37.1816 151.263 36.7937H151.279ZM49.9439 61.589L52.9009 46.3633L41.9256 61.589H38.6235L33.899 46.642L30.9878 61.589H20L26.4587 28.3179H37.6503L43.2357 45.989L55.9701 28.3179H67.4112L60.9442 61.589H49.9439Z" fill="white"/>
<path d="M96.9308 69.9065C110.712 69.9065 121.884 58.7346 121.884 44.9533C121.884 31.172 110.712 20 96.9308 20C83.1495 20 71.9775 31.172 71.9775 44.9533C71.9775 58.7346 83.1495 69.9065 96.9308 69.9065Z" fill="#FB4D00"/>
<path fill-rule="evenodd" clip-rule="evenodd" d="M369.525 61.5884H316.528L323.008 28.3174H376L369.525 61.5884Z" fill="#FB4D00"/>
<path d="M342.143 38.0789C340.931 37.1168 339.236 36.6357 337.057 36.6357H329.612L326.285 53.2297H331.883L332.715 49.0708H334.091L336.437 53.2297H342.259L339.485 48.3929C340.819 47.9335 341.98 47.0773 342.813 45.9392C343.599 44.8145 344.007 43.4685 343.977 42.0963C344.013 41.3291 343.865 40.5644 343.546 39.8656C343.227 39.1669 342.746 38.5544 342.143 38.0789ZM337.651 44.2673C337.145 44.68 336.502 44.8865 335.851 44.8454H333.551L334.333 40.961H336.204C337.593 40.961 338.284 41.5224 338.284 42.6245C338.305 42.9279 338.259 43.2323 338.15 43.5161C338.041 43.7999 337.87 44.0563 337.651 44.2673ZM360.646 36.6357L358.845 45.6688C358.593 46.8999 358.236 47.7774 357.776 48.3014C357.536 48.571 357.24 48.7837 356.907 48.924C356.575 49.0643 356.215 49.1287 355.855 49.1124C355.25 49.1549 354.653 48.9594 354.191 48.5676C353.988 48.3437 353.833 48.0806 353.736 47.7945C353.639 47.5083 353.601 47.2052 353.626 46.904C353.63 46.4967 353.677 46.091 353.767 45.6938L355.572 36.6357H349.978L348.136 45.7853C348.017 46.3615 347.953 46.9478 347.945 47.5362C347.917 48.6726 348.218 49.7929 348.81 50.7635C349.413 51.7016 350.282 52.4397 351.305 52.8845C352.52 53.4081 353.834 53.6621 355.156 53.6289C357.685 53.6289 359.707 52.9898 361.224 51.7117C362.74 50.4335 363.752 48.5371 364.26 46.0223L366.144 36.6357H360.646Z" fill="white"/>
<path d="M97.3557 53.1877L108.726 59.9791L105.723 47.1656L115.771 38.5401L102.533 37.4214L97.3557 25.3398L92.182 37.4255L78.9443 38.5609L88.9797 47.174L85.9645 59.9916L97.3557 53.1877Z" fill="white"/>
</g>
<defs>
<filter id="filter0_d" x="0" y="0" width="396" height="89.9065" filterUnits="userSpaceOnUse" color-interpolation-filters="sRGB">
<feFlood flood-opacity="0" result="BackgroundImageFix"/>
<feColorMatrix in="SourceAlpha" type="matrix" values="0 0 0 0 0 0 0 0 0 0 0 0 0 0 0 0 0 0 127 0"/>
<feOffset/>
<feGaussianBlur stdDeviation="10"/>
<feColorMatrix type="matrix" values="0 0 0 0 0.215686 0 0 0 0 0.556863 0 0 0 0 0.741176 0 0 0 1 0"/>
<feBlend mode="normal" in2="BackgroundImageFix" result="effect1_dropShadow"/>
<feBlend mode="normal" in="SourceGraphic" in2="effect1_dropShadow" result="shape"/>
</filter>
</defs>
</svg>
