<svg width="355" height="115" viewBox="0 0 355 115" fill="none" xmlns="http://www.w3.org/2000/svg">
<g filter="url(#filter0_d)">
<path d="M57.5283 93.0662C77.2148 93.0662 93.1738 77.1596 93.1738 57.538C93.1738 37.9163 77.2148 22.0098 57.5283 22.0098C37.8418 22.0098 21.8828 37.9163 21.8828 57.538C21.8828 77.1596 37.8418 93.0662 57.5283 93.0662Z" fill="#77160D"/>
<path d="M58.7206 82.6413C59.5281 82.9863 60.874 83.5228 61.7968 83.7145C62.9504 83.9444 63.681 84.0977 63.9117 84.1361C64.1424 84.1744 64.0655 84.2894 63.9502 84.4427C63.8348 84.5576 62.6812 85.4775 62.5274 85.5158C62.3736 85.5541 62.2583 85.5924 61.5661 85.2475C60.874 84.9026 58.9898 83.7528 57.9516 83.1779C56.9134 82.603 55.606 82.0281 55.606 82.0281C55.4137 81.9515 55.3753 81.8748 55.4137 81.6449C55.4137 81.6449 55.4522 81.3383 55.606 81.3383C55.7213 81.3383 56.9134 81.8365 57.7209 82.1814H57.7593C57.7978 82.1431 57.8747 82.1431 57.9131 82.1048C58.7206 81.7598 59.3359 81.3766 59.4128 81.3383C59.5281 81.3383 59.4897 81.8748 59.4897 81.8748C59.5281 82.1048 59.3743 82.1814 59.1821 82.2581C59.1821 82.2581 59.3743 82.1814 58.8744 82.4114C58.7975 82.4497 58.7206 82.5264 58.6437 82.5264L58.7206 82.6413ZM57.3748 83.2546C57.4132 83.3312 57.221 83.3312 57.1441 83.3695C56.0674 83.9827 54.5293 84.9026 53.9141 85.2092C53.2219 85.5541 53.1066 85.5541 52.9527 85.4775C52.7989 85.4391 51.6454 84.5193 51.53 84.4043C51.4146 84.2894 51.3377 84.1744 51.5685 84.0977C51.7992 84.0594 52.5682 83.9061 53.6833 83.6761C54.4909 83.5228 55.5291 83.1396 56.2981 82.7946C56.375 82.7563 56.4519 82.718 56.4904 82.718C56.5673 82.7563 57.2594 82.9096 57.3748 83.2546ZM45.493 81.1083C45.7237 81.07 46.3005 80.8017 46.6081 80.4568C48.3384 78.6554 48.7614 77.8889 51.2608 78.7704C52.1452 79.077 54.1832 79.9585 54.6447 80.1885C55.1061 80.4184 55.0676 80.9167 55.0676 81.2233C55.0676 81.5299 54.8369 81.6065 54.5293 81.6065C54.2217 81.6065 53.7603 81.6832 53.6449 81.6065C53.5295 81.5299 53.3757 81.1849 53.3757 81.0316C53.3757 80.8783 53.4142 80.5717 53.1066 80.725C51.1455 81.7598 49.2613 82.833 46.5312 81.8365C45.8006 81.5682 45.4545 81.3766 45.4161 81.2999C45.3776 81.2233 45.4161 81.185 45.4161 81.185C45.4161 81.1466 45.493 81.1083 45.493 81.1083ZM43.4165 76.6625C42.9166 76.3559 41.9553 76.2409 40.9171 76.4709C39.9173 76.7008 38.4561 77.2757 38.2639 77.314C38.1101 77.3524 38.0716 77.3907 38.1101 77.5057C38.1485 77.6206 39.6866 79.1537 40.0327 79.4603C40.3788 79.8052 41.0709 80.6101 42.4937 80.6867C43.9549 80.725 44.8008 80.5717 45.3776 80.1118C45.9928 79.6519 46.0313 79.5369 45.9544 79.422C45.9159 79.307 43.6857 76.8158 43.4165 76.6625ZM43.455 71.1435C43.7241 71.2968 46.0313 72.6383 46.5312 72.9449C47.0695 73.2515 48.3 74.2096 48.723 74.8612C49.1844 75.5127 49.7996 77.0841 49.8381 77.314C49.8765 77.544 50.1457 77.9272 49.6843 77.9272C49.2229 77.9272 48.3 77.9656 48.1462 78.1955C47.9924 78.4255 47.454 78.9237 47.1464 78.9237C46.8388 78.9237 46.0697 78.5405 45.6852 77.9272C45.2622 77.314 44.6855 75.8193 44.4932 75.0145C44.3009 74.1713 44.0318 73.3281 43.801 72.7532C43.6857 72.5233 43.2243 71.1819 43.2627 71.1435C43.3396 71.0669 43.455 71.1435 43.455 71.1435ZM31.6116 67.3493C32.0346 67.4259 33.8803 68.1541 34.4186 68.2308C34.9954 68.3074 36.4951 68.9973 36.9565 69.9171C37.4179 70.8369 38.3408 72.2167 38.5715 72.7149C38.8407 73.2131 40.0327 74.4779 40.225 74.6312C40.4172 74.7462 40.6864 75.0528 40.6479 74.8612C40.6095 74.6695 39.3021 73.6731 38.8407 72.255C38.3792 70.8369 38.1485 70.1471 38.3023 68.614C38.4562 67.081 38.8791 66.0079 38.9176 65.6629C38.9945 65.318 39.0329 64.9731 39.1483 65.088C39.2637 65.203 40.1865 66.851 40.571 67.5792C40.9556 68.3074 41.5324 69.3422 41.6477 70.5303C41.7631 71.7184 41.7631 73.903 41.8015 74.2863C41.84 74.6695 41.7631 74.8612 41.9553 75.0911C42.1476 75.3211 42.4168 75.781 42.0707 75.896C41.7246 76.0109 40.8402 75.9726 40.571 75.8193C40.3019 75.666 39.9558 75.2061 39.4559 75.3594C37.2641 76.0109 36.572 76.3942 34.6878 74.6312C33.3804 73.4048 32.3807 71.2968 31.8808 69.1506C31.7654 68.729 31.6501 68.0008 31.5347 67.7709C31.4193 67.5409 31.4193 67.4642 31.4193 67.4259C31.4962 67.3109 31.6116 67.3493 31.6116 67.3493ZM29.5352 57.6911C29.4583 58.6493 29.4198 60.259 29.689 61.5237C29.9581 62.7885 30.4965 64.0916 31.4193 64.6665C32.3037 65.2413 32.9959 65.1264 33.2266 65.3563C33.4958 65.6246 34.6878 67.2726 35.0723 67.6175C35.4953 67.9625 36.2644 68.5374 36.6873 68.9973C37.1103 69.4572 37.7256 70.4154 37.764 70.4537C37.8409 70.492 37.9178 70.377 37.8409 70.1087C37.764 69.8405 37.1872 68.6907 37.1103 68.4991C37.0334 68.3074 36.995 68.0391 37.0719 67.8858C37.1872 67.7325 37.9563 66.5827 38.1101 65.7012C38.2639 64.8198 38.4177 62.4052 38.4177 61.4854C38.4177 60.5656 38.3792 59.9524 38.2639 59.6841C38.1485 59.4158 37.8794 58.6493 37.8409 58.4193C37.8025 58.2277 37.8025 57.8444 37.6486 57.9977C37.4948 58.1894 36.4566 60.3739 36.1105 61.0638C35.726 61.7537 35.2646 63.0951 35.1877 63.7466C35.1108 64.3598 35.1492 65.7396 35.2646 66.0845C35.3799 66.4294 35.9952 67.4259 35.8414 67.4642C35.6876 67.5409 35.3415 67.2343 35.0339 66.8127C34.7263 66.3911 34.4186 64.9731 34.4186 64.3215C34.4186 63.67 34.4186 63.2101 34.534 62.7502C34.6878 62.2519 35.9952 60.259 36.149 59.3391C36.3028 58.4193 36.5335 57.1546 36.6489 56.1964C36.7258 55.6215 36.4951 53.0153 36.0721 53.3603C35.7645 53.5902 34.7263 54.7783 34.3033 55.3916C33.8803 56.0048 33.0343 57.2312 32.7652 57.8828C32.4576 58.5343 32.3037 59.7607 32.3037 60.6039C32.3037 61.4471 31.9577 60.6039 31.9961 60.3356C32.0346 60.029 32.073 58.8409 31.727 58.2277C31.3809 57.6145 30.6503 56.5413 30.5734 56.4264C30.4965 56.3114 30.035 55.7365 30.035 55.7365C29.4198 54.5867 29.5736 57.4612 29.5352 57.6911ZM33.7265 47.2281C34.4186 48.9911 34.957 51.0607 34.2648 52.977C33.9957 53.7435 33.3804 55.3149 33.2651 55.6982C33.1113 56.0814 32.6498 57.4612 32.5345 57.6528C32.4576 57.8061 32.1884 58.1127 32.1499 57.6911C32.1115 57.2695 31.9577 56.3497 31.9961 55.9665C32.0346 55.5449 31.9961 55.2383 32.2653 55.1616C32.5345 55.085 32.8036 55.1999 32.7652 54.8933C32.7652 54.625 32.3807 54.2035 32.073 53.8585C31.7654 53.5136 30.881 52.4405 30.9964 50.1026C31.1117 47.7647 31.4193 46.27 31.6501 45.5035C31.8808 44.7369 32.0346 44.507 32.1115 44.5453C32.6883 44.7753 33.4958 46.6149 33.7265 47.2281ZM37.2257 45.3885C37.9178 44.8136 39.1098 43.9321 40.3788 43.7405C41.6477 43.5488 42.1476 43.6638 42.186 43.6638C42.2245 43.6638 42.4168 43.7788 42.2629 44.0854C42.1091 44.392 41.1863 46.5383 40.8402 47.1515C40.4941 47.7264 39.802 48.5695 39.1098 48.9145C38.4177 49.2594 37.5717 49.6427 37.1488 49.8726C36.7258 50.1026 35.9567 50.7924 35.726 50.7541C35.4953 50.7158 35.4569 50.4858 35.5338 50.1409C35.6107 49.796 35.1877 49.3361 35.0339 49.1444C34.8801 48.9528 34.8801 48.6462 34.9185 48.4546C35.1108 47.3431 36.572 45.925 37.2257 45.3885ZM35.2646 40.5594C34.3033 41.8242 33.7265 42.859 33.4573 44.507C33.3804 44.9286 33.4573 45.3885 33.5342 45.6951C33.6111 46.0017 33.9957 46.8065 34.0726 46.9215C34.1495 47.0365 34.5724 47.803 34.7647 47.6497C34.957 47.4964 35.6107 46.6916 35.9952 46.155C36.3797 45.6568 36.8796 44.9286 36.9565 44.0087C36.995 43.1272 37.2641 41.4409 37.1488 40.5977C37.0334 39.7546 36.9565 39.0647 36.995 38.8731C37.0334 38.6431 37.0719 38.4898 36.9565 38.4898C36.4566 38.6048 35.6491 40.0995 35.2646 40.5594ZM44.6086 33.7757C44.6086 33.7757 43.8011 33.929 42.7244 34.7339C41.3016 35.7687 39.8404 37.0717 39.9942 39.333C39.9942 39.5246 39.9173 39.7546 39.9173 39.7546C39.9173 39.7546 39.6097 39.6013 39.5328 39.6396C39.4559 39.6396 38.5331 41.0193 38.3792 41.2876C38.2254 41.5559 37.9563 41.9775 37.9563 42.3607C37.9563 42.7057 37.9178 43.9704 38.0332 43.9704C38.1485 43.9704 39.4944 41.7092 39.4944 41.7092C39.4944 41.7092 39.802 41.4792 40.3403 41.4026C40.8787 41.3259 42.1476 41.1726 42.6475 40.5211C43.1858 39.8695 44.0318 38.4898 44.2625 37.1484C44.4932 35.807 44.647 34.3123 44.6855 34.0823C44.7239 33.929 44.7624 33.699 44.6086 33.7757ZM44.8008 37.1101C44.7624 36.9951 45.3007 36.0753 46.7619 35.5387C48.2615 35.0021 48.723 35.0021 49.7227 35.1171C50.7225 35.1938 51.5685 35.3471 52.1452 35.462C52.6836 35.5387 53.7218 35.6153 53.6833 35.7687C53.6833 35.922 53.6064 36.4968 52.7605 37.3017C51.9145 38.1065 50.761 38.9114 49.4151 39.1413C48.1077 39.333 47.0311 38.7581 46.3389 38.7198C45.6083 38.6814 44.6086 38.8731 44.5316 38.7198C44.4932 38.5665 44.8777 37.3783 44.8008 37.1101ZM44.9162 35.6537C44.9162 35.6537 45.4545 33.3924 47.6078 32.3193C49.7612 31.2462 50.7994 31.3612 51.8761 31.1312C52.9527 30.9013 53.568 30.8246 53.6064 30.8629C53.6064 30.9013 52.2222 32.8176 51.8376 33.2775C51.4531 33.7374 50.3764 34.7339 49.7996 34.6572C49.2613 34.5805 49.0306 34.5039 48.6076 34.6189C48.1846 34.7339 46.2236 35.1171 45.9544 35.2704C45.6852 35.4237 45.1469 35.807 44.9931 35.807C44.8777 35.807 44.9162 35.6537 44.9162 35.6537ZM69.6796 81.1466C69.718 81.1466 69.718 81.1849 69.6796 81.2616C69.6411 81.3383 69.2951 81.5299 68.5645 81.7982C65.8728 82.7946 63.9502 81.7215 61.9891 80.6867C61.7199 80.5334 61.7199 80.8783 61.7199 80.9933C61.7199 81.1466 61.5661 81.4916 61.4508 81.5682C61.3354 81.6449 60.874 81.5682 60.5663 81.5682C60.2587 81.5682 60.028 81.4916 60.028 81.185C60.028 80.8783 59.9896 80.3801 60.451 80.1502C60.9124 79.9202 62.9119 79.077 63.8348 78.7321C66.3342 77.8506 66.7572 78.6171 68.4876 80.4184C68.8336 80.7634 69.372 80.9933 69.6027 81.07C69.6027 81.1083 69.6796 81.1466 69.6796 81.1466ZM69.1028 79.422C69.0259 79.5369 69.1028 79.6519 69.6796 80.1118C70.2948 80.5717 71.1408 80.725 72.5635 80.6867C74.0247 80.6484 74.6784 79.8052 75.0245 79.4603C75.3706 79.1153 76.8702 77.5823 76.9471 77.5057C76.9856 77.3907 76.9471 77.3524 76.7933 77.314C76.6395 77.2757 75.1399 76.7008 74.1401 76.4709C73.1403 76.2409 72.179 76.3559 71.6407 76.6625C71.3715 76.8158 69.1797 79.307 69.1028 79.422ZM71.8329 71.1052C71.9098 71.1435 71.41 72.485 71.2946 72.7149C71.0639 73.2515 70.8332 74.133 70.6025 74.9761C70.4102 75.8193 69.7949 77.314 69.4104 77.8889C68.9874 78.5021 68.2568 78.8854 67.9492 78.8854C67.6416 78.8854 67.1033 78.3872 66.9495 78.1572C66.7957 77.9272 65.9112 77.8889 65.4114 77.8889C64.9499 77.8889 65.2191 77.5057 65.2576 77.2757C65.296 77.0457 65.9112 75.5127 66.3727 74.8228C66.8341 74.1713 68.0261 73.2131 68.5645 72.9065C69.1028 72.5999 71.41 71.2585 71.6407 71.1052C71.6407 71.1435 71.756 71.0669 71.8329 71.1052ZM83.5994 67.3493C83.5994 67.3876 83.5994 67.4642 83.4841 67.6942C83.3687 67.9242 83.2533 68.6524 83.138 69.0739C82.6381 71.2585 81.6383 73.3665 80.3309 74.5546C78.4468 76.3176 77.7546 75.896 75.5628 75.2827C75.0629 75.1294 74.6784 75.5894 74.4477 75.7427C74.1785 75.896 73.2941 75.9343 72.9481 75.8193C72.602 75.7043 72.8712 75.2444 73.0634 75.0145C73.2557 74.7845 73.2172 74.5929 73.2172 74.2096C73.2557 73.8264 73.2557 71.6418 73.371 70.4537C73.4864 69.2656 74.0632 68.1924 74.4477 67.5026C74.8322 66.7744 75.7551 65.1264 75.8704 65.0114C75.9858 64.8964 76.0627 65.2413 76.1012 65.5863C76.1781 65.9312 76.5626 67.0043 76.7164 68.5374C76.8702 70.0704 76.601 70.7603 76.1781 72.1783C75.7551 73.5964 74.4093 74.6312 74.3708 74.7845C74.3324 74.9761 74.6015 74.6695 74.7938 74.5546C74.986 74.4396 76.2165 73.1748 76.4472 72.6383C76.678 72.14 77.6008 70.7603 78.0622 69.8405C78.5237 68.9206 80.0618 68.2308 80.6001 68.1541C81.1769 68.0775 83.0226 67.3493 83.4071 67.2726C83.4841 67.3493 83.5994 67.3109 83.5994 67.3493ZM85.0606 55.6982C85.0606 55.6982 84.5992 56.2731 84.5223 56.388C84.4454 56.503 83.7148 57.5761 83.3687 58.1894C83.0226 58.8026 83.0611 59.9907 83.0995 60.2973C83.138 60.6039 82.7919 61.4471 82.7919 60.5656C82.7919 59.7224 82.6381 58.496 82.3305 57.8444C82.0229 57.1929 81.1769 55.9664 80.7924 55.3532C80.3694 54.74 79.3312 53.5902 79.0236 53.322C78.6006 52.977 78.4083 55.5832 78.4468 56.1581C78.5621 57.1162 78.7928 58.4193 78.9467 59.3008C79.1005 60.2206 80.4463 62.2136 80.5617 62.7118C80.7155 63.2101 80.677 63.6316 80.677 64.2832C80.677 64.9347 80.3694 66.3528 80.0618 66.7744C79.7542 67.196 79.4081 67.5026 79.2543 67.4259C79.1005 67.3493 79.7157 66.3911 79.8311 66.0462C79.9464 65.7013 79.9849 64.3215 79.908 63.7083C79.8311 63.0951 79.3312 61.7153 78.9851 61.0255C78.6006 60.3356 77.5624 58.1127 77.447 57.9594C77.2932 57.7678 77.3316 58.151 77.2547 58.381C77.2163 58.5726 76.9471 59.3391 76.8318 59.6457C76.7164 59.914 76.678 60.5272 76.678 61.4471C76.678 62.3669 76.8318 64.7814 76.9856 65.6629C77.1394 66.5444 77.9084 67.6942 78.0238 67.8475C78.1391 68.0008 78.0622 68.2691 77.9853 68.4607C77.9084 68.6524 77.3701 69.8021 77.2547 70.0704C77.1778 70.3387 77.2547 70.4537 77.3316 70.4153C77.4086 70.377 77.9853 69.4189 78.4083 68.959C78.8313 68.499 79.6388 67.9625 80.0233 67.5792C80.4463 67.2343 81.5999 65.5863 81.869 65.318C82.1382 65.0497 82.7919 65.1647 83.6763 64.6281C84.5607 64.0532 85.1375 62.7502 85.4067 61.4854C85.6374 60.2206 85.6374 58.6109 85.5605 57.6528C85.522 57.4612 85.6758 54.5867 85.0606 55.6982ZM82.9842 44.5453C83.0611 44.507 83.2149 44.7369 83.4456 45.5035C83.6763 46.27 83.9839 47.7647 84.0993 50.1026C84.2146 52.4405 83.2918 53.5136 83.0226 53.8585C82.715 54.2035 82.3305 54.625 82.3305 54.8933C82.3305 55.1616 82.5996 55.0466 82.8304 55.1616C83.0995 55.2383 83.0611 55.5449 83.0995 55.9665C83.138 56.388 82.9842 57.2695 82.9457 57.6911C82.9073 58.1127 82.6765 57.8444 82.5612 57.6528C82.4843 57.4995 81.9844 56.1198 81.8306 55.6982C81.6768 55.3149 81.1 53.7435 80.8308 52.977C80.1387 51.0607 80.6386 48.9911 81.3692 47.2281C81.5999 46.6149 82.4074 44.7753 82.9842 44.5453ZM80.1771 48.3779C80.2156 48.5695 80.2156 48.8761 80.0618 49.0678C79.908 49.2594 79.485 49.7193 79.5619 50.0642C79.6388 50.4475 79.6003 50.6391 79.3696 50.6775C79.1389 50.7158 78.3699 50.0259 77.9469 49.796C77.5239 49.566 76.678 49.1828 75.9858 48.8378C75.2937 48.4929 74.6015 47.6497 74.2554 47.0748C73.9094 46.4999 72.9865 44.3153 72.8327 44.0087C72.6789 43.7021 72.8712 43.6255 72.9096 43.5872C72.9481 43.5872 73.4479 43.4722 74.7169 43.6638C75.9858 43.8554 77.1778 44.7369 77.87 45.3118C78.5237 45.925 79.9849 47.3431 80.1771 48.3779ZM78.1007 38.4898C78.0238 38.4515 78.0622 38.6431 78.0622 38.8731C78.1007 39.103 78.0238 39.7546 77.9084 40.5977C77.7931 41.4409 78.0622 43.1272 78.1007 44.0087C78.1391 44.8902 78.6775 45.6568 79.062 46.155C79.4465 46.6532 80.1002 47.4964 80.2925 47.6497C80.4848 47.803 80.9077 47.0365 80.9846 46.9215C81.0615 46.8065 81.4461 46.0017 81.523 45.6951C81.5999 45.3885 81.6768 44.9286 81.5999 44.507C81.3307 42.859 80.7924 41.8242 79.7926 40.5594C79.4465 40.0995 78.639 38.6048 78.1007 38.4898ZM70.4102 34.0823C70.4486 34.3123 70.6025 35.7687 70.8332 37.1484C71.0639 38.4898 71.9098 39.8695 72.4482 40.5211C72.9865 41.1726 74.217 41.3259 74.7553 41.4026C75.2937 41.4792 75.6013 41.7092 75.6013 41.7092C75.6013 41.7092 76.9471 43.9704 77.0625 43.9704C77.1778 43.9704 77.1394 42.744 77.1394 42.3607C77.1394 42.0158 76.8702 41.5942 76.7164 41.2876C76.5626 41.0193 75.6013 39.6396 75.5628 39.6396C75.5244 39.6396 75.1783 39.7546 75.1783 39.7546C75.1783 39.7546 75.1014 39.4863 75.1014 39.333C75.2552 37.0717 73.794 35.7687 72.3713 34.7339C71.2946 33.929 70.4871 33.7757 70.4871 33.7757C70.3333 33.699 70.3717 33.929 70.4102 34.0823ZM70.5256 38.7198C70.4486 38.8731 69.4489 38.6431 68.7183 38.7198C67.9877 38.7581 66.9495 39.3713 65.6421 39.1413C64.3347 38.9497 63.1427 38.1449 62.2967 37.3017C61.4508 36.4968 61.3739 35.922 61.3739 35.7687C61.3739 35.6153 62.3736 35.5387 62.912 35.462C63.4503 35.3854 64.2962 35.2321 65.3345 35.1171C66.3342 35.0405 66.7957 35.0021 68.2953 35.5387C69.795 36.0753 70.2948 36.9951 70.2564 37.1101C70.2179 37.3783 70.6025 38.5665 70.5256 38.7198ZM70.0641 35.8453C69.9103 35.8453 69.372 35.462 69.1028 35.3087C68.8336 35.1554 66.8726 34.7722 66.4496 34.6572C66.0266 34.5422 65.8343 34.6189 65.2576 34.6955C64.7192 34.7722 63.6426 33.7757 63.2196 33.3158C62.835 32.8559 61.4508 30.9396 61.4508 30.9013C61.4508 30.8629 62.1044 30.9396 63.1811 31.1695C64.2578 31.3995 65.296 31.2845 67.4493 32.3576C69.6027 33.4308 70.141 35.692 70.141 35.692C70.141 35.692 70.2179 35.807 70.0641 35.8453Z" fill="#FDC743"/>
<path d="M57.5277 94.5995C36.9941 94.5995 20.3057 77.966 20.3057 57.5C20.3057 37.0339 36.9941 20.4004 57.5277 20.4004C78.0614 20.4004 94.7497 37.0339 94.7497 57.5C94.7497 77.966 78.0614 94.5995 57.5277 94.5995ZM57.5277 24.118C39.032 24.118 24.0356 39.1035 24.0356 57.5C24.0356 75.9347 39.0705 90.8819 57.5277 90.8819C76.0234 90.8819 91.0198 75.8964 91.0198 57.5C91.0583 39.1035 76.0234 24.118 57.5277 24.118Z" fill="#FDC743"/>
<path d="M150.275 53.5913C150.275 47.2675 148.083 41.9402 143.93 38.2226C140.239 34.9266 135.278 33.0869 129.972 33.0869C124.665 33.0869 119.705 34.8882 116.014 38.2226C111.861 41.9402 109.669 47.2675 109.669 53.5913C109.669 59.9151 111.861 65.2424 116.014 68.9984C119.705 72.2944 124.665 74.134 129.972 74.134C135.278 74.134 140.239 72.2944 143.93 68.9984C148.083 65.2424 150.275 59.9151 150.275 53.5913ZM139.393 53.5913C139.393 60.605 134.509 63.8244 129.972 63.8244C125.434 63.8244 120.551 60.6433 120.551 53.5913C120.551 46.616 125.434 43.4733 129.972 43.4733C134.509 43.4349 139.393 46.616 139.393 53.5913Z" fill="white"/>
<path d="M171.694 33.1631L154.121 71.2974V71.4124V73.4054H164.388L174.039 51.1763L183.845 73.4054H194.112V71.4124L176.462 33.1631H171.694Z" fill="white"/>
<path d="M214.491 52.2873V33.9292H203.725V73.4049H207.608L226.796 54.7018V73.4049H237.563V33.5459H233.641L214.491 52.2873Z" fill="white"/>
<path d="M269.209 50.2944L254.212 33.6992L254.097 33.5459H249.867V73.4049H260.634V56.5032L268.555 64.59H269.939L277.553 56.5032V73.4049H288.704V33.5459H284.551L269.209 50.2944Z" fill="white"/>
<path d="M301.01 33.9297V73.4055H311.776V43.5112H322.928V73.4055H334.079V33.9297H301.01Z" fill="white"/>
<path d="M118.937 83.1402C118.822 82.9869 118.629 82.8719 118.476 82.7569C118.322 82.642 118.36 82.5653 117.976 82.4887C118.36 82.412 118.283 82.3353 118.399 82.2204C118.514 82.1054 118.668 81.9904 118.783 81.8754C118.899 81.7605 118.975 81.6072 119.052 81.4539C119.129 81.3005 119.168 81.1089 119.168 80.9173C119.168 80.6873 119.129 80.4574 119.014 80.2657C118.937 80.0741 118.783 79.8825 118.591 79.6909C118.399 79.5376 118.168 79.3843 117.86 79.3076C117.553 79.2309 117.245 79.1543 116.822 79.1543H111.823V79.4609C111.823 79.4609 112.016 79.4609 112.092 79.4992C112.169 79.5376 112.208 79.6142 112.208 79.6909V85.5931C112.208 85.6697 112.169 85.7464 112.092 85.7847C112.016 85.823 111.823 85.823 111.823 85.823V86.053H116.745C117.207 86.053 117.591 86.0146 117.937 85.938C118.283 85.823 118.552 85.708 118.745 85.5547C118.937 85.4014 119.091 85.2098 119.206 84.9798C119.283 84.7499 119.36 84.5199 119.36 84.29C119.36 84.06 119.321 83.8684 119.245 83.6768C119.168 83.4468 119.052 83.2935 118.937 83.1402ZM113.746 80.3041H116.591C116.707 80.3041 116.861 80.3424 116.976 80.3424C117.091 80.3424 117.207 80.419 117.322 80.4574C117.399 80.534 117.514 80.6107 117.553 80.6873C117.63 80.8023 117.63 80.9173 117.63 81.1089C117.63 81.4155 117.514 81.6072 117.284 81.7221C117.053 81.8371 116.822 81.8371 116.591 81.8371H113.746V80.3041ZM117.553 84.6732C117.36 84.8265 117.053 84.9032 116.553 84.9032H113.746V82.9869H116.322C116.861 82.9869 117.245 83.1019 117.476 83.2552C117.706 83.4085 117.822 83.6768 117.822 83.9834C117.822 84.29 117.745 84.5199 117.553 84.6732Z" fill="white"/>
<path d="M128.627 85.5164L126.089 80.1508C126.05 80.0358 125.973 79.9208 125.935 79.8442C125.897 79.7675 125.858 79.6909 125.858 79.6142C125.858 79.5376 125.897 79.4992 125.935 79.4992C125.973 79.4992 126.05 79.4609 126.05 79.4609V79.1543H123.743V79.4609V79.4992C123.782 79.4992 123.743 79.5376 123.743 79.6142C123.743 79.6909 123.705 79.7675 123.666 79.8825C123.628 79.9591 123.589 80.0741 123.512 80.2274L121.167 85.3248C121.128 85.4014 121.052 85.5164 120.975 85.5931C120.898 85.708 120.667 85.7464 120.667 85.7847V86.0146H122.974V85.7847C122.59 85.7847 122.705 85.7847 122.667 85.7464C122.628 85.708 122.551 85.6697 122.551 85.5931V85.4014L122.628 85.2481L123.051 84.4816H126.435L126.858 85.2865C126.896 85.3631 126.935 85.4014 126.935 85.4398C126.973 85.4781 126.973 85.5164 126.973 85.5931C126.973 85.6697 126.973 85.708 126.935 85.7464C126.858 85.7847 126.819 85.7847 126.819 85.7847V85.9763H129.127V85.7464C128.742 85.708 128.934 85.708 128.857 85.6697C128.78 85.6697 128.665 85.6314 128.627 85.5164ZM123.551 83.3702L124.666 80.7257L125.935 83.3702H123.551Z" fill="white"/>
<path d="M138.74 79.4609C138.74 79.4609 138.932 79.4609 138.971 79.4992C139.009 79.5376 139.125 79.6142 139.125 79.6909V84.9032H136.433V79.6909C136.433 79.6142 136.548 79.5376 136.587 79.4992C136.625 79.4609 136.433 79.4609 136.817 79.4609V79.1543H134.51V79.4609C134.895 79.4609 134.703 79.4609 134.741 79.4992C134.779 79.5376 134.895 79.6142 134.895 79.6909V84.9032H132.203V79.6909C132.203 79.6142 132.318 79.5376 132.357 79.4992C132.395 79.4609 132.588 79.4609 132.588 79.4609V79.1543H130.665V79.4609L130.703 79.4992C130.703 79.4992 130.665 79.6142 130.665 79.6909V85.5931C130.665 85.6697 130.742 85.7464 130.703 85.7847C130.665 85.823 130.665 85.823 130.665 85.823V86.053H140.663V85.823L140.624 85.7847C140.624 85.7847 140.663 85.6697 140.663 85.5931V79.6909C140.663 79.6142 140.586 79.5376 140.624 79.4992C140.663 79.4609 140.663 79.4609 140.663 79.4609V79.1543H138.74V79.4609Z" fill="white"/>
<path d="M150.276 85.5164L147.738 80.1508C147.7 80.0358 147.623 79.9208 147.584 79.8442C147.546 79.7675 147.507 79.6909 147.507 79.6142C147.507 79.5376 147.507 79.4992 147.546 79.4992C147.584 79.4992 147.623 79.4609 147.623 79.4609V79.1543H145.315V79.4609C145.315 79.4992 145.354 79.4992 145.392 79.4992C145.431 79.4992 145.431 79.5376 145.431 79.6142C145.431 79.6909 145.392 79.7675 145.392 79.8825C145.354 79.9591 145.315 80.0741 145.239 80.2274L142.893 85.3248C142.854 85.4014 142.701 85.5164 142.624 85.5931C142.547 85.708 142.624 85.7464 142.239 85.7847V86.0146H144.546V85.7847C144.546 85.7847 144.354 85.7847 144.316 85.7464C144.277 85.708 144.239 85.6697 144.239 85.5931C144.239 85.5547 144.239 85.4781 144.277 85.4014C144.316 85.3248 144.316 85.3248 144.393 85.2481L144.816 84.4816H148.199L148.622 85.2865C148.661 85.3631 148.661 85.4014 148.699 85.4398C148.738 85.4781 148.738 85.5164 148.738 85.5931C148.738 85.6697 148.699 85.708 148.622 85.7464C148.545 85.7847 148.43 85.7847 148.43 85.7847V85.9763H150.737V85.7464C150.737 85.708 150.583 85.708 150.507 85.6697C150.391 85.6697 150.314 85.6314 150.276 85.5164ZM145.2 83.3702L146.315 80.7257L147.584 83.3702H145.2Z" fill="white"/>
<path d="M161.504 81.8371H158.735V80.3041H162.542C162.696 80.3041 162.811 80.3041 162.926 80.3807C163.042 80.4574 163.08 80.6873 163.08 80.6873H163.349V79.1543H163.08C163.08 79.1543 163.042 79.1926 162.926 79.2309C162.811 79.2309 162.696 79.1543 162.542 79.1543H156.812V79.4609C156.812 79.4609 157.005 79.4609 157.082 79.4992C157.159 79.5376 157.197 79.6142 157.197 79.6909V85.5931C157.197 85.6697 157.159 85.7464 157.082 85.7847C157.005 85.823 156.812 85.823 156.812 85.823V86.053H161.504C162.35 86.053 163.003 85.8997 163.426 85.5547C163.849 85.2098 164.08 84.7116 164.08 83.9067C164.08 82.4886 163.234 81.8371 161.504 81.8371ZM162.234 84.6349C162.042 84.8265 161.773 84.9032 161.465 84.9032H158.735V82.9869H161.504C161.811 82.9869 162.08 83.0252 162.273 83.1785C162.465 83.3318 162.58 83.5618 162.58 83.9067C162.542 84.2516 162.465 84.4433 162.234 84.6349Z" fill="white"/>
<path d="M170.655 79.4609C171.04 79.4609 171.04 79.4992 171.04 79.6142C171.04 79.6909 171.078 79.7292 171.04 79.8058C171.002 79.8825 170.963 79.9591 170.925 80.0358L169.463 82.4887L167.81 80.0358C167.733 79.9208 167.695 79.8442 167.656 79.8058C167.618 79.7675 167.618 79.6909 167.618 79.6525C167.618 79.5759 167.695 79.5376 167.772 79.4992C167.848 79.4609 168.002 79.4609 168.002 79.4609V79.1543H165.311V79.4609C165.311 79.4609 165.503 79.4992 165.58 79.5376C165.657 79.5759 165.734 79.6525 165.81 79.7292L168.656 83.8301L167.618 85.5547C167.541 85.708 167.387 85.7847 167.272 85.823C167.156 85.8613 167.233 85.8997 166.849 85.8997V86.053H169.54V85.8997C169.156 85.8997 169.233 85.8613 169.233 85.7847C169.233 85.708 169.233 85.5931 169.31 85.4781C169.387 85.3631 169.463 85.2098 169.579 85.0565L172.886 79.7292C172.963 79.5759 173.001 79.4992 173.386 79.4992V79.1543H170.694V79.4609H170.655Z" fill="white"/>
<path d="M181.653 85.5164C181.499 85.3631 181.345 85.2098 181.191 85.0182L178.692 81.9521L181.268 79.8442C181.537 79.6525 181.768 79.5376 181.768 79.4992V79.1543H179.076V79.4226C179.461 79.4226 179.269 79.4226 179.345 79.4609C179.384 79.4992 179.461 79.5376 179.461 79.5759C179.461 79.6142 179.384 79.7292 179.192 79.8825C178.999 80.0741 178.769 80.2658 178.461 80.534C178.153 80.8023 177.846 81.0706 177.461 81.3772C177.077 81.6838 176.769 81.9904 176.385 82.2587V79.6909C176.385 79.5376 176.385 79.4609 176.769 79.4609V79.1543H174.462V79.4609C174.846 79.4609 174.846 79.5376 174.846 79.6909V85.5931C174.846 85.7464 174.846 85.823 174.462 85.823V86.053H176.769V85.823C176.385 85.823 176.385 85.7464 176.385 85.5931V83.8301L177.577 82.8719L179.499 85.2481C179.653 85.4014 179.73 85.5164 179.768 85.5931C179.807 85.6697 179.922 85.708 179.922 85.7847C179.922 85.8613 179.845 85.8613 179.845 85.8613V86.0913H182.152V85.8613C181.806 85.7847 181.806 85.6697 181.653 85.5164Z" fill="white"/>
<path d="M189.882 79.4609C189.882 79.4609 189.997 79.4992 189.997 79.6142C189.997 79.6525 189.997 79.6909 189.92 79.7675C189.882 79.8442 189.805 79.9591 189.767 80.0741L187.844 83.6001L185.921 80.0741C185.844 79.9591 185.806 79.8442 185.767 79.7675C185.729 79.6909 185.806 79.6525 185.806 79.6142C185.806 79.5376 185.652 79.4609 186.037 79.4609V79.1543H183.729V79.4609C183.729 79.4609 183.768 79.4609 183.768 79.4992C183.806 79.5376 183.729 79.6142 183.729 79.7675V85.5164C183.729 85.6314 183.806 85.708 183.768 85.7464C183.729 85.7847 183.729 85.7847 183.729 85.823V86.053H185.268V85.823V85.5931V81.0706H185.191L187.729 86.053H187.844L190.536 81.0706H190.651V85.5931C190.651 85.7464 190.651 85.823 190.266 85.823V86.053H192.189V85.823C192.189 85.823 191.997 85.823 191.958 85.7847C191.92 85.7464 191.805 85.6697 191.805 85.5931V79.6909C191.805 79.6142 191.92 79.5376 191.958 79.5376C191.997 79.4992 192.189 79.4992 192.189 79.4992V79.1543H189.882V79.4609Z" fill="white"/>
<path d="M200.995 84.7877C200.918 84.8643 200.803 84.9027 200.687 84.9027H196.803V82.9864H198.957C199.149 82.9864 199.341 83.063 199.457 83.1013C199.572 83.1397 199.611 83.3696 199.572 83.3696H199.88V81.8366H199.572C199.572 81.8366 199.534 81.9132 199.457 81.9132C199.38 81.9516 199.226 81.8366 199.072 81.8366H196.803V80.3035H200.495C200.803 80.3035 200.995 80.3035 200.995 80.6868H201.418V78.7705H200.995C200.995 79.1538 200.841 79.1538 200.495 79.1538H194.881V79.4604C194.881 79.4604 195.073 79.4604 195.112 79.4987C195.15 79.537 195.265 79.6137 195.265 79.6903V85.5925C195.265 85.6692 195.15 85.7458 195.112 85.7842C195.073 85.8225 194.881 85.8225 194.881 85.8225V86.0524H200.687C200.803 86.0524 200.918 86.1674 200.995 86.1674C201.072 86.1674 201.11 86.0524 201.11 86.4357H201.418V84.5194H201.11C201.11 84.9027 201.072 84.711 200.995 84.7877Z" fill="white"/>
<path d="M210.57 85.5164C210.416 85.3631 210.262 85.2098 210.147 85.0182L207.647 81.9521L210.377 79.8442C210.647 79.6525 210.647 79.5376 211.031 79.4992V79.1543H208.339V79.4226C208.339 79.4226 208.378 79.4226 208.455 79.4609C208.493 79.4992 208.532 79.5376 208.532 79.5759C208.532 79.6142 208.416 79.7292 208.224 79.8825C208.032 80.0741 207.763 80.2658 207.455 80.534C207.147 80.8023 206.801 81.0706 206.417 81.3772C206.032 81.6838 205.686 81.9904 205.302 82.2587V79.6909C205.302 79.5376 205.302 79.4609 205.686 79.4609V79.1543H203.764V79.4609V79.6909V85.5931V85.823V86.053H205.686V85.823C205.302 85.823 205.302 85.7464 205.302 85.5931V83.8301L206.571 82.8719L208.532 85.2481C208.686 85.4014 208.762 85.5164 208.801 85.5931C208.839 85.6697 208.916 85.708 208.916 85.7847C208.916 85.8613 208.801 85.8613 208.801 85.8613V86.0913H211.108V85.8613C210.647 85.7847 210.724 85.6697 210.57 85.5164Z" fill="white"/>
<path d="M218.529 84.7877C218.452 84.8643 218.336 84.9027 218.221 84.9027H214.106V82.9864H216.491C216.683 82.9864 216.875 83.063 216.99 83.1013C217.106 83.1397 217.144 83.3696 217.106 83.3696H217.567V81.8366H217.144C217.144 81.8366 217.106 81.9132 217.029 81.9132C216.952 81.9516 216.798 81.8366 216.644 81.8366H214.106V80.3035H218.029C218.336 80.3035 218.529 80.3035 218.529 80.6868H218.721V78.7705H218.529C218.529 79.1538 218.375 79.1538 218.029 79.1538H212.568V79.4604L212.607 79.4987C212.607 79.4987 212.568 79.6137 212.568 79.6903V85.5925C212.568 85.6692 212.645 85.7458 212.607 85.7842L212.568 85.8225V86.0524H218.221C218.336 86.0524 218.452 86.1674 218.529 86.1674C218.605 86.1674 218.644 86.0524 218.644 86.4357H219.067V84.5194H218.644C218.682 84.9027 218.644 84.711 218.529 84.7877Z" fill="white"/>
<path d="M227.488 79.6142C227.065 79.3076 226.412 79.1543 225.566 79.1543H221.028V79.4609C221.413 79.4609 221.413 79.5376 221.413 79.6909V85.5931C221.413 85.7464 221.413 85.823 221.028 85.823V86.053H223.335V85.823C222.951 85.823 222.951 85.7464 222.951 85.5931V83.3701H225.566C226.412 83.3701 227.065 83.1402 227.488 82.8719C227.911 82.5653 228.142 82.0287 228.142 81.2622C228.142 80.4957 227.911 79.9208 227.488 79.6142ZM226.296 81.9904C226.104 82.1054 225.835 82.2204 225.527 82.2204H222.951V80.3041H225.527C225.835 80.3041 226.104 80.3807 226.296 80.534C226.489 80.649 226.604 80.9556 226.604 81.2622C226.604 81.6072 226.489 81.8754 226.296 81.9904Z" fill="white"/>
<path d="M235.64 83.7539V83.9072V84.0222C235.64 84.0988 235.563 84.2138 235.409 84.3288C235.255 84.4438 235.063 84.5587 234.832 84.6354C234.602 84.7504 234.332 84.827 234.025 84.9037C233.717 84.9803 233.448 85.0187 233.14 85.0187C232.833 85.0187 232.525 84.9803 232.256 84.8653C231.948 84.7504 231.679 84.5971 231.448 84.3671C231.218 84.1372 231.025 83.9072 230.872 83.6006C230.718 83.294 230.641 82.949 230.641 82.6041C230.641 82.2209 230.718 81.8759 230.833 81.6076C230.949 81.301 231.141 81.0711 231.371 80.8794C231.602 80.6878 231.871 80.5345 232.179 80.4195C232.487 80.3046 232.833 80.2662 233.217 80.2662C233.525 80.2662 233.832 80.3046 234.102 80.3429C234.371 80.4195 234.601 80.4579 234.794 80.5728C234.986 80.6495 235.14 80.7261 235.255 80.8411C235.371 80.9178 235.409 80.9944 235.409 81.0711V81.1477V81.2244L235.601 81.3394L236.639 79.8446L236.447 79.7297C236.409 79.768 236.37 79.768 236.332 79.8063C236.293 79.8446 236.255 79.8446 236.217 79.8446C236.14 79.8446 236.024 79.8063 235.87 79.7297C235.717 79.653 235.486 79.5764 235.255 79.4614C234.986 79.3847 234.717 79.2698 234.371 79.1931C234.025 79.1165 233.679 79.0781 233.256 79.0781C232.756 79.0781 232.256 79.1548 231.756 79.3081C231.256 79.4614 230.833 79.6913 230.449 79.9596C230.064 80.2662 229.756 80.6112 229.526 81.0711C229.295 81.4927 229.18 82.0292 229.18 82.6041C229.18 83.179 229.295 83.7156 229.526 84.1372C229.756 84.5971 230.064 84.942 230.41 85.2486C230.795 85.5552 231.218 85.7468 231.679 85.9002C232.141 86.0535 232.64 86.0918 233.102 86.0918C233.563 86.0918 233.986 86.0535 234.371 85.9768C234.755 85.9002 235.101 85.7852 235.371 85.6702C235.678 85.5552 235.909 85.4402 236.101 85.3636C236.293 85.2869 236.409 85.2103 236.524 85.2103C236.563 85.2103 236.678 85.2486 236.793 85.2869L236.947 85.2103L235.755 83.5239L235.64 83.7539Z" fill="white"/>
<path d="M245.6 85.5164C245.446 85.3631 245.33 85.2098 245.215 85.0182L242.716 81.9521L245.407 79.8442C245.676 79.6525 245.638 79.5376 246.023 79.4992V79.1543H243.331V79.4226C243.331 79.4226 243.446 79.4226 243.485 79.4609C243.562 79.4992 243.562 79.5376 243.562 79.5759C243.562 79.6142 243.446 79.7292 243.254 79.8825C243.062 80.0741 242.793 80.2658 242.485 80.534C242.177 80.8023 241.754 81.0706 241.37 81.3772C240.985 81.6838 240.562 81.9904 240.178 82.2587V79.6909C240.178 79.5376 240.562 79.4609 240.562 79.4609V79.1543H238.64V79.4609V79.6909V85.5931V85.823V86.053H240.562V85.823C240.562 85.823 240.178 85.7464 240.178 85.5931V83.8301L241.485 82.8719L243.446 85.2481C243.6 85.4014 243.677 85.5164 243.754 85.5931C243.792 85.6697 243.831 85.708 243.831 85.7847C243.831 85.8613 243.638 85.8613 243.638 85.8613V86.0913H245.946V85.8613C246.023 85.7847 245.753 85.6697 245.6 85.5164Z" fill="white"/>
<path d="M254.405 85.5164L251.868 80.1508C251.829 80.0358 251.752 79.9208 251.714 79.8442C251.675 79.7675 251.637 79.6909 251.637 79.6142C251.637 79.5376 251.675 79.4992 251.714 79.4992C251.752 79.4992 251.829 79.4609 251.829 79.4609V79.1543H249.522V79.4609C249.522 79.4992 249.522 79.4992 249.56 79.4992C249.599 79.4992 249.56 79.5376 249.56 79.6142C249.56 79.6909 249.522 79.7675 249.483 79.8825C249.445 79.9591 249.407 80.0741 249.33 80.2274L246.984 85.3248C246.946 85.4014 246.83 85.5164 246.753 85.5931C246.676 85.708 246.792 85.7464 246.407 85.7847V86.0146H248.714V85.7847C248.33 85.7847 248.484 85.7847 248.445 85.7464C248.407 85.708 248.33 85.6697 248.33 85.5931C248.33 85.5547 248.33 85.4781 248.368 85.4014C248.407 85.3248 248.407 85.3248 248.445 85.2481L248.868 84.4816H252.252L252.675 85.2865C252.713 85.3631 252.752 85.4014 252.752 85.4398C252.79 85.4781 252.79 85.5164 252.79 85.5931C252.79 85.6697 252.752 85.708 252.713 85.7464C252.637 85.7847 252.56 85.7847 252.56 85.7847V85.9763H254.867V85.7464C254.867 85.708 254.675 85.708 254.636 85.6697C254.559 85.6697 254.444 85.6314 254.405 85.5164ZM249.368 83.3702L250.483 80.7257L251.752 83.3702H249.368Z" fill="white"/>
<path d="M256.866 79.6142C256.327 79.9208 256.058 80.4574 256.058 81.1856C256.058 81.4539 256.097 81.7221 256.212 81.9521C256.327 82.1821 256.443 82.3737 256.635 82.527C256.827 82.6803 257.019 82.8336 257.212 82.9102C257.404 83.0252 257.635 83.1019 257.865 83.1402L256.327 85.4014C256.25 85.5164 256.097 85.5931 255.981 85.6697C255.866 85.7464 255.981 85.7847 255.597 85.7847V86.0146H257.904V85.7847C257.904 85.7847 257.75 85.7464 257.75 85.6314C257.75 85.5164 257.865 85.4014 258.019 85.1715L259.25 83.3318H261.711V85.5547C261.711 85.6314 261.634 85.708 261.557 85.7464C261.48 85.7847 261.326 85.7847 261.326 85.7847V86.0146H263.249V85.7847V85.5547V79.6525V79.4226V79.1543H258.98C258.135 79.1543 257.404 79.3076 256.866 79.6142ZM261.788 80.3041V82.2204H259.134C258.096 82.2204 257.596 81.8754 257.596 81.2239C257.596 80.9556 257.712 80.7257 257.981 80.5724C258.211 80.4191 258.634 80.3041 259.134 80.3041H261.788Z" fill="white"/>
<path d="M277.592 85.5164C277.439 85.3631 277.362 85.2098 277.208 85.0182L274.747 81.9521L277.4 79.8442C277.669 79.6525 277.977 79.5376 277.977 79.4992V79.1543H275.285V79.4226C275.285 79.4226 275.439 79.4226 275.516 79.4609C275.593 79.4992 275.631 79.5376 275.631 79.5759C275.631 79.6142 275.554 79.7292 275.362 79.8825C275.17 80.0741 274.901 80.2658 274.593 80.534C274.285 80.8023 274.016 81.0706 273.632 81.3772C273.247 81.6838 272.978 81.9904 272.594 82.2587V79.6909V79.4609V79.1543H270.671V79.4609C270.671 79.4609 271.055 79.5376 271.055 79.6909V85.5931C271.055 85.7464 270.671 85.823 270.671 85.823V86.053H272.594V85.823V85.5931V83.8301L273.747 82.8719L275.67 85.2481C275.824 85.4014 275.862 85.5164 275.939 85.5931C275.977 85.6697 275.939 85.708 275.939 85.7847C275.939 85.8613 276.093 85.8613 275.708 85.8613V86.0913H278.015V85.8613C277.938 85.7847 277.708 85.6697 277.592 85.5164Z" fill="white"/>
<path d="M286.052 79.9596C285.667 79.653 285.244 79.4614 284.706 79.3081C284.206 79.1548 283.668 79.0781 283.091 79.0781C282.514 79.0781 281.976 79.1548 281.476 79.3081C280.976 79.4614 280.514 79.6913 280.13 79.9596C279.745 80.2662 279.438 80.6112 279.245 81.0711C279.015 81.531 278.899 82.0292 278.899 82.6424C278.899 83.2557 279.015 83.7539 279.245 84.2138C279.476 84.6737 279.784 85.0186 280.13 85.3253C280.514 85.6319 280.937 85.8235 281.476 85.9768C281.976 86.0918 282.514 86.1684 283.091 86.1684C283.668 86.1684 284.206 86.0918 284.706 85.9768C285.206 85.8618 285.667 85.6319 286.052 85.3253C286.436 85.0186 286.744 84.6737 286.936 84.2138C287.167 83.7539 287.282 83.2557 287.282 82.6424C287.282 82.0292 287.167 81.531 286.936 81.0711C286.705 80.6112 286.398 80.2662 286.052 79.9596ZM285.513 83.6389C285.359 83.9455 285.167 84.1755 284.898 84.4054C284.629 84.5971 284.36 84.7504 284.052 84.8653C283.744 84.9803 283.398 85.0186 283.052 85.0186C282.706 85.0186 282.399 84.9803 282.053 84.8653C281.745 84.7504 281.437 84.5971 281.207 84.4054C280.937 84.2138 280.745 83.9455 280.591 83.6389C280.438 83.3323 280.361 83.0257 280.361 82.6424C280.361 82.2592 280.438 81.9142 280.591 81.646C280.745 81.3394 280.937 81.1094 281.207 80.9178C281.476 80.7261 281.745 80.5728 282.053 80.4579C282.36 80.3429 282.706 80.3046 283.052 80.3046C283.398 80.3046 283.706 80.3429 284.052 80.4579C284.36 80.5728 284.667 80.7261 284.898 80.9178C285.167 81.1094 285.359 81.3777 285.513 81.646C285.667 81.9526 285.744 82.2592 285.744 82.6424C285.744 83.0257 285.667 83.3706 285.513 83.6389Z" fill="white"/>
<path d="M294.857 79.4609C295.242 79.4609 295.049 79.4609 295.088 79.4992C295.126 79.5376 295.242 79.6142 295.242 79.6909V81.8371H291.012V79.6909C291.012 79.6142 291.127 79.5376 291.166 79.4992C291.204 79.4609 291.396 79.4609 291.396 79.4609V79.1543H289.474V79.4609L289.512 79.4992C289.512 79.4992 289.474 79.6142 289.474 79.6909V85.5931C289.474 85.6697 289.551 85.7464 289.512 85.7847L289.474 85.823V86.053H291.396V85.823C291.396 85.823 291.204 85.823 291.166 85.7847C291.127 85.7464 291.012 85.6697 291.012 85.5931V83.3701H295.242V85.5931C295.242 85.6697 295.126 85.7464 295.088 85.7847C295.049 85.823 295.242 85.823 294.857 85.823V86.053H297.164V85.823C296.78 85.823 296.972 85.823 296.933 85.7847C296.895 85.7464 296.78 85.6697 296.78 85.5931V79.6909C296.78 79.6142 296.895 79.5376 296.933 79.4992C296.972 79.4609 296.78 79.4609 297.164 79.4609V79.1543H294.857V79.4609Z" fill="white"/>
<path d="M305.432 79.0771C305.355 79.1154 305.278 79.1538 305.201 79.1538H299.587C299.51 79.1538 299.433 79.1154 299.356 79.0771C299.279 79.0388 299.241 78.7705 299.241 78.7705H299.087V80.6868H299.202C299.202 80.6868 299.241 80.4569 299.318 80.4185C299.395 80.3802 299.471 80.3035 299.548 80.3035H301.779V85.5925C301.779 85.6692 301.663 85.7458 301.625 85.7842C301.586 85.8225 301.394 85.8225 301.394 85.8225V86.0524H303.317V85.8225V85.5925V80.3035H305.162C305.239 80.3035 305.316 80.3802 305.393 80.4185C305.47 80.4569 305.509 80.6868 305.509 80.6868H305.624V78.7705H305.509C305.509 78.7705 305.509 79.0388 305.432 79.0771Z" fill="white"/>
<path d="M314.083 79.9596C313.698 79.653 313.275 79.4614 312.737 79.3081C312.237 79.1548 311.699 79.0781 311.122 79.0781C310.545 79.0781 310.007 79.1548 309.507 79.3081C309.007 79.4614 308.546 79.6913 308.161 79.9596C307.777 80.2662 307.469 80.6112 307.277 81.0711C307.046 81.531 306.931 82.0292 306.931 82.6424C306.931 83.2557 307.046 83.7539 307.277 84.2138C307.507 84.6737 307.815 85.0186 308.161 85.3253C308.546 85.6319 308.969 85.8235 309.507 85.9768C310.007 86.0918 310.545 86.1684 311.122 86.1684C311.699 86.1684 312.237 86.0918 312.737 85.9768C313.237 85.8618 313.698 85.6319 314.083 85.3253C314.467 85.0186 314.775 84.6737 314.967 84.2138C315.198 83.7539 315.313 83.2557 315.313 82.6424C315.313 82.0292 315.198 81.531 314.967 81.0711C314.775 80.6112 314.467 80.2662 314.083 79.9596ZM313.583 83.6389C313.429 83.9455 313.237 84.1755 312.968 84.4054C312.699 84.5971 312.429 84.7504 312.122 84.8653C311.814 84.9803 311.468 85.0186 311.122 85.0186C310.776 85.0186 310.468 84.9803 310.122 84.8653C309.815 84.7504 309.507 84.5971 309.276 84.4054C309.007 84.2138 308.815 83.9455 308.661 83.6389C308.507 83.3323 308.43 83.0257 308.43 82.6424C308.43 82.2592 308.507 81.9142 308.661 81.646C308.815 81.3394 309.007 81.1094 309.276 80.9178C309.545 80.7261 309.815 80.5728 310.122 80.4579C310.43 80.3429 310.776 80.3046 311.122 80.3046C311.468 80.3046 311.776 80.3429 312.122 80.4579C312.429 80.5728 312.737 80.7261 312.968 80.9178C313.237 81.1094 313.429 81.3777 313.583 81.646C313.737 81.9526 313.814 82.2592 313.814 82.6424C313.814 83.0257 313.737 83.3706 313.583 83.6389Z" fill="white"/>
<path d="M323.542 79.6142C323.119 79.3076 322.466 79.1543 321.62 79.1543H317.159V79.4609C317.159 79.4609 317.544 79.5376 317.544 79.6909V85.5931C317.544 85.7464 317.159 85.823 317.159 85.823V86.053H319.082V85.823V85.5931V83.3701H321.62C322.466 83.3701 323.119 83.1402 323.542 82.8719C323.965 82.5653 324.196 82.0287 324.196 81.2622C324.158 80.4957 323.965 79.9208 323.542 79.6142ZM322.35 81.9904C322.158 82.1054 321.889 82.2204 321.581 82.2204H319.082V80.3041H321.581C321.889 80.3041 322.158 80.3807 322.35 80.534C322.543 80.649 322.658 80.9556 322.658 81.2622C322.658 81.6072 322.543 81.8754 322.35 81.9904Z" fill="white"/>
<path d="M332.886 85.5164L330.348 80.1508C330.31 80.0358 330.233 79.9208 330.195 79.8442C330.156 79.7675 330.118 79.6909 330.118 79.6142C330.118 79.5376 330.118 79.4992 330.156 79.4992C330.195 79.4992 330.233 79.4609 330.233 79.4609V79.1543H327.926V79.4609C327.926 79.4992 327.964 79.4992 328.003 79.4992C328.041 79.4992 328.041 79.5376 328.041 79.6142C328.041 79.6909 328.003 79.7675 327.964 79.8825C327.926 79.9591 327.887 80.0741 327.81 80.2274L325.465 85.3248C325.426 85.4014 325.311 85.5164 325.234 85.5931C325.157 85.708 325.234 85.7464 324.85 85.7847V86.0146H327.157V85.7847C327.157 85.7847 326.964 85.7847 326.888 85.7464C326.849 85.708 326.772 85.6697 326.772 85.5931C326.772 85.5547 326.772 85.4781 326.811 85.4014C326.849 85.3248 326.849 85.3248 326.926 85.2481L327.349 84.4816H330.733L331.156 85.2865C331.194 85.3631 331.233 85.4014 331.233 85.4398C331.271 85.4781 331.271 85.5164 331.271 85.5931C331.271 85.6697 331.233 85.708 331.156 85.7464C331.079 85.7847 330.964 85.7847 330.964 85.7847V85.9763H333.271V85.7464C333.271 85.708 333.117 85.708 333.04 85.6697C333.04 85.6697 332.963 85.6314 332.886 85.5164ZM327.849 83.3702L328.964 80.7257L330.233 83.3702H327.849Z" fill="white"/>
</g>
<defs>
<filter id="filter0_d" x="-7" y="-6" width="368" height="127" filterUnits="userSpaceOnUse" color-interpolation-filters="sRGB">
<feFlood flood-opacity="0" result="BackgroundImageFix"/>
<feColorMatrix in="SourceAlpha" type="matrix" values="0 0 0 0 0 0 0 0 0 0 0 0 0 0 0 0 0 0 127 0"/>
<feOffset/>
<feGaussianBlur stdDeviation="10"/>
<feColorMatrix type="matrix" values="0 0 0 0 0.215686 0 0 0 0 0.556863 0 0 0 0 0.741176 0 0 0 1 0"/>
<feBlend mode="normal" in2="BackgroundImageFix" result="effect1_dropShadow"/>
<feBlend mode="normal" in="SourceGraphic" in2="effect1_dropShadow" result="shape"/>
</filter>
</defs>
</svg>
