<svg width="404" height="123" viewBox="0 0 404 123" fill="none" xmlns="http://www.w3.org/2000/svg">
<g filter="url(#filter0_d)">
<path d="M378.783 24.4321H183.342L188.714 20H136.222L134.639 24.1134L133.058 20H74.5515L79.9296 24.4321H20L44.9825 45.0021V82.3536C44.9825 84.7275 45.301 87.0984 46.0897 89.3145C47.0391 92.165 48.6195 94.5359 50.8338 96.752C52.971 98.7373 55.5037 100.248 58.2655 101.184C60.953 102.134 63.9591 102.611 67.4383 102.611H336.562C340.041 102.611 343.047 102.134 345.734 101.184C348.738 100.076 351.267 98.6523 353.166 96.752C355.351 94.7143 356.983 92.1553 357.91 89.3145C358.699 87.0984 359.017 84.7275 359.017 82.3536V45.0021L384 24.4321H378.783ZM336.246 96.7489H67.2806C64.4323 96.7489 62.0632 96.4332 60.0036 95.6439C57.7893 94.8516 56.0512 93.9014 54.6285 92.4777C53.2059 91.0509 52.0987 89.4723 51.4678 87.572C50.9498 85.8797 50.683 84.1204 50.6761 82.3505V42.1546L36.286 30.285H96.3763L90.9982 25.8529H128.945L134.639 40.4152L140.332 25.8559H172.273L166.895 30.288H367.396L353.008 42.1546V82.3475C353.008 84.09 352.693 85.8325 352.217 87.5689C351.586 89.4723 350.479 91.0539 349.056 92.4777C347.486 93.8728 345.659 94.9483 343.678 95.6439C341.464 96.4332 339.092 96.7489 336.246 96.7489Z" fill="#FF002E"/>
<path d="M209.747 79.4994V88.2028H218.128C220.658 88.2028 222.872 85.9867 222.872 83.458V75.0672H214.652C212.119 74.9094 209.747 76.9646 209.747 79.4994ZM219.235 85.0396C219.235 85.0396 219.235 84.8817 219.235 85.0396C219.235 84.8817 219.235 85.0396 219.235 85.0396ZM101.748 44.0544C101.748 41.9962 101.117 40.2537 99.8521 38.833L99.2181 38.1955C98.5872 37.7219 97.9532 37.2483 97.0038 36.9326C95.5842 36.2981 93.8431 36.1433 91.6287 36.1433H56.0508L61.4289 40.5724V79.3415C61.4289 80.4496 61.5866 81.5576 61.9021 82.6656C62.2175 83.4549 62.536 84.0924 63.0092 84.7238C63.167 84.8817 63.3247 85.1974 63.6402 85.3553C63.9587 85.671 64.2772 85.9897 64.5896 86.1446C65.2236 86.6212 66.0153 86.9369 66.8039 87.2556C67.1194 87.4135 67.4379 87.4135 67.9111 87.5714C68.542 87.7292 69.176 87.7292 69.81 87.8871C70.4409 87.8871 71.2326 88.0449 72.0243 88.0449H105.861L101.909 84.7238V44.0544H101.751H101.748ZM85.465 77.2833H77.8756C77.4024 77.2833 77.0869 77.2833 76.9262 77.1224C76.9262 77.1224 76.7684 77.1224 76.7684 76.9646C76.6107 76.8067 76.453 76.491 76.453 76.0144V47.5333C76.6107 46.9019 76.9262 46.5862 77.7179 46.5862H85.465C86.2537 46.5862 86.7299 46.9019 86.7299 47.5333V76.0174C86.7299 76.494 86.5722 76.8097 86.4144 76.9676L86.2567 77.1255C86.2567 77.2864 85.9412 77.2864 85.468 77.2864L85.465 77.2833ZM176.383 36.1403C175.594 36.1403 174.645 36.1403 174.011 36.2981C173.222 36.456 172.588 36.456 171.954 36.7747C171.324 36.9326 170.693 37.2483 170.216 37.4062L168.794 38.3564C168.005 38.9878 167.368 39.938 167.056 40.8881C166.579 41.8383 166.422 42.9464 166.422 44.0544V84.566L162.311 87.8871H196.779C197.571 87.8871 198.205 87.7292 198.836 87.7292C199.154 87.7292 199.628 87.5714 199.943 87.5714C200.262 87.4135 200.735 87.4135 201.05 87.2556C201.684 86.9369 202.315 86.779 202.949 86.4633C203.265 86.3055 203.422 86.1476 203.738 85.9897C204.021 85.8652 204.247 85.6388 204.372 85.3553C205.16 84.566 205.797 83.6158 206.11 82.6656C206.268 82.3499 206.268 82.189 206.268 81.8763C206.428 81.084 206.586 80.2917 206.586 79.3415V57.1869H186.505L189.032 66.8405H191.562V76.6519C191.562 76.8097 191.404 76.9676 191.404 76.9676C191.246 77.1255 191.246 77.1255 190.931 77.1255H181.761C181.6 77.1255 181.443 76.9676 181.285 76.9676C181.127 76.8097 180.97 76.494 180.97 76.0174V47.8521C180.97 47.0597 181.443 46.744 182.234 46.744H189.982C190.458 46.744 190.931 46.9019 191.089 47.2176C191.246 47.3755 191.246 47.6942 191.246 48.0069V50.6996H206.11V40.5724L211.488 36.1403H176.383ZM142.07 36.9326L134.165 57.5056L126.1 36.9326H105.546L110.605 41.046V88.0449H124.835V62.7271L134.165 82.1921L143.493 62.7271V88.0449H157.725V41.046L162.785 36.9326H142.07ZM282.171 68.4221H293.87V57.029H282.168V48.4835H296.4L294.186 36.1403H268.569V88.0449H300.983L303.355 75.7017H282.171V68.4221ZM261.137 64.6244C260.951 63.9349 260.628 63.2897 260.188 62.7271C260.03 62.5692 260.03 62.4083 259.873 62.2505C259.715 61.9347 259.399 61.7769 259.084 61.619C258.599 61.3134 258.062 61.0985 257.501 60.9846C257.185 60.8267 256.712 60.8267 256.236 60.8267C257.977 60.3531 259.239 59.5608 259.873 58.2949C260.188 57.8214 260.346 57.3447 260.507 56.7133C260.664 56.0788 260.822 55.6053 260.822 54.9708V44.0513C260.822 42.154 260.504 40.7303 259.715 39.4644C259.399 38.9878 259.242 38.6751 258.926 38.1985L258.45 37.7219C257.185 36.6139 255.447 35.9824 253.075 35.9824H221.134L226.509 40.5724V82.9813C226.509 85.0396 227.774 86.779 229.512 87.4135C230.146 87.7292 230.777 87.7292 231.411 87.7292H251.334C252.759 87.7292 254.021 87.5714 255.128 87.4135C255.917 87.2556 256.554 87.0947 257.185 86.779C257.658 86.6212 257.974 86.3055 258.45 86.1476C258.765 85.8289 259.081 85.671 259.399 85.3553C259.873 84.8817 260.346 84.2472 260.664 83.6158C261.453 82.0312 261.768 80.1339 261.768 77.6021V65.4167C261.295 65.2589 261.295 64.9401 261.137 64.6274V64.6244ZM246.908 76.3362H239.476V66.8405H246.271C246.59 66.8405 246.908 66.8405 247.066 66.9983C247.381 66.9983 247.539 67.1562 247.697 67.314C247.855 67.4749 248.012 67.6328 248.173 67.9485C248.331 68.2642 248.331 68.5799 248.331 68.8987V75.2281C248.331 75.7017 248.173 76.0174 248.012 76.3362C247.855 76.494 247.855 76.494 247.539 76.6519C247.381 76.3362 247.224 76.3362 246.905 76.3362H246.908ZM246.908 47.6912C247.224 47.6912 247.381 47.6912 247.697 47.8521C248.012 48.0099 248.173 48.4835 248.173 48.9571V54.4972C248.173 55.1287 248.012 55.924 247.697 56.2367C247.381 56.5555 247.066 56.7133 246.432 56.7133H239.473V47.6912H246.905H246.908ZM300.826 36.1403L303.04 48.4835H315.689V88.0449H324.389C325.019 88.0449 325.653 87.8871 326.284 87.7292C326.6 87.5714 326.918 87.4135 327.076 87.2556C327.376 87.0944 327.643 86.8793 327.865 86.6212C328.814 85.671 329.29 84.563 329.29 83.1392V48.4835H340.832L344.942 36.1403H300.826Z" fill="white"/>
</g>
<defs>
<filter id="filter0_d" x="0" y="0" width="404" height="125" filterUnits="userSpaceOnUse" color-interpolation-filters="sRGB">
<feFlood flood-opacity="0" result="BackgroundImageFix"/>
<feColorMatrix in="SourceAlpha" type="matrix" values="0 0 0 0 0 0 0 0 0 0 0 0 0 0 0 0 0 0 127 0"/>
<feOffset/>
<feGaussianBlur stdDeviation="10"/>
<feColorMatrix type="matrix" values="0 0 0 0 0.215686 0 0 0 0 0.556863 0 0 0 0 0.741176 0 0 0 1 0"/>
<feBlend mode="normal" in2="BackgroundImageFix" result="effect1_dropShadow"/>
<feBlend mode="normal" in="SourceGraphic" in2="effect1_dropShadow" result="shape"/>
</filter>
</defs>
</svg>
