<svg width="164" height="195" viewBox="0 0 164 195" fill="none" xmlns="http://www.w3.org/2000/svg">
<g filter="url(#filter0_d)">
<path d="M138.758 20.9727H25.8006C23.1272 20.9727 20.96 23.1054 20.96 25.7364V169.254C20.96 171.885 23.1272 174.018 25.8006 174.018H138.758C141.432 174.018 143.599 171.885 143.599 169.254V25.7364C143.599 23.1054 141.432 20.9727 138.758 20.9727Z" fill="white"/>
<path fill-rule="evenodd" clip-rule="evenodd" d="M136.31 24.0293H28.2756C25.9378 24.0293 24.04 26.7003 24.04 30.0046V164.848C24.04 168.153 25.9378 170.851 28.2756 170.851H136.31C138.62 170.851 140.546 168.153 140.546 164.848V30.0046C140.546 26.7003 138.62 24.0293 136.31 24.0293Z" fill="url(#paint0_linear)"/>
<path d="M115.435 110.932C115.435 110.905 114.114 110.024 115.077 107.545C115.215 107.215 114.995 106.829 114.94 106.444C112.629 90.1152 100.885 36.9157 48.7107 78.55C48.5182 78.7153 48.1332 78.7703 47.6106 78.7979L47.1705 78.8254L46.813 79.0457L46.7305 78.9906L46.3454 79.2109L45.8228 78.495L45.6303 78.6051L45.5753 78.6327L45.2453 78.8254L44.8327 78.5776L44.3927 78.6602L44.0901 78.9356L43.3475 78.5225L43.045 78.8254L41.9723 79.2384C41.9723 79.2384 41.9723 79.2384 41.9448 79.266L41.8073 79.6239L41.0372 79.7341L40.8722 80.1196L40.5421 80.3674L40.3496 80.6979L39.5795 80.808L39.4145 81.1384L39.332 81.1935L38.8644 81.3863L38.8369 81.3036L39.2495 80.3399C39.2495 80.3123 39.277 80.2848 39.3045 80.2848L39.9921 79.6515C42.2749 77.6689 44.4477 75.824 46.593 74.1443L46.813 73.9515L47.0055 73.6211L47.7206 73.4284L47.8856 73.0979H47.9131C107.734 26.5346 116.232 94.218 117.195 107.711C117.305 109.087 124.566 108.647 124.566 108.674L124.731 109.886L115.435 110.932Z" fill="#FEFEFE"/>
<path d="M63.398 55.0894C83.6957 78.6877 110.622 78.6877 118.873 40.9084C119.258 39.091 117.773 36.6403 118.13 34.5751L119.313 33.8867C118.983 35.9244 123.026 40.7707 122.641 42.6156C122.586 42.8634 120.826 43.0562 120.771 43.3316C106.689 107.628 62.7654 55.7778 62.6279 55.6126L63.398 55.0894Z" fill="#FEFEFE"/>
<path fill-rule="evenodd" clip-rule="evenodd" d="M55.0647 51.537C59.6578 51.6747 62.9583 58.421 63.4258 58.9992C63.8934 59.605 60.0429 64.0934 55.1747 66.0209C50.3341 67.9484 46.8411 62.5514 46.8136 58.5587C46.7861 54.5659 50.4716 51.4268 55.0647 51.537Z" fill="#FEFEFE"/>
<path d="M110.127 30.6934C112.08 30.9688 113.73 31.9876 114.83 33.4195C115.903 34.8238 116.453 36.6137 116.233 38.4861V38.5137V38.6513L116.206 38.6789C115.958 40.6064 114.94 42.2585 113.51 43.36C112.108 44.4339 110.32 44.9846 108.45 44.7919H108.422L108.285 44.7643H108.257C106.332 44.489 104.682 43.4701 103.581 42.0383C102.509 40.6615 101.959 38.8441 102.151 36.9716L102.179 36.8064C102.426 34.8514 103.444 33.1992 104.902 32.0978C106.277 31.0239 108.092 30.4732 109.962 30.6659V30.6934H110.127ZM109.907 32.4833V32.5108L109.77 32.4833C108.367 32.3181 107.019 32.7311 106.002 33.5296C104.929 34.3557 104.159 35.5948 103.966 37.0267V37.1644C103.801 38.5687 104.214 39.918 105.012 40.9368C105.837 42.0107 107.074 42.7817 108.505 42.9745H108.642C110.045 43.1397 111.365 42.7267 112.41 41.9281C113.483 41.102 114.225 39.8629 114.418 38.431L114.445 38.2934C114.583 36.889 114.17 35.5673 113.4 34.5209C112.575 33.447 111.337 32.676 109.907 32.4833Z" fill="#FEFEFE"/>
<path d="M86.6932 95.1542C89.5536 96.9165 92.2489 98.8715 94.7243 100.909C95.0268 100.386 95.3293 99.8628 95.5769 99.3121C97.0071 96.2006 97.4196 93.0339 96.8145 90.06C94.5867 89.4267 91.9189 88.9586 88.866 88.9035C88.8935 89.0137 88.8935 89.1513 88.8935 89.289C88.8935 90.4731 88.6184 91.7122 88.0409 92.9238C87.6833 93.6948 87.2433 94.4383 86.6932 95.1542ZM80.2298 132.107H80.3948C83.8328 132.107 87.1057 131.419 90.1311 130.207C88.8385 127.729 87.6283 125.361 86.5007 123.076C86.4732 123.076 86.4732 123.076 86.4457 123.076C80.3398 125.334 73.794 125.389 67.7707 123.268C67.9357 125.416 68.2382 127.509 68.7058 129.519C72.1987 131.171 76.1043 132.107 80.2298 132.107ZM53.4688 105.287V105.343C53.4688 106.637 53.5513 107.876 53.7438 109.115C53.8813 109.418 54.0188 109.748 54.1838 110.051C54.5689 108.674 55.1465 107.132 55.9166 105.48C55.5315 104.792 55.174 104.048 54.8989 103.277C54.4589 102.121 54.1838 100.882 54.0738 99.6701C53.6888 101.46 53.4688 103.36 53.4688 105.287ZM68.7058 101.845C67.7982 101.653 66.918 101.405 66.1204 101.019C64.7178 100.358 63.5901 99.4498 62.7925 98.3484C60.3722 100.634 58.6669 103.057 57.4843 105.343C58.9695 107.711 61.2248 109.611 64.0577 110.932C64.9103 111.318 65.7904 111.648 66.698 111.896C67.1381 108.371 67.8532 104.957 68.7058 101.845ZM93.9542 102.148C91.4513 100.028 88.701 98.0179 85.7581 96.2556C83.9153 98.2382 81.4125 99.8628 78.5521 100.937C78.5246 100.937 78.4971 100.964 78.4696 100.964C79.5697 103.966 80.8899 107.298 82.4851 110.96C87.3258 109.087 91.3413 105.976 93.9542 102.148ZM81.1099 111.455C79.5422 107.793 78.1945 104.434 77.0944 101.405C74.7016 102.093 72.3088 102.314 70.1085 102.066C69.2008 105.205 68.4858 108.674 68.0732 112.282C72.1712 113.19 76.7094 112.915 81.1099 111.455ZM63.9752 90.418C63.8376 90.6658 63.7001 90.9137 63.5626 91.189C62.765 92.9238 62.655 94.631 63.1775 96.1455C65.6254 94.0803 68.6783 92.1803 72.4738 90.6383C69.3109 90.005 66.423 90.06 63.9752 90.418ZM66.7255 99.7252C67.4681 100.083 68.2657 100.331 69.1183 100.496C70.136 97.1919 71.3461 94.3006 72.6113 92.1252C69.0083 93.6122 66.1479 95.4296 63.8376 97.4121C64.4977 98.3484 65.4879 99.1469 66.7255 99.7252ZM65.3228 122.277C61.0598 120.322 57.4843 117.376 54.8164 113.713V113.741C56.9342 120.102 61.3348 125.416 67.0831 128.665C66.698 126.738 66.4505 124.755 66.313 122.718C65.9829 122.58 65.6529 122.442 65.3228 122.277ZM87.8208 122.525C88.9485 124.81 90.1586 127.179 91.4513 129.657C97.8872 126.683 102.975 121.176 105.396 114.429C104.296 112.86 103.03 111.235 101.573 109.583C98.6573 115.421 93.8441 119.964 87.8208 122.525ZM104.158 93.3368C104.158 93.3093 104.158 93.3093 104.158 93.3093C104.378 94.6861 104.488 96.0629 104.488 97.4397C104.488 101.102 103.718 104.737 102.233 108.179C103.608 109.721 104.846 111.263 105.946 112.75C106.633 110.382 106.991 107.903 106.991 105.315C106.991 100.992 105.973 96.944 104.158 93.3368ZM98.5198 92.676C98.5198 95.0716 97.9422 97.5223 96.8695 99.8904C96.567 100.579 96.2095 101.212 95.8244 101.845C97.7772 103.553 99.5649 105.287 101.188 107.022C103.085 102.314 103.553 97.2469 102.535 92.3731C101.463 91.7673 100.032 91.1064 98.3547 90.5281C98.4373 91.2441 98.5198 91.96 98.5198 92.676ZM71.7862 82.5978C71.8137 82.5702 71.8412 82.5702 71.8962 82.5427C71.7312 81.5239 71.6487 80.6427 71.5937 79.9543C65.9829 81.8819 61.1973 85.5992 57.9518 90.4455C59.162 90.005 60.9222 89.4267 63.15 89.0687C64.9653 86.3151 68.0732 83.947 71.7862 82.5978ZM100.555 108.454C98.9048 106.637 97.0621 104.819 95.0543 103.057C92.2764 107.05 88.0684 110.327 83.0352 112.282C84.2729 115.09 85.648 118.064 87.1883 121.258C93.1015 118.753 97.8047 114.237 100.555 108.454ZM84.2179 82.4876C86.3081 83.4789 87.7658 84.9659 88.4534 86.8659C88.5359 87.0311 88.5909 87.2238 88.6459 87.4166C91.5888 87.4441 94.1467 87.8296 96.3745 88.4079C96.347 88.2702 96.3195 88.1325 96.2645 88.0224C94.9443 84.3876 92.1389 81.634 88.5634 79.9543C87.5733 80.2848 85.9231 80.9732 83.8603 82.3775C83.9703 82.405 84.1078 82.4601 84.2179 82.4876ZM98.0247 88.8485C99.5924 89.3441 100.94 89.8948 102.068 90.4731C101.958 90.0876 101.848 89.7296 101.738 89.3441C99.8124 86.7833 97.4471 84.5528 94.7518 82.8181C95.9619 84.1949 96.9521 85.7644 97.6121 87.5267C97.7497 87.9673 97.8872 88.4079 98.0247 88.8485ZM56.7142 103.966C57.9794 101.708 59.7121 99.3397 62.0774 97.1368C61.9949 96.9716 61.9399 96.8339 61.8574 96.6687C61.1973 94.8238 61.3073 92.7586 62.2424 90.7209C59.0245 91.3818 57.0167 92.4281 56.9617 92.4281L56.8517 92.2629C56.6042 92.731 56.3291 93.2267 56.0816 93.7223C55.1465 96.8339 55.174 99.9179 56.2191 102.782C56.3841 103.195 56.5492 103.58 56.7142 103.966ZM65.1028 88.8209C67.4956 88.6006 70.301 88.6832 73.2989 89.3716C72.7488 87.2514 72.3913 85.4891 72.1162 83.9746C69.2284 85.076 66.753 86.8108 65.1028 88.8209ZM63.4801 112.226C60.6472 110.932 58.3919 109.087 56.7692 106.829C55.9716 108.647 55.4765 110.327 55.174 111.703C57.7593 115.724 61.4448 118.945 65.9004 120.983C66.0104 121.038 66.1479 121.093 66.258 121.148C66.1754 118.56 66.2855 115.916 66.533 113.355C65.4879 113.053 64.4427 112.667 63.4801 112.226ZM73.5189 83.5065C73.794 85.0485 74.179 86.8934 74.7291 89.0687C76.8194 86.4528 78.8546 84.4702 80.6974 82.9558C78.4696 82.5978 75.9943 82.7905 73.5189 83.5065ZM85.8681 121.781C84.3279 118.587 82.9252 115.586 81.6875 112.777C77.0669 114.319 72.2538 114.622 67.9082 113.686C67.6606 116.357 67.5506 119.055 67.6881 121.726C73.5189 123.929 79.8998 123.957 85.8681 121.781ZM82.1551 81.7992C83.8053 80.5877 85.263 79.7891 86.4181 79.2659C84.4379 78.7703 82.3751 78.5225 80.2298 78.5225C77.727 78.5225 75.3067 78.8804 72.9964 79.5138C73.0514 80.1746 73.1339 81.0282 73.2989 82.1021C76.3793 81.221 79.4872 81.1384 82.1551 81.7992ZM87.1332 87.334C86.5832 85.8195 85.3455 84.6079 83.6128 83.7818C83.2552 83.6166 82.8702 83.4789 82.4851 83.3688C80.6424 84.7456 78.5796 86.6731 76.4068 89.2615C80.3673 88.0774 83.9428 87.5543 87.1607 87.4441C87.1607 87.4166 87.1332 87.3615 87.1332 87.334ZM85.4555 94.4383C85.9781 93.7499 86.4181 93.0615 86.7482 92.3455C87.2983 91.1615 87.5183 90.005 87.4633 88.9035C84.3829 88.9586 80.9174 89.4542 77.1219 90.5281C80.0373 91.602 82.8152 92.9238 85.4555 94.4383ZM76.5993 100.083C75.5817 97.1919 74.7566 94.631 74.0965 92.3731C72.8038 94.4658 71.5662 97.3295 70.521 100.689C72.4188 100.882 74.5366 100.661 76.5993 100.083ZM78.002 99.615C78.0295 99.615 78.0295 99.615 78.057 99.615C80.6149 98.6513 82.8427 97.2194 84.4929 95.5122C81.6325 93.8875 78.5796 92.4832 75.3617 91.4093C76.0493 93.8049 76.9019 96.531 78.002 99.615Z" fill="#FEFEFE"/>
<path d="M49.1243 141.415V139.487H59.6582L51.3246 157.496H59.2456V159.451H48.2441L56.6328 141.415H49.1243ZM63.2611 139.487H74.6752V141.442H65.2414V147.693H74.5927V149.648H65.2414V157.468H74.5927V159.451H63.2611V139.487ZM78.1406 159.451V139.487H78.5807L91.8375 154.77V139.487H93.7902V159.451H93.3502L80.2034 144.361V159.451H78.1406ZM98.3833 139.487H100.364V159.451H98.3833V139.487ZM102.949 141.415V139.487H113.895V141.415H109.44V159.451H107.405V141.415H102.949Z" fill="#FEFEFE"/>
</g>
<defs>
<filter id="filter0_d" x="-3" y="-4" width="171" height="205" filterUnits="userSpaceOnUse" color-interpolation-filters="sRGB">
<feFlood flood-opacity="0" result="BackgroundImageFix"/>
<feColorMatrix in="SourceAlpha" type="matrix" values="0 0 0 0 0 0 0 0 0 0 0 0 0 0 0 0 0 0 127 0"/>
<feOffset/>
<feGaussianBlur stdDeviation="10"/>
<feColorMatrix type="matrix" values="0 0 0 0 0.215686 0 0 0 0 0.556863 0 0 0 0 0.741176 0 0 0 1 0"/>
<feBlend mode="normal" in2="BackgroundImageFix" result="effect1_dropShadow"/>
<feBlend mode="normal" in="SourceGraphic" in2="effect1_dropShadow" result="shape"/>
</filter>
<linearGradient id="paint0_linear" x1="82.2903" y1="24.0177" x2="82.2903" y2="170.845" gradientUnits="userSpaceOnUse">
<stop stop-color="#0089E3"/>
<stop offset="1" stop-color="#006196"/>
</linearGradient>
</defs>
</svg>
