<svg width="100" height="110" viewBox="0 0 100 110" fill="none" xmlns="http://www.w3.org/2000/svg">
<g filter="url(#filter0_d)">
<path d="M39.6044 53.0833C39.9096 53.5718 82.234 12.0255 82.234 12.0255C82.234 12.0255 86.9691 11.6644 88.9781 13.6607C90.9871 15.657 91.3492 18.0213 90.98 19.1115C90.618 20.2017 70.2083 41.2757 70.2083 41.2757C70.2083 41.2757 70.2296 42.0048 70.9466 41.7853C73.3247 41.0491 77.6977 39.3219 80.0475 42.5499C81.9075 45.0983 81.2401 48.2626 76.9523 51.8162C75.5822 52.9488 79.7848 50.7615 82.4754 50.1597C83.3699 49.9615 84.1366 50.5349 84.4276 50.6694C85.2795 51.0588 90.2559 55.0867 84.243 61.0826C84.243 61.0826 84.3353 61.748 85.7693 61.6489C87.608 61.5285 90.9729 60.8348 91.8958 63.0788C93.5357 67.0784 93.5357 68.7137 90.618 71.9841C87.7003 75.2546 63.2938 97.7798 63.2938 97.7798C63.2938 97.7798 53.8237 101.411 47.2642 96.1446C40.7047 90.8778 27.5857 76.7058 27.5857 76.7058L20.4725 52.5383C20.4725 52.5383 10.5551 43.0171 7.38896 39.5838C6.71456 38.8547 7.01272 37.9415 7.55934 37.4106C9.07853 35.9311 11.5419 33.2835 11.5419 33.2835C11.5419 33.2835 17.1927 30.7422 22.8364 34.3737C28.4802 38.0052 29.0339 36.193 39.6044 53.0833Z" stroke="#378EBD" stroke-width="5" stroke-miterlimit="10"/>
<path d="M31.4291 20.3851L21.6149 10.5709C20.795 9.75113 20.795 8.43468 21.6149 7.61486C22.4347 6.79505 23.7511 6.79505 24.5709 7.61486L34.3851 17.4291C35.205 18.2489 35.205 19.5653 34.3851 20.3851C33.5732 21.205 32.2489 21.205 31.4291 20.3851Z" fill="#378EBD"/>
<path d="M42 14.1493V1.85072C42 0.831078 42.6736 0 43.5 0C44.3264 0 45 0.831078 45 1.85072V14.1493C45 15.1689 44.3264 16 43.5 16C42.6736 16 42 15.1689 42 14.1493Z" fill="#378EBD"/>
<path d="M52.5657 16.4291L61.6827 6.61486C62.4443 5.79505 63.6672 5.79505 64.4288 6.61486C65.1904 7.43468 65.1904 8.75113 64.4288 9.57095L55.3118 19.3851C54.5502 20.205 53.3273 20.205 52.5657 19.3851C51.8114 18.5653 51.8114 17.241 52.5657 16.4291Z" fill="#378EBD"/>
</g>
<defs>
<filter id="filter0_d" x="0.5" y="0" width="98.9993" height="109.5" filterUnits="userSpaceOnUse" color-interpolation-filters="sRGB">
<feFlood flood-opacity="0" result="BackgroundImageFix"/>
<feColorMatrix in="SourceAlpha" type="matrix" values="0 0 0 0 0 0 0 0 0 0 0 0 0 0 0 0 0 0 127 0"/>
<feOffset dy="4"/>
<feGaussianBlur stdDeviation="2"/>
<feColorMatrix type="matrix" values="0 0 0 0 0 0 0 0 0 0 0 0 0 0 0 0 0 0 0.25 0"/>
<feBlend mode="normal" in2="BackgroundImageFix" result="effect1_dropShadow"/>
<feBlend mode="normal" in="SourceGraphic" in2="effect1_dropShadow" result="shape"/>
</filter>
</defs>
</svg>
