<svg width="88" height="100" viewBox="0 0 88 100" fill="none" xmlns="http://www.w3.org/2000/svg">
<g clip-path="url(#clip0)">
<g filter="url(#filter0_d)">
<path d="M56.4004 1.5H8.90039V98.3H78.7004V26.9H56.4004V1.5Z" stroke="#378EBD" stroke-width="3" stroke-miterlimit="10"/>
</g>
<g filter="url(#filter1_d)">
<path d="M80.3 75.5004H6.9C3.1 75.5004 0 72.4004 0 68.6004V42.3004C0 38.5004 3.1 35.4004 6.9 35.4004H80.3C84.1 35.4004 87.2 38.5004 87.2 42.3004V68.6004C87.2 72.4004 84.1 75.5004 80.3 75.5004Z" fill="#378EBD"/>
</g>
<g filter="url(#filter2_d)">
<path d="M80.1996 25.4L57.8996 0L57.7996 0.1L57.0996 0.5V26.4L80.1996 25.4Z" fill="#378EBD"/>
</g>
<path d="M7.40039 67.1008V40.8008H15.5004V59.3008H23.6004V67.1008H7.40039Z" fill="#0E202B"/>
<path d="M25.6006 53.9004C25.6006 44.3004 30.2006 40.4004 38.4006 40.4004C46.7006 40.4004 51.2006 44.4004 51.2006 53.9004C51.2006 63.4004 46.7006 67.4004 38.4006 67.4004C30.2006 67.5004 25.6006 63.5004 25.6006 53.9004ZM43.1006 53.9004C43.1006 48.9004 41.4006 48.5004 38.4006 48.5004C35.4006 48.5004 33.7006 49.0004 33.7006 53.9004C33.7006 58.8004 35.4006 59.3004 38.4006 59.3004C41.4006 59.4004 43.1006 58.9004 43.1006 53.9004Z" fill="#0E202B"/>
<path d="M77.2002 65.1C75.9002 65.9 71.9002 67.5 67.7002 67.5C58.7002 67.5 54.2002 63.5 54.2002 54C54.2002 44.5 58.7002 40.5 68.0002 40.5C72.1002 40.5 75.4002 42.2 76.5002 42.9L73.7002 49.8C71.8002 48.9 69.0002 48.5 67.7002 48.5C64.7002 48.5 62.3002 49 62.3002 53.9C62.3002 58.8 64.7002 59.3 67.7002 59.3V59.4C68.2002 59.4 69.0002 59.4 69.8002 59.3V57.2H67.7002V50.9H77.2002V65.1Z" fill="#0E202B"/>
</g>
<defs>
<filter id="filter0_d" x="3.40039" y="0" width="80.8" height="107.8" filterUnits="userSpaceOnUse" color-interpolation-filters="sRGB">
<feFlood flood-opacity="0" result="BackgroundImageFix"/>
<feColorMatrix in="SourceAlpha" type="matrix" values="0 0 0 0 0 0 0 0 0 0 0 0 0 0 0 0 0 0 127 0"/>
<feOffset dy="4"/>
<feGaussianBlur stdDeviation="2"/>
<feColorMatrix type="matrix" values="0 0 0 0 0 0 0 0 0 0 0 0 0 0 0 0 0 0 0.25 0"/>
<feBlend mode="normal" in2="BackgroundImageFix" result="effect1_dropShadow"/>
<feBlend mode="normal" in="SourceGraphic" in2="effect1_dropShadow" result="shape"/>
</filter>
<filter id="filter1_d" x="-4" y="35.4004" width="95.2" height="48.1" filterUnits="userSpaceOnUse" color-interpolation-filters="sRGB">
<feFlood flood-opacity="0" result="BackgroundImageFix"/>
<feColorMatrix in="SourceAlpha" type="matrix" values="0 0 0 0 0 0 0 0 0 0 0 0 0 0 0 0 0 0 127 0"/>
<feOffset dy="4"/>
<feGaussianBlur stdDeviation="2"/>
<feColorMatrix type="matrix" values="0 0 0 0 0 0 0 0 0 0 0 0 0 0 0 0 0 0 0.25 0"/>
<feBlend mode="normal" in2="BackgroundImageFix" result="effect1_dropShadow"/>
<feBlend mode="normal" in="SourceGraphic" in2="effect1_dropShadow" result="shape"/>
</filter>
<filter id="filter2_d" x="53.0996" y="0" width="31.1" height="34.4" filterUnits="userSpaceOnUse" color-interpolation-filters="sRGB">
<feFlood flood-opacity="0" result="BackgroundImageFix"/>
<feColorMatrix in="SourceAlpha" type="matrix" values="0 0 0 0 0 0 0 0 0 0 0 0 0 0 0 0 0 0 127 0"/>
<feOffset dy="4"/>
<feGaussianBlur stdDeviation="2"/>
<feColorMatrix type="matrix" values="0 0 0 0 0 0 0 0 0 0 0 0 0 0 0 0 0 0 0.25 0"/>
<feBlend mode="normal" in2="BackgroundImageFix" result="effect1_dropShadow"/>
<feBlend mode="normal" in="SourceGraphic" in2="effect1_dropShadow" result="shape"/>
</filter>
<clipPath id="clip0">
<rect width="87.2" height="99.8" fill="white"/>
</clipPath>
</defs>
</svg>
