<svg width="105" height="88" viewBox="0 0 105 88" fill="none" xmlns="http://www.w3.org/2000/svg">
<g filter="url(#filter0_d)">
<path d="M82.129 0H22.9207C12.4869 0 4 8.47352 4 18.891V61.109C4 71.5265 12.4869 80 22.9207 80H82.0791C92.5129 80 101 71.5265 101 61.109V18.891C101.05 8.47352 92.5628 0 82.129 0ZM86.4224 5.73209C88.2695 5.73209 89.7672 7.22742 89.7672 9.07165C89.7672 10.9159 88.2695 12.4112 86.4224 12.4112C84.5752 12.4112 83.0775 10.9159 83.0775 9.07165C83.0775 7.22742 84.5752 5.73209 86.4224 5.73209ZM76.7873 5.73209C78.6344 5.73209 80.1321 7.22742 80.1321 9.07165C80.1321 10.9159 78.6344 12.4112 76.7873 12.4112C74.9401 12.4112 73.4425 10.9159 73.4425 9.07165C73.4425 7.22742 74.9401 5.73209 76.7873 5.73209ZM94.9591 63.4019C94.9591 69.433 90.0667 74.3676 83.9761 74.3676H21.0736C15.0329 74.3676 10.0906 69.4829 10.0906 63.4019V18.4424H94.9092V63.4019H94.9591Z" fill="#378EBD"/>
<path d="M23.0944 40.5733C22.1474 40.5733 21.2502 40.8225 20.5025 41.2711C19.705 41.7197 19.1069 42.3677 18.6583 43.1154H18.6085V34.3428H16.0664V54.8786H18.6085V46.4051C18.6085 45.9565 18.6583 45.5577 18.758 45.2088C19.2564 43.863 20.5025 42.7166 22.1474 42.7166C24.5399 42.7166 25.3873 44.6107 25.3873 46.8537V54.8786H27.9293V46.5546C27.9792 41.7197 24.9885 40.5733 23.0944 40.5733Z" fill="#378EBD"/>
<path d="M35.0574 37.5332L32.5652 38.2809V40.8728H30.3721V42.8167H32.5652V50.4429C32.5652 52.0877 32.8643 53.3338 33.5621 54.1313C34.1602 54.7793 35.1073 55.1781 36.3035 55.1781C37.3004 55.1781 38.0481 55.0285 38.5465 54.8292L38.4468 52.8852C38.0481 52.9849 37.6493 53.0348 36.9515 53.0348C35.5559 53.0348 35.0574 52.0379 35.0574 50.2933V42.8167H38.6961V40.8728H35.0574V37.5332Z" fill="#378EBD"/>
<path d="M44.6277 37.5332L42.1355 38.2809V40.8728H39.9424V42.8167H42.1355V50.4429C42.1355 52.0877 42.4346 53.3338 43.1324 54.1313C43.7305 54.7793 44.6776 55.1781 45.8738 55.1781C46.8707 55.1781 47.6184 55.0285 48.1168 54.8292L48.0172 52.8852C47.6184 52.9849 47.2196 53.0348 46.5218 53.0348C45.1262 53.0348 44.6277 52.0379 44.6277 50.2933V42.8167H48.2664V40.8728H44.6277V37.5332Z" fill="#378EBD"/>
<path d="M58.4346 40.5732C56.1417 40.5732 54.4969 41.5701 53.4501 43.2648H53.4003L53.3006 40.8723H51.0576C51.1075 42.2181 51.1573 43.6636 51.1573 45.458V60.6106H53.6495V52.9845H53.6994C54.5467 54.3801 56.1417 55.1776 57.986 55.1776C61.2757 55.1776 64.366 52.6854 64.366 47.6511C64.4159 43.4642 61.8738 40.5732 58.4346 40.5732ZM57.5872 53.1838C55.743 53.1838 54.2476 51.9876 53.7492 50.1932C53.6495 49.8941 53.6495 49.5452 53.6495 49.1465V46.7041C53.6495 46.405 53.7492 46.0063 53.7991 45.7072C54.2476 43.8131 55.8925 42.567 57.6371 42.567C60.3286 42.567 61.824 44.9595 61.824 47.7508C61.824 50.9907 60.2788 53.1838 57.5872 53.1838Z" fill="#378EBD"/>
<path d="M68.7015 51.5889C67.7047 51.5889 67.0068 52.3365 67.0068 53.4331C67.0068 54.43 67.7047 55.2275 68.7015 55.2275C69.7483 55.2275 70.4461 54.43 70.4461 53.4331C70.3962 52.3365 69.7483 51.5889 68.7015 51.5889Z" fill="#378EBD"/>
<path d="M68.7015 41.3711C67.7047 41.3711 67.0068 42.1188 67.0068 43.2153C67.0068 44.2122 67.7047 45.0097 68.7015 45.0097C69.7483 45.0097 70.4461 44.2122 70.4461 43.2153C70.3962 42.1188 69.7483 41.3711 68.7015 41.3711Z" fill="#378EBD"/>
<path d="M71.4434 55.9756H73.3873L81.4621 35.041H79.4683L71.4434 55.9756Z" fill="#378EBD"/>
<path d="M81.3623 55.9756H83.3062L91.381 35.041H89.3872L81.3623 55.9756Z" fill="#378EBD"/>
</g>
<defs>
<filter id="filter0_d" x="0" y="0" width="105" height="88" filterUnits="userSpaceOnUse" color-interpolation-filters="sRGB">
<feFlood flood-opacity="0" result="BackgroundImageFix"/>
<feColorMatrix in="SourceAlpha" type="matrix" values="0 0 0 0 0 0 0 0 0 0 0 0 0 0 0 0 0 0 127 0"/>
<feOffset dy="4"/>
<feGaussianBlur stdDeviation="2"/>
<feColorMatrix type="matrix" values="0 0 0 0 0 0 0 0 0 0 0 0 0 0 0 0 0 0 0.25 0"/>
<feBlend mode="normal" in2="BackgroundImageFix" result="effect1_dropShadow"/>
<feBlend mode="normal" in="SourceGraphic" in2="effect1_dropShadow" result="shape"/>
</filter>
</defs>
</svg>
