<svg width="102" height="104" viewBox="0 0 102 104" fill="none" xmlns="http://www.w3.org/2000/svg">
<path d="M29.3594 27.8823C29.3594 27.8823 33.0208 3.39392 34.8553 2.93766C36.6897 2.4814 46.6152 5.80985 49.6055 7.3731C49.7546 7.45537 51.3803 7.8144 52.8269 7.46285C57.167 6.4157 64.8105 3.37896 65.0641 2.8853C65.519 2.01018 70.2542 0.32726 72.9985 26.4986C73.1774 28.2039 47.9127 33.2153 29.3594 27.8823Z" stroke="#378EBD" stroke-width="4" stroke-miterlimit="10"/>
<path d="M23.0431 44.0303C23.0431 44.0303 12.372 44.0303 3.49798 50.8442C2.72244 51.4426 22.3496 64.7489 22.3496 64.7489L14.8626 74.7492L62.9536 101.855C62.9536 101.855 26.3615 77.2549 27.055 52.789" stroke="#378EBD" stroke-width="4" stroke-miterlimit="10"/>
<path d="M73.6474 19.6992C73.6474 19.6992 96.7495 22.1376 99.5907 26.9171C100.254 28.039 96.8539 32.6091 80.4408 34.0302C64.0277 35.4514 6.06347 34.7408 2.61828 27.8296C-0.826909 20.9184 25.5191 20.2078 25.5191 20.2078" stroke="#378EBD" stroke-width="4" stroke-miterlimit="10"/>
<path d="M53.9905 39.4751C53.9905 39.4751 53.6922 42.9756 54.8779 45.1821C56.0561 47.3886 58.7183 48.2861 61.373 48.3609C66.6899 48.5105 72.5438 48.8995 74.2216 43.918C75.7876 39.2657 74.9599 35.0322 74.9599 35.0322" stroke="#378EBD" stroke-width="4" stroke-miterlimit="10"/>
<path d="M27.9201 39.4751C27.9201 39.4751 27.6219 42.9756 28.8075 45.1821C29.9858 47.3886 32.648 48.2861 35.3027 48.3609C40.6196 48.5105 46.4735 48.8995 48.1513 43.918C49.7173 39.2657 48.8896 35.0322 48.8896 35.0322" stroke="#378EBD" stroke-width="4" stroke-miterlimit="10"/>
<path d="M55.75 86.7097C55.75 86.7097 76.3018 67.8011 75.1758 54.1807" stroke="#378EBD" stroke-width="3" stroke-miterlimit="10"/>
<path d="M79.4485 44.0303C79.4485 44.0303 95.9437 46.1171 99.6648 50.8442C100.463 51.8615 80.9698 64.7489 80.9698 64.7489L88.7327 75.3176L52.6924 93.8971" stroke="#378EBD" stroke-width="4" stroke-miterlimit="10"/>
</svg>
