<svg width="110" height="70" viewBox="0 0 110 70" fill="none" xmlns="http://www.w3.org/2000/svg">
<g clip-path="url(#clip0)">
<g filter="url(#filter0_d)">
<path d="M100.9 50.8809C100.9 50.8809 113.353 70.4745 109.202 70.0005C105.051 69.5265 81.9014 61.1517 81.9014 61.1517L100.9 50.8809Z" fill="#378EBD"/>
<path d="M79.6658 18.6455H68.1709C54.9198 18.6455 44.0635 29.3904 44.0635 42.5056C44.0635 55.6207 54.9198 66.3656 68.1709 66.3656H79.6658C92.9169 66.3656 103.773 55.6207 103.773 42.5056C103.773 29.2324 92.9169 18.6455 79.6658 18.6455ZM74.3973 52.3024V54.9886H69.2884V52.3024C66.8937 51.9864 64.6585 51.3543 64.0199 50.8803L66.2551 45.5078C67.6919 46.1399 71.0446 46.4559 72.0025 46.4559C72.9604 46.4559 73.1201 46.1399 73.1201 45.8238C73.1201 45.3498 72.8008 45.0338 72.3218 44.8758C70.406 44.2437 64.4989 45.3498 64.4989 38.2392C64.4989 35.0789 65.7761 32.5507 69.2884 31.7606V28.9164H74.3973V31.6026C76.6324 31.9186 78.5482 32.5507 79.5061 33.0247L77.5903 38.3972C76.1535 37.7651 73.1201 37.2911 71.8429 37.6071C71.2043 37.7651 71.0446 37.9232 71.0446 38.2392C71.0446 38.7132 71.3639 38.8712 71.8429 39.0293C73.7587 39.5033 79.9851 38.7132 79.9851 45.6658C79.6658 49.1421 78.2289 51.5123 74.3973 52.3024Z" fill="#378EBD"/>
<path d="M9.10117 34.1309C9.10117 34.1309 -3.35166 53.7245 0.79928 53.2505C4.95022 52.7765 28.0997 44.4017 28.0997 44.4017L9.10117 34.1309Z" fill="#378EBD"/>
<path d="M65.2977 16.4334C62.1047 6.9526 53.0046 0 42.3079 0H30.813C17.5619 0 6.86523 10.7449 6.86523 23.86C6.86523 36.9752 17.7215 47.7201 30.9726 47.7201H41.829C41.6693 46.772 41.6693 45.6659 41.6693 44.5598V40.2935C41.5096 27.1783 52.0467 16.5914 65.2977 16.4334ZM38.6359 30.9707V33.6569H33.5271V30.9707C31.1323 30.6546 28.8972 30.0226 28.2586 29.5485L30.4937 24.1761C31.9305 24.8081 35.2832 25.1242 36.2411 25.1242C37.1991 25.1242 37.3587 24.8081 37.3587 24.4921C37.3587 24.0181 37.0394 23.702 36.5604 23.544C34.6446 22.912 28.7375 24.0181 28.7375 16.9074C28.7375 13.7472 30.0147 11.219 33.5271 10.4289V7.74266H38.6359V10.4289C40.871 10.7449 42.7869 11.377 43.7448 11.851L41.829 17.2235C40.3921 16.5914 37.3587 16.1174 36.0815 16.4334C35.4429 16.5914 35.2832 16.7494 35.2832 17.0655C35.2832 17.5395 35.6025 17.6975 36.0815 17.8555C37.9973 18.3296 44.2237 17.5395 44.2237 24.4921C43.9044 27.8104 42.4676 30.3386 38.6359 30.9707Z" fill="#378EBD"/>
</g>
</g>
<defs>
<filter id="filter0_d" x="-4.04785" y="0" width="118.097" height="78.009" filterUnits="userSpaceOnUse" color-interpolation-filters="sRGB">
<feFlood flood-opacity="0" result="BackgroundImageFix"/>
<feColorMatrix in="SourceAlpha" type="matrix" values="0 0 0 0 0 0 0 0 0 0 0 0 0 0 0 0 0 0 127 0"/>
<feOffset dy="4"/>
<feGaussianBlur stdDeviation="2"/>
<feColorMatrix type="matrix" values="0 0 0 0 0 0 0 0 0 0 0 0 0 0 0 0 0 0 0.25 0"/>
<feBlend mode="normal" in2="BackgroundImageFix" result="effect1_dropShadow"/>
<feBlend mode="normal" in="SourceGraphic" in2="effect1_dropShadow" result="shape"/>
</filter>
<clipPath id="clip0">
<rect width="110" height="70" fill="white"/>
</clipPath>
</defs>
</svg>
