<svg width="47" height="47" viewBox="0 0 47 47" fill="none" xmlns="http://www.w3.org/2000/svg">
<path d="M25.9877 21.3771V22.7075C26.0333 22.5252 26.0788 22.3521 26.1062 22.179L26.8716 18.0968C26.5071 17.951 25.8875 17.8052 25.0492 17.8052C21.8417 17.8052 19.2539 20.8304 19.2539 24.3659C19.2539 25.9696 20.0558 27.1359 21.6595 27.1359C23.4637 27.1359 25.1403 25.1677 25.8419 23.1813V21.3771H25.9877V21.3771Z" fill="#56B6ED"/>
<path d="M23.5 0C10.5244 0 0 10.5244 0 23.5C0 36.4756 10.5244 47 23.5 47C36.4756 47 47 36.4756 47 23.5C47 10.5244 36.4756 0 23.5 0ZM28.7668 29.1039C27.3088 29.1039 25.9603 28.1563 26.0332 25.8965H25.9876V26.2245H25.8418V26.0332C24.5752 28.0834 22.9259 29.0948 20.7846 29.0948C18.6706 29.0948 16.8482 27.3817 16.8482 24.5023C16.8482 19.9827 20.4201 15.8641 25.4864 15.8641C27.0173 15.8641 28.4387 16.1921 29.3864 16.6295L28.1472 23.2358C27.6004 26.0058 28.0378 27.2815 29.2406 27.318C31.0995 27.3908 33.177 24.8759 33.177 20.6844C33.177 15.3629 30.006 11.5359 24.3565 11.5359C18.4155 11.5359 13.4221 16.2741 13.4221 23.6731C13.4221 29.76 17.3949 33.5506 22.7893 33.5506C24.8668 33.5506 26.7986 33.1132 28.2929 32.2749L28.8761 33.8422C26.8715 34.8992 24.8304 35.3001 22.3883 35.3001C16.4108 35.3001 11.3445 30.9263 11.3445 23.8918C11.3445 16.3835 16.5566 9.85925 24.6481 9.85925C30.9901 9.85925 35.2181 14.3424 35.2181 20.4292C35.2181 25.8965 32.1565 29.1039 28.7668 29.1039Z" fill="#56B6ED"/>
<g filter="url(#filter0_d)">
<path d="M25.9876 21.377H25.8418V23.1811V26.0332V26.2246H25.9876V25.8965V22.7073V21.377Z" fill="#4292BE"/>
</g>
<defs>
<filter id="filter0_d" x="21.8418" y="21.377" width="8.1458" height="12.8476" filterUnits="userSpaceOnUse" color-interpolation-filters="sRGB">
<feFlood flood-opacity="0" result="BackgroundImageFix"/>
<feColorMatrix in="SourceAlpha" type="matrix" values="0 0 0 0 0 0 0 0 0 0 0 0 0 0 0 0 0 0 127 0"/>
<feOffset dy="4"/>
<feGaussianBlur stdDeviation="2"/>
<feColorMatrix type="matrix" values="0 0 0 0 0 0 0 0 0 0 0 0 0 0 0 0 0 0 0.25 0"/>
<feBlend mode="normal" in2="BackgroundImageFix" result="effect1_dropShadow"/>
<feBlend mode="normal" in="SourceGraphic" in2="effect1_dropShadow" result="shape"/>
</filter>
</defs>
</svg>
