<svg width="47" height="47" viewBox="0 0 47 47" fill="none" xmlns="http://www.w3.org/2000/svg">
<path d="M23.4927 0C10.5195 0 0 10.5195 0 23.4927C0 36.4658 10.5195 46.9853 23.4927 46.9853C36.4658 46.9853 46.9853 36.4658 46.9853 23.4927C46.9853 10.5195 36.4805 0 23.4927 0ZM31.0738 26.96L36.9947 32.5871H30.1041L26.0491 28.532H24.8296V32.352C24.8296 32.352 23.6102 32.352 21.3917 32.352C14.6627 32.352 8.5361 18.512 8.5361 18.512L7.91904 17.895V16.8959H13.5755C14.2954 20.4955 17.3954 24.1391 19.0997 25.9315C19.5111 26.3576 20.231 26.0638 20.231 25.4761V18.5561C20.231 17.8068 19.6286 17.2044 18.8793 17.2044H18.5561V16.5139H24.4036V16.8959V23.0666L30.5595 16.9106H36.98L28.4733 24.8884L31.0738 26.96Z" fill="#56B6ED"/>
</svg>
