<svg width="241" height="187" viewBox="0 0 241 187" fill="none" xmlns="http://www.w3.org/2000/svg">
<path d="M85.7779 0.803711C59.5456 0.803711 38.2217 6.66819 38.2217 13.8984C38.2217 21.1285 59.5456 26.993 85.7779 26.993C112.091 26.993 133.334 21.1285 133.334 13.8984C133.334 6.66819 112.091 0.803711 85.7779 0.803711ZM85.3756 26.4307C60.6721 26.4307 40.7162 21.2089 40.7162 14.7821C40.7162 8.35523 60.6721 3.13344 85.3756 3.13344C110.079 3.13344 130.035 8.35523 130.035 14.7821C130.035 21.2089 110.079 26.4307 85.3756 26.4307Z" fill="#56B6ED"/>
<path d="M132.772 11.7293C131.082 9.72091 128.024 8.9979 124.242 9.07823C127.944 10.7653 130.116 12.7737 130.116 14.8624C130.116 21.2892 110.08 26.511 85.4569 26.511C60.7534 26.511 40.7975 21.2892 40.7975 14.8624C40.7975 14.1394 41.0389 13.4163 41.6021 12.6933C40.3147 13.0147 39.2686 13.4163 38.303 13.9787C38.142 14.1394 38.303 15.7461 38.303 17.4331C38.303 19.2808 38.303 21.1285 38.303 21.5302C38.303 23.2172 38.303 25.7076 38.303 26.993C38.303 34.2232 59.6268 40.0877 85.8592 40.0877C112.172 40.0877 133.415 34.2232 133.415 26.993C133.415 25.788 133.657 23.6993 133.576 22.1729C133.496 20.4055 134.059 13.2557 132.772 11.7293ZM44.499 31.9738L40.2342 29.1621V19.2005L44.4185 21.9319V31.9738H44.499ZM122.955 33.1788L118.69 35.4282V25.2256L122.955 23.2976V33.1788ZM129.392 30.6884L125.127 32.9378V22.6549L129.392 20.7269V30.6884Z" fill="#56B6ED"/>
<path d="M82.6397 43.7828C51.9816 45.3895 38.2217 32.9375 38.2217 32.9375V45.3895C49.6481 58.2431 78.7773 57.8415 81.835 57.9218C124.402 59.0465 133.415 46.5945 133.415 46.5945V32.9375C123.839 45.3895 86.6631 43.6221 82.6397 43.7828ZM44.4981 48.2815L40.2334 45.4698V35.4279L44.4177 38.1593V48.2815H44.4981ZM122.954 50.9326L118.689 53.182V42.8991L122.954 40.971V50.9326ZM129.552 48.3619L125.287 50.6113V40.3284L129.552 38.4003V48.3619Z" fill="#56B6ED"/>
<path d="M82.6397 61.6971C51.9816 63.3038 38.2217 50.8518 38.2217 50.8518V63.3038C49.6481 76.0771 78.7773 75.6754 81.835 75.7558C124.402 76.8805 133.415 64.4285 133.415 64.4285V50.7715C123.839 63.3038 86.6631 61.4561 82.6397 61.6971ZM44.4981 66.1155L40.2334 63.3038V53.3422L44.4177 56.0736V66.1155H44.4981ZM122.954 68.7666L118.689 71.016V60.8134L122.954 58.8854V68.7666ZM129.552 66.1959L125.287 68.4452V58.2427L129.552 56.2343V66.1959Z" fill="#56B6ED"/>
<path d="M82.6397 79.532C51.9816 81.1388 38.2217 68.6868 38.2217 68.6868V81.1388C49.6481 93.9121 78.7773 93.5104 81.835 93.5907C124.402 94.7154 133.415 82.2634 133.415 82.2634V68.6064C123.839 81.1388 86.6631 79.291 82.6397 79.532ZM44.4981 84.0308L40.3138 81.2191V71.1772L44.4981 73.9086V84.0308ZM122.954 86.6819L118.689 88.9313V78.6484L122.954 76.7203V86.6819ZM129.552 84.1112L125.287 86.3605V76.0776L129.552 74.1496V84.1112Z" fill="#56B6ED"/>
<path d="M82.6397 97.1258C51.9816 98.7325 38.2217 86.2805 38.2217 86.2805V98.7325C49.6481 111.506 78.7773 111.104 81.835 111.184C124.402 112.309 133.415 99.8572 133.415 99.8572V86.2002C123.92 98.7325 86.7436 96.8848 82.6397 97.1258ZM44.4981 101.544L40.3138 98.7325V88.6906L44.4981 91.422V101.544ZM122.954 104.276L118.689 106.525V96.2421L122.954 94.3141V104.276ZM129.552 101.705L125.287 103.954V93.6714L129.552 91.7433V101.705Z" fill="#56B6ED"/>
<path d="M82.2374 113.915C51.4988 115.522 37.8193 102.99 37.8193 102.99V112.71C41.1185 112.469 44.6591 112.389 48.1996 112.389C72.9031 112.389 92.8591 117.611 92.8591 124.037C92.8591 125.403 91.9739 126.688 90.2841 127.974C125.207 127.331 133.012 116.566 133.012 116.566V102.909C123.437 115.522 86.2607 113.674 82.2374 113.915ZM122.552 121.065L118.287 123.314V113.031L122.552 111.103V121.065ZM129.069 118.494L124.805 120.744V110.461L129.069 108.533V118.494Z" fill="#56B6ED"/>
<path d="M83.5255 147.576C52.8674 149.183 39.1074 136.731 39.1074 136.731V149.183C49.5682 160.912 74.9959 161.554 81.5138 161.635V152.235L85.7785 150.307V160.269L83.1231 161.635C125.288 162.679 134.3 150.307 134.3 150.307V136.65C124.725 149.183 87.5488 147.335 83.5255 147.576ZM92.2964 157.698L88.0316 159.948V149.665L92.2964 147.737V157.698ZM123.84 154.646L119.575 156.895V146.612L123.84 144.684V154.646ZM130.357 152.075L126.093 154.324V144.041L130.357 142.113V152.075Z" fill="#56B6ED"/>
<path d="M192.8 36.7129C166.488 36.7129 145.244 42.5774 145.244 49.8075C145.244 57.0377 166.568 62.9022 192.8 62.9022C219.113 62.9022 240.357 57.0377 240.357 49.8075C240.357 42.5774 219.033 36.7129 192.8 36.7129ZM192.318 62.4202C167.614 62.4202 147.658 57.1984 147.658 50.7716C147.658 44.3447 167.695 39.123 192.318 39.123C216.941 39.123 236.977 44.3447 236.977 50.7716C237.058 57.1984 217.021 62.4202 192.318 62.4202Z" fill="#56B6ED"/>
<path d="M239.712 47.6385C238.022 45.6301 234.965 44.9071 231.183 44.9874C234.884 46.6745 237.057 48.6828 237.057 50.7716C237.057 57.1984 217.02 62.4202 192.397 62.4202C167.774 62.4202 147.738 57.1984 147.738 50.7716C147.738 50.0485 147.979 49.3255 148.543 48.6025C147.255 48.9238 146.209 49.3255 145.243 49.8879C145.082 50.0485 145.243 51.6552 145.243 53.3423C145.243 55.19 145.243 57.0377 145.243 57.4394C145.243 59.1264 145.243 61.6168 145.243 62.9022C145.243 70.1324 166.567 75.9968 192.8 75.9968C219.113 75.9968 240.356 70.1324 240.356 62.9022C240.356 61.6972 240.597 59.6084 240.517 58.0821C240.517 56.395 241.08 49.2452 239.712 47.6385ZM151.439 67.9633L147.255 65.1516V55.1097L151.439 57.8411V67.9633ZM229.895 69.1683L225.63 71.4177V61.1348L229.895 59.2068V69.1683ZM236.333 66.6779L232.068 68.9273V58.6444L236.333 56.7164V66.6779Z" fill="#56B6ED"/>
<path d="M44.9005 152.718C14.2424 154.324 0.482422 141.872 0.482422 141.872V154.324C11.9088 167.098 41.038 166.696 44.0958 166.776C86.6631 167.901 95.6754 155.449 95.6754 155.449V141.792C86.1803 154.405 49.0043 152.557 44.9005 152.718ZM7.24169 157.618L3.05738 154.806V144.764L7.24169 147.496V157.618ZM85.6975 160.269L81.4327 162.519V152.236L85.6975 150.308V160.269ZM92.2958 157.698L88.031 159.948V149.665L92.2958 147.737V157.698Z" fill="#56B6ED"/>
<path d="M44.9005 170.633C14.2424 172.239 0.482422 159.787 0.482422 159.787V172.239C11.9088 185.013 41.038 184.611 44.0958 184.691C86.6631 185.816 95.6754 173.364 95.6754 173.364V159.707C86.1803 172.239 49.0043 170.392 44.9005 170.633ZM7.24169 175.453L3.05738 172.641V162.599L7.24169 165.331V175.453ZM85.6975 178.104L81.4327 180.353V170.07L85.6975 168.142V178.104ZM92.2958 175.533L88.031 177.782V167.5L92.2958 165.572V175.533Z" fill="#56B6ED"/>
<path d="M92.1357 131.509V140.025L87.8709 142.274V131.991L88.917 131.509C85.7788 131.509 83.5257 131.509 82.6405 131.509H82.5601C74.3524 134.16 62.0409 135.767 48.2005 135.767C45.706 135.767 43.2115 135.687 40.8779 135.606C53.5918 145.889 79.0195 145.568 81.9163 145.648C124.484 146.773 133.496 134.321 133.496 134.321V120.664C126.495 129.742 104.93 131.268 92.1357 131.509ZM85.6983 142.515L81.4335 144.765V134.482L85.6983 132.554V142.515ZM122.955 138.659L118.69 140.909V130.626L122.955 128.698V138.659ZM129.553 136.088L125.288 138.338V128.055L129.553 126.127V136.088Z" fill="#56B6ED"/>
<path d="M189.581 79.7733C158.923 81.38 145.163 68.928 145.163 68.928V81.38C156.589 94.1533 185.719 93.7516 188.776 93.8319C231.344 94.9566 240.356 82.5047 240.356 82.5047V68.8477C230.861 81.38 193.685 79.5323 189.581 79.7733ZM151.44 84.1917L147.255 81.38V71.4184L151.44 74.1498V84.1917ZM229.895 86.9231L225.631 89.1725V78.8896L229.895 76.9615V86.9231ZM236.494 84.3524L232.229 86.6018V76.3188L236.494 74.3908V84.3524Z" fill="#56B6ED"/>
<path d="M189.581 97.6072C158.923 99.2139 145.163 86.762 145.163 86.762V99.2139C150.393 105.078 159.245 108.131 167.694 109.818C173.809 107.087 180.73 105.48 188.052 105.48C196.34 105.48 204.065 107.488 210.744 110.943C234.643 108.292 240.356 100.339 240.356 100.339V86.6816C230.861 99.2943 193.685 97.4466 189.581 97.6072ZM151.44 102.106L147.255 99.2943V89.2524L151.44 91.9838V102.106ZM229.895 104.757L225.631 107.006V96.7236L229.895 94.7955V104.757ZM236.494 102.186L232.229 104.436V94.1528L236.494 92.2248V102.186Z" fill="#56B6ED"/>
<path d="M145.163 104.677V117.129C146.933 119.137 149.106 120.824 151.6 122.19C154.497 118.575 158.038 115.361 162.142 112.791C150.554 109.577 145.163 104.677 145.163 104.677ZM151.44 119.94L147.255 117.129V107.087L151.44 109.818V119.94Z" fill="#56B6ED"/>
<path d="M216.136 114.317C219.837 116.968 223.056 120.181 225.631 123.797V114.719L229.896 112.791V122.752L226.194 124.68C226.194 124.6 226.114 124.6 226.114 124.52C226.355 124.921 226.677 125.323 226.918 125.725C237.379 122.431 240.356 118.334 240.356 118.334V104.677C236.092 110.3 226.114 113.032 216.136 114.317ZM236.494 120.101L232.229 122.351V112.068L236.494 110.14V120.101Z" fill="#56B6ED"/>
<path d="M145.163 122.19V134.401C146.129 131.108 147.577 128.055 149.428 125.163C146.612 123.476 145.163 122.19 145.163 122.19ZM147.255 124.681L149.026 125.806C148.382 126.85 147.819 127.894 147.255 129.019V124.681Z" fill="#56B6ED"/>
<path d="M228.93 129.18C230.78 132.955 231.907 136.972 232.229 141.23C238.505 138.498 240.437 135.847 240.437 135.847V122.19C237.942 125.324 233.838 127.573 228.93 129.18ZM236.494 137.615L232.229 139.864V129.581L236.494 127.653V137.615Z" fill="#56B6ED"/>
<path d="M232.31 144.524C232.31 145.166 232.31 145.809 232.229 146.452C232.229 146.371 232.229 146.291 232.229 146.211L236.011 144.443V154.405L231.746 156.654V150.227C231.988 149.022 232.149 147.737 232.229 146.532C231.907 151.031 230.781 155.289 228.85 159.225C237.46 156.092 239.954 152.637 239.954 152.637V138.98C238.184 141.31 235.528 143.078 232.31 144.524Z" fill="#56B6ED"/>
<path d="M48.1197 109.738C21.8069 109.738 0.563477 115.603 0.563477 122.833C0.563477 130.063 21.8874 135.928 48.1197 135.928C74.4326 135.928 95.676 130.063 95.676 122.833C95.676 115.603 74.3521 109.738 48.1197 109.738ZM47.6369 135.446C22.9334 135.446 2.9775 130.224 2.9775 123.797C2.9775 117.37 23.0139 112.148 47.6369 112.148C72.26 112.148 92.2964 117.37 92.2964 123.797C92.3768 130.143 72.3404 135.446 47.6369 135.446Z" fill="#56B6ED"/>
<path d="M95.0319 120.664C93.3421 118.655 90.2843 117.932 86.5024 118.013C90.2039 119.7 92.3765 121.708 92.3765 123.797C92.3765 130.224 72.3401 135.446 47.7171 135.446C23.094 135.446 2.97715 130.143 2.97715 123.717C2.97715 122.994 3.21855 122.271 3.78182 121.548C2.49435 121.869 1.44827 122.271 0.482659 122.833C0.321725 122.994 0.482659 124.6 0.482659 126.287C0.482659 128.135 0.482659 129.983 0.482659 130.384C0.482659 132.071 0.482659 134.562 0.482659 135.847C0.482659 143.077 21.8065 148.942 48.0389 148.942C74.3518 148.942 95.5952 143.077 95.5952 135.847C95.5952 134.642 95.8366 132.554 95.7561 131.027C95.8366 129.34 96.3999 122.19 95.0319 120.664ZM7.24193 141.31L3.05762 138.498V128.537L7.24193 131.268V141.31ZM85.6977 142.515L81.4329 144.764V134.482L85.6977 132.554V142.515ZM92.1351 140.025L87.8703 142.274V131.991L92.1351 130.063V140.025Z" fill="#56B6ED"/>
<path d="M186.604 171.355V165.892C183.868 165.651 181.454 164.928 179.362 163.723C177.269 162.518 175.499 160.751 174.051 158.421L177.269 155.931C178.396 157.859 179.684 159.385 181.293 160.51C182.902 161.634 184.672 162.277 186.684 162.518V146.371C182.58 145.085 179.684 143.559 177.913 141.872C176.143 140.185 175.258 138.016 175.258 135.365C175.258 132.232 176.223 129.741 178.235 127.893C180.247 126.046 183.063 124.921 186.604 124.68V120.904H189.742V124.76C192.236 124.921 194.329 125.564 196.179 126.688C198.03 127.813 199.559 129.42 200.927 131.589L197.708 133.919C196.743 132.071 195.536 130.705 194.248 129.741C192.961 128.777 191.432 128.295 189.661 128.134V143.157C193.846 144.202 196.984 145.648 198.915 147.576C200.927 149.504 201.893 151.914 201.893 154.966C201.893 158.18 200.846 160.67 198.674 162.679C196.501 164.607 193.524 165.731 189.661 165.972V171.435H186.604V171.355ZM186.604 142.113V128.054C184.27 128.215 182.419 128.857 181.132 130.063C179.844 131.268 179.201 132.794 179.201 134.802C179.201 136.489 179.764 137.935 180.971 139.06C182.098 140.185 183.948 141.229 186.604 142.113ZM189.822 162.518C192.317 162.438 194.329 161.715 195.857 160.349C197.386 158.983 198.111 157.296 198.111 155.288C198.111 153.36 197.467 151.753 196.099 150.468C194.731 149.182 192.639 148.138 189.822 147.335V162.518Z" fill="#56B6ED"/>
<path d="M47.3146 131.75V129.822C44.5787 129.741 42.1647 129.5 40.0726 129.018C37.9804 128.536 36.2101 127.974 34.7617 127.171L37.9804 126.287C39.107 127.01 40.3944 127.492 42.0038 127.894C43.6131 128.295 45.3834 128.536 47.3951 128.617V122.913C43.2913 122.431 40.3944 121.949 38.6242 121.306C36.8539 120.663 35.9687 119.94 35.9687 118.976C35.9687 117.852 36.9343 116.968 38.946 116.325C40.9577 115.683 43.7741 115.281 47.3146 115.201V113.835H50.4529V115.201C52.9474 115.281 55.0395 115.522 56.8903 115.924C58.741 116.325 60.2699 116.888 61.6378 117.691L58.4192 118.494C57.4535 117.852 56.2465 117.37 54.9591 117.048C53.6716 116.727 52.1427 116.486 50.3724 116.486V121.788C54.5567 122.19 57.6949 122.672 59.6262 123.395C61.6378 124.038 62.6035 124.921 62.6035 126.046C62.6035 127.171 61.5574 128.054 59.3848 128.777C57.2121 129.5 54.2348 129.822 50.3724 129.982V131.91H47.3146V131.75ZM47.3146 121.386V116.406C44.9811 116.486 43.1303 116.727 41.8429 117.129C40.5554 117.53 39.9116 118.093 39.9116 118.816C39.9116 119.378 40.4749 119.94 41.6819 120.342C42.728 120.663 44.6592 121.065 47.3146 121.386ZM50.4529 128.617C52.9474 128.617 54.959 128.295 56.4879 127.813C58.0168 127.331 58.741 126.769 58.741 126.046C58.741 125.323 58.0973 124.761 56.7293 124.359C55.3614 123.877 53.2692 123.556 50.4529 123.234V128.617Z" fill="#56B6ED"/>
<path d="M84.008 22.8152V20.8871C81.2721 20.8068 78.8581 20.5658 76.7659 20.0838C74.6738 19.6018 72.9035 19.0394 71.4551 18.2361L74.6738 17.3524C75.8003 18.0754 77.0878 18.5574 78.6971 18.9591C80.3065 19.3607 82.0768 19.6018 84.0885 19.6821V13.8979C79.9846 13.4159 77.0878 12.9339 75.3175 12.2912C73.5472 11.6486 72.6621 10.9255 72.6621 9.96152C72.6621 8.83682 73.6277 7.95313 75.6394 7.31045C77.6511 6.66777 80.4674 6.26609 84.008 6.18576V4.90039H87.1462V6.26609C89.6407 6.34643 91.7329 6.58743 93.5836 6.98911C95.4344 7.39079 96.9633 7.95313 98.3312 8.75649L95.1125 9.55984C94.1469 8.91716 92.9399 8.43515 91.6524 8.1138C90.3649 7.79246 88.836 7.55146 87.0658 7.55146V12.8536C91.2501 13.2553 94.3883 13.7373 96.3195 14.4603C98.3312 15.103 99.2968 15.9867 99.2968 17.1114C99.2968 18.2361 98.2507 19.1197 96.0781 19.8428C93.9055 20.5658 90.9282 20.8871 87.0658 21.0478V22.9758H84.008V22.8152ZM84.008 12.4519V7.47112C81.6744 7.55146 79.8237 7.79246 78.5362 8.19414C77.2487 8.59582 76.605 9.15816 76.605 9.88118C76.605 10.4435 77.1683 11.0059 78.3753 11.4076C79.4214 11.7289 81.3526 12.1306 84.008 12.4519ZM87.1462 19.6821C89.6407 19.6821 91.6524 19.3607 93.1813 18.8787C94.7102 18.3967 95.4344 17.8344 95.4344 17.1114C95.4344 16.3883 94.7906 15.826 93.4227 15.4243C92.0547 14.9423 89.9626 14.621 87.1462 14.2996V19.6821Z" fill="#56B6ED"/>
<path d="M190.225 58.8057V56.8776C187.489 56.7973 185.075 56.5563 182.983 56.0743C180.891 55.5922 179.12 55.0299 177.672 54.2265L180.891 53.3429C182.017 54.0659 183.305 54.5479 184.914 54.9496C186.523 55.3512 188.294 55.5922 190.305 55.6726V49.8884C186.201 49.4064 183.305 48.9244 181.534 48.2817C179.764 47.639 178.879 46.916 178.879 45.952C178.879 44.8273 179.844 43.9436 181.856 43.3009C183.868 42.6583 186.684 42.2566 190.225 42.1762V40.8105H193.363V42.1762C195.858 42.2566 197.95 42.4976 199.8 42.8993C201.651 43.3009 203.18 43.8633 204.548 44.6666L201.329 45.47C200.364 44.8273 199.157 44.3453 197.869 44.024C196.582 43.7026 195.053 43.4616 193.283 43.4616V48.7637C197.467 49.1654 200.605 49.6474 202.536 50.3705C204.548 51.0131 205.514 51.8968 205.514 53.0215C205.514 54.1462 204.468 55.0299 202.295 55.7529C200.122 56.4759 197.145 56.7973 193.283 56.9579V58.886H190.225V58.8057ZM190.225 48.4424V43.3813C187.891 43.4616 186.04 43.7026 184.753 44.1043C183.466 44.506 182.822 45.0683 182.822 45.7913C182.822 46.3537 183.385 46.916 184.592 47.3177C185.638 47.7194 187.569 48.0407 190.225 48.4424ZM193.363 55.6726C195.858 55.6726 197.869 55.3512 199.398 54.8692C200.927 54.3872 201.651 53.8249 201.651 53.1019C201.651 52.3788 201.007 51.8165 199.639 51.4148C198.272 50.9328 196.179 50.6115 193.363 50.2901V55.6726Z" fill="#56B6ED"/>
<path d="M229.896 130.224L229.493 130.465C229.654 130.786 229.815 131.188 229.896 131.509V130.224Z" fill="white"/>
<path d="M231.827 146.452V150.308C232.069 148.942 232.229 147.657 232.31 146.291L231.827 146.452Z" fill="white"/>
<path d="M149.026 125.886C156.509 113.755 171.154 105.48 188.052 105.48C171.074 105.48 156.268 113.434 148.141 125.243L149.026 125.886Z" fill="#56B6ED"/>
<path d="M225.631 122.27C217.262 112.148 203.502 105.561 188.053 105.561C203.905 105.561 217.826 112.791 225.631 123.716V122.27Z" fill="#56B6ED"/>
<path d="M231.826 150.227C228.447 168.624 210.181 182.763 188.052 182.763C163.59 182.763 143.795 165.491 143.795 144.122C143.795 138.82 145.002 133.678 147.255 129.099V126.77C143.714 132.473 141.783 138.9 141.783 145.809C141.783 168.062 162.544 186.057 188.052 186.057C209.537 186.057 227.561 173.364 232.792 156.172L231.746 156.735V150.227H231.826Z" fill="#56B6ED"/>
<path d="M233.677 139.141L232.148 139.944V133.758C230.941 130.384 229.171 127.171 226.998 124.198L226.113 124.68C229.976 130.384 232.229 137.132 232.229 144.282C232.229 145.005 232.229 145.648 232.148 146.29L234.24 145.326C234.321 143.157 234.08 141.069 233.677 139.141Z" fill="#56B6ED"/>
<path d="M234.321 145.246L232.229 146.21C232.148 146.933 232.148 147.576 232.068 148.218C231.987 148.861 231.907 149.504 231.746 150.227V156.654L232.792 156.091C233.838 152.798 234.321 149.343 234.321 145.728C234.321 145.567 234.321 145.407 234.321 145.246Z" fill="#56B6ED"/>
<path d="M232.229 139.864L233.758 139.06C233.437 137.212 232.873 135.445 232.229 133.678V139.864Z" fill="#56B6ED"/>
<path d="M225.631 122.271V123.717C225.872 124.038 226.033 124.279 226.194 124.6L227.079 124.118C226.596 123.476 226.114 122.913 225.631 122.271Z" fill="#56B6ED"/>
<path d="M149.026 127.886L148.221 127.323C147.899 127.805 147.577 128.287 147.336 128.769V131.099C147.819 129.974 148.382 128.93 149.026 127.886Z" fill="#56B6ED"/>
</svg>
