<svg width="228" height="168" viewBox="0 0 228 168" fill="none" xmlns="http://www.w3.org/2000/svg">
<path d="M215.371 162.328H12.6286C8.76033 162.328 5.68848 159.265 5.68848 155.409V12.5915C5.68848 8.73467 8.76033 5.67188 12.6286 5.67188H215.371C219.239 5.67188 222.311 8.73467 222.311 12.5915V155.409C222.311 159.265 219.239 162.328 215.371 162.328Z" stroke="#56B6ED" stroke-width="10" stroke-miterlimit="10"/>
<path d="M10.8086 38.5684H219.24H10.8086Z" stroke="#56B6ED" stroke-width="10" stroke-miterlimit="10"/>
<path d="M200.126 68.4023H32.9942C31.2876 68.4023 29.8086 67.041 29.8086 65.226C29.8086 63.5245 31.1739 62.0498 32.9942 62.0498H200.012C201.719 62.0498 203.198 63.411 203.198 65.226C203.312 67.041 201.833 68.4023 200.126 68.4023Z" stroke="#56B6ED" stroke-width="10" stroke-miterlimit="10"/>
<path d="M200.695 98.3495H33.6768C31.9703 98.3495 30.4912 96.9883 30.4912 95.1733C30.4912 93.4718 31.8565 91.9971 33.6768 91.9971H200.695C202.401 91.9971 203.88 93.3583 203.88 95.1733C203.88 96.8749 202.401 98.3495 200.695 98.3495Z" stroke="#56B6ED" stroke-width="10" stroke-miterlimit="10"/>
<path d="M200.695 128.184H33.6768C31.9703 128.184 30.4912 126.822 30.4912 125.007C30.4912 123.306 31.8565 121.831 33.6768 121.831H200.695C202.401 121.831 203.88 123.192 203.88 125.007C203.88 126.709 202.401 128.184 200.695 128.184Z" stroke="#56B6ED" stroke-width="10" stroke-miterlimit="10"/>
<path d="M24.1193 28.4725C20.5924 28.4725 17.748 25.6366 17.748 22.12C17.748 18.6035 20.5924 15.7676 24.1193 15.7676C27.6463 15.7676 30.4906 18.6035 30.4906 22.12C30.4906 25.6366 27.6463 28.4725 24.1193 28.4725Z" fill="#56B6ED"/>
<path d="M41.7541 28.6991C38.2271 28.6991 35.3828 25.8631 35.3828 22.3466C35.3828 18.8301 38.2271 15.9941 41.7541 15.9941C45.281 15.9941 48.1253 18.8301 48.1253 22.3466C48.0116 25.8631 45.281 28.6991 41.7541 28.6991Z" fill="#56B6ED"/>
<path d="M59.5031 28.5858C55.9761 28.5858 53.1318 25.7499 53.1318 22.2333C53.1318 18.7168 55.9761 15.8809 59.5031 15.8809C63.03 15.8809 65.8744 18.7168 65.8744 22.2333C65.7606 25.7499 62.9163 28.5858 59.5031 28.5858Z" fill="#56B6ED"/>
</svg>
