<svg width="206" height="206" viewBox="0 0 206 206" fill="none" xmlns="http://www.w3.org/2000/svg">
<circle cx="103" cy="103" r="98" stroke="#56B6ED" stroke-width="10"/>
<path d="M155.139 104.795C155.139 104.795 144.464 105.473 140.414 108.886C138.664 110.367 139.389 109.464 139.389 109.464" stroke="#56B6ED" stroke-width="4" stroke-miterlimit="10"/>
<path d="M114.365 111.497L138.74 124.574C138.74 124.574 144.09 125.302 145.14 123.194C146.19 121.085 147.715 118.249 145.14 115.739C142.565 113.229 120.94 95.3062 101.365 88.4536C98.74 87.5499 95.44 88.4536 95.44 88.4536C95.44 88.4536 87.74 100.803 77.49 99.473C73.215 98.9208 75.115 94.2018 79.565 88.052C84.015 81.9021 87.14 77.7604 87.14 77.7604C87.14 77.7604 96.94 73.7442 116.065 74.924C120.04 75.175 129.115 79.392 135.79 77.3086C139.015 76.3046 139.015 76.3046 139.015 76.3046L156.69 105.598" stroke="#56B6ED" stroke-width="4" stroke-miterlimit="10"/>
<path d="M137.189 124.224C137.189 124.224 138.264 134.942 129.114 131.579C119.964 128.215 108.139 120.71 108.139 120.71" stroke="#56B6ED" stroke-width="4" stroke-miterlimit="10"/>
<path d="M127.638 131.679C127.638 131.679 128.813 143.25 120.638 140.464C112.463 137.678 101.738 132.206 101.738 132.206" stroke="#56B6ED" stroke-width="4" stroke-miterlimit="10"/>
<path d="M120.639 140.489C120.639 140.489 107.214 150.178 95.6143 143.351" stroke="#56B6ED" stroke-width="4" stroke-miterlimit="10"/>
<path d="M56.4145 125.879C58.9145 127.737 62.4395 127.21 64.2895 124.7L67.0395 120.959C68.8895 118.449 68.3645 114.91 65.8645 113.053C63.3645 111.195 59.8395 111.722 57.9895 114.232L55.2395 117.972C53.3895 120.483 53.9145 124.022 56.4145 125.879Z" stroke="#56B6ED" stroke-width="4" stroke-miterlimit="10"/>
<path d="M73.4887 141.293C75.9887 143.15 79.5137 142.623 81.3637 140.113L88.8137 129.972C90.6637 127.462 90.1387 123.923 87.6387 122.065C85.1387 120.208 81.6137 120.735 79.7637 123.245L72.3137 133.386C70.4637 135.896 70.9887 139.435 73.4887 141.293Z" stroke="#56B6ED" stroke-width="4" stroke-miterlimit="10"/>
<path d="M64.3891 134.866C66.8891 136.724 70.4141 136.197 72.2641 133.687L77.9391 125.956C79.7891 123.445 79.2641 119.906 76.7641 118.049C74.2641 116.191 70.7391 116.718 68.8891 119.228L63.2141 126.96C61.3641 129.47 61.8891 133.009 64.3891 134.866Z" stroke="#56B6ED" stroke-width="4" stroke-miterlimit="10"/>
<path d="M85.3139 146.89C87.8139 148.747 91.3389 148.22 93.1889 145.71L97.6389 139.661C99.4889 137.15 98.9639 133.611 96.4639 131.754C93.9639 129.896 90.4389 130.423 88.5889 132.933L84.1389 138.983C82.2889 141.493 82.8139 145.032 85.3139 146.89Z" stroke="#56B6ED" stroke-width="4" stroke-miterlimit="10"/>
<path d="M45.9639 104.971L56.5639 116.166" stroke="#56B6ED" stroke-width="4" stroke-miterlimit="10"/>
<path d="M65.4141 75.8027C65.4141 75.8027 72.6391 82.2538 84.1141 81.8019" stroke="#56B6ED" stroke-width="4" stroke-miterlimit="10"/>
<path d="M173.715 108.612L167.865 112.277C165.29 113.883 161.889 113.105 160.289 110.52L137.889 74.4241C136.289 71.8386 137.064 68.4249 139.639 66.8184L145.489 63.1536C148.064 61.5471 151.464 62.3252 153.064 64.9107L175.465 101.006C177.09 103.592 176.29 107.006 173.715 108.612Z" stroke="#56B6ED" stroke-width="4" stroke-miterlimit="10"/>
<path d="M36.2893 108.259L31.2393 104.519C28.7893 102.712 28.2643 99.2476 30.0893 96.7877L55.4643 62.2483C57.2643 59.7884 60.7143 59.2613 63.1643 61.0937L68.2143 64.8338C70.6643 66.6411 71.1893 70.105 69.3643 72.565L43.9893 107.104C42.1893 109.564 38.7393 110.091 36.2893 108.259Z" stroke="#56B6ED" stroke-width="4" stroke-miterlimit="10"/>
</svg>
