<svg width="99.863mm" height="22.555mm" version="1.1" viewBox="0 0 99.863 22.555" xmlns="http://www.w3.org/2000/svg">
 <defs>
  <linearGradient id="linearGradient866" x1="51.174" x2="151.04" y1="89.966" y2="89.966" gradientUnits="userSpaceOnUse">
   <stop style="stop-color:#19b2f2" offset="0"/>
   <stop style="stop-color:#28d9dc" offset="1"/>
  </linearGradient>
 </defs>
 <g transform="translate(-51.174 -78.689)">
  <g style="fill:url(#linearGradient866);stroke-width:.26458" aria-label="Osminog.bet">
   <path d="m51.174 91.219q0-2.8448 1.3998-5.7574 1.4224-2.9351 3.7479-4.8543t4.7414-1.9191q0.9257 0 1.5353 0.63218-0.36125-0.04516-0.65476-0.04516-1.8966 0-3.8834 1.8966t-3.2738 4.7414q-1.2644 2.8448-1.2644 5.4413 0 1.9417 0.76765 3.2061 0.79023 1.2418 2.4158 1.2418 1.4901 0 2.8448-1.1515 1.3773-1.1515 2.2804-2.9126 0.90312-1.7837 1.445-3.8383 0.54187-2.0772 0.54187-3.9512 0-1.2418-0.24836-2.2352-0.22578-1.016-0.76765-1.016-0.7225 0-1.6934 1.6708-0.94828 1.6482-1.2418 3.0932-1.4224-0.29351-1.4224-1.3095 0-1.2192 1.5579-2.7997t2.8448-1.5805q0.63218 0 1.0837 0.47414t0.65476 1.2869q0.22578 0.79023 0.31609 1.5805 0.09031 0.79023 0.09031 1.6482 0 2.7545-0.88054 5.1252-0.88054 2.3481-2.2352 3.8383t-2.9351 2.3255q-1.5579 0.83539-3.0255 0.83539-2.032 0-3.3867-1.5579-1.3547-1.5353-1.3547-4.1092z" style="fill:url(#linearGradient866);stroke-width:.26458"/>
   <path d="m64.42 92.98q0-0.79023 0.29351-1.1966 0.27094-0.4064 0.69992-0.58703 0.45156-0.18062 0.49672-0.22578 1.445-1.4901 2.1901-3.0932v-0.22578q0-1.6482 1.016-1.6482 0.49672 0 0.54187 0.45156 0 0.06773-0.06773 0.33867-0.04516 0.24836-0.04516 0.47414 0 0.60961 0.65476 2.461 0.65476 1.8288 0.65476 2.9126 0 0.38383-0.09031 0.9257 1.5353-0.38383 2.6642-2.5513l0.27094 0.2032q-0.9257 2.6868-3.1383 3.0255-0.36125 0.90312-1.1741 1.3547-0.81281 0.47414-1.874 0.47414-1.5805 0-2.3481-0.9257-0.74507-0.90312-0.74507-2.1675zm1.2418 0.04516q0 0.81281 0.45156 1.445 0.45156 0.60961 1.2418 0.60961 0.99343 0 1.445-0.88054-0.88054-0.18062-1.6256-0.67734-0.74507-0.51929-1.1966-1.1063-0.31609 0.06773-0.31609 0.60961zm0.65476-1.4224q0.38383 0.65476 1.0837 1.1966 0.69992 0.51929 1.5805 0.7225 0.06773-0.2032 0.06773-0.69992 0-0.47414-0.09031-1.0386-0.09031-0.58703-0.15805-0.90312-0.06773-0.33867-0.27094-1.1063-0.2032-0.79023-0.24836-0.99343-1.1063 1.9191-1.9643 2.8222z" style="fill:url(#linearGradient866);stroke-width:.26458"/>
   <path d="m72.019 94.922q1.3547-5.4413 1.445-5.78 0.06773-0.24836 0.47414-0.42898 0.42898-0.2032 0.76765-0.2032t0.54187 0.2032q0.22578 0.2032 0.22578 0.54187 0 0.36125-0.31609 1.6256 2.5287-3.4544 4.4027-3.4544 1.4224 0 1.4224 1.8966 0 0.65476-0.38383 1.8062 1.5805-2.3255 3.2738-2.3255 0.81281 0 1.1741 0.49672 0.38383 0.47414 0.38383 1.1966 0 0.63218-0.38383 1.874-0.38383 1.2192-0.38383 1.5579 0 0.60961 0.56445 0.60961 1.4224 0 3.048-3.5222l0.38383 0.47414q-0.65476 1.6934-1.6934 2.9126-1.016 1.2192-2.3481 1.2192-0.83539 0-1.2869-0.49672t-0.45156-1.2644q0-0.51929 0.31609-1.5579t0.31609-1.4224q0-0.67734-0.51929-0.67734-0.49672 0-1.1515 0.7225-0.65476 0.7225-1.7611 2.3707-0.29351 0.4064-0.7225 1.1966-0.4064 0.76765-0.51929 0.94828-0.4064 0-0.88054-0.15805t-0.47414-0.42898q0-0.15805 0.74507-2.1449 0.74507-2.0094 0.74507-2.8222 0-0.67734-0.47414-0.67734-0.9257 0-2.5513 2.0546-1.603 2.032-2.4158 4.2672-0.4064 0-0.94828-0.22578-0.56445-0.22578-0.56445-0.38383z" style="fill:url(#linearGradient866);stroke-width:.26458"/>
   <path d="m87.533 93.59q0-0.90312 0.47414-2.3707 0.47414-1.4901 1.2869-2.7319t1.603-1.2418q0.29351 0 0.47414 0.18062 0.2032 0.15805 0.2032 0.47414 0 0.29351-0.58703 1.2418-0.56445 0.9257-1.1515 2.1223-0.58703 1.1741-0.58703 2.032 0 0.69992 0.24836 0.94828t0.76765 0.24836q1.7837 0 3.5447-3.4544l0.33867 0.36125q-0.79023 1.9869-2.0094 3.0932t-2.619 1.1063q-0.94828 0-1.4676-0.56445t-0.51929-1.445zm3.5222-9.0538q0-0.51929 0.56445-0.90312 0.58703-0.4064 1.2418-0.4064 0.97085 0 0.97085 0.83539 0 0.47414-0.51929 0.9257-0.51929 0.42898-1.1289 0.42898-0.47414 0-0.81281-0.22578-0.31609-0.22578-0.31609-0.65476z" style="fill:url(#linearGradient866);stroke-width:.26458"/>
   <path d="m92.368 94.606q0-0.02258 0.4064-1.016 0.4064-0.99343 0.76765-2.2352t0.36125-2.0998q0.49672-0.54187 1.1741-0.54187 0.79023 0 0.79023 0.67734 0 0.60961-0.38383 2.0094 2.303-3.0706 4.2672-3.0706 0.90312 0 1.3998 0.63218 0.49672 0.60961 0.49672 1.4676 0 0.74507-0.45156 1.8514-0.42898 1.0837-0.42898 1.5353 0 0.65476 0.54187 0.65476 0.74507 0 1.603-1.016 0.88054-1.0386 1.5805-2.4384l0.38382 0.31609q-1.7837 4.0415-4.0415 4.0415-0.85796 0-1.3321-0.42898t-0.47414-1.1289q0-0.45156 0.31609-1.4676t0.31609-1.5127q0-0.88054-0.79023-0.88054-0.63218 0-1.3547 0.51929-0.69992 0.49672-1.4676 1.4901-0.74507 0.99343-1.1515 1.603l-1.0612 1.6934q-0.97085 0-1.4676-0.65476z" style="fill:url(#linearGradient866);stroke-width:.26458"/>
   <path d="m103.63 93.522q0-1.4901 0.85797-2.9126 0.85796-1.4224 1.8514-1.4224 0.27094 0 0.69992 0.18062 0.13547-1.0386 0.72249-1.7159 0.60961-0.67734 1.6934-0.67734 0.90312 0 1.3321 0.51929 0.42898 0.49672 0.42898 1.3095 0 1.5579-1.4902 3.8383 0.27094 0.13547 0.63218 0.13547 0.63219 0 1.3547-0.4064 0.7225-0.42898 1.1063-1.2869l0.4064 0.29351q-0.47414 1.0837-1.287 1.6482-0.79023 0.56445-1.6482 0.56445-0.51929 0-1.1289-0.2032-1.874 2.2578-3.7705 2.2578-0.94827 0-1.3547-0.60961-0.40641-0.60961-0.40641-1.5127zm1.8062-0.06773q0 1.0386 0.76765 1.0386 0.81281 0 2.1675-1.603-1.287-1.1289-1.3547-3.319-0.42898 0.22578-1.016 1.5805-0.56445 1.3321-0.56445 2.303zm2.8674-3.4996q0 0.51929 0.18062 1.1966 0.18062 0.65476 0.47414 1.016 1.3095-1.874 1.3095-3.3641 0-0.99343-0.63218-0.99343-0.47414 0-0.90312 0.63218t-0.42898 1.5127z" style="fill:url(#linearGradient866);stroke-width:.26458"/>
   <path d="m111.87 99.799q0-0.54187 0.31609-1.0837 0.31609-0.51929 0.67734-0.88054 0.36125-0.33867 1.1063-0.79023 0.76765-0.45156 1.1515-0.63218l1.287-0.63218q0.56445-1.4224 0.90312-2.8222-1.8288 2.303-3.4319 2.303-0.90312 0-1.445-0.63218-0.5193-0.63218-0.5193-1.6708 0-2.2578 2.0772-4.064t4.1769-1.8062q0.69992 0 1.0612 0.24836 0.38382 0.24836 0.38382 0.60961 0 0.22578-0.13547 0.4064-0.13546 0.18062-0.22578 0.2032-0.4064-0.4064-0.97085-0.4064-0.0226 0-0.0452 0-1.6708 0-3.0706 1.7159-1.3998 1.6934-1.3998 3.1835 0 0.9257 0.69992 0.9257 0.6096 0 1.4902-0.79023 0.90312-0.79023 1.7837-2.032 0.24836-1.2644 0.58703-1.8062 0.33867-0.56445 0.97085-0.56445 0.29351 0 0.65476 0.09031 0 0.58703-0.49671 2.3481-0.49672 1.7611-1.1966 3.6576 1.1289-0.47414 2.1675-1.4676 1.0612-1.016 1.5127-2.3255l0.4064 0.4064q-0.49672 1.4224-1.7837 2.5739-1.2644 1.1515-2.5965 1.7611-2.2352 5.4187-4.5608 5.4187-0.63218 0-1.0837-0.38382-0.45156-0.36125-0.45156-1.0612zm1.016-0.22578q0 0.63218 0.42898 0.63218 0.45156 0 1.1741-0.83538 0.72249-0.83539 1.4901-2.5287-1.4676 0.7225-2.2804 1.3547-0.81281 0.65476-0.81281 1.3773z" style="fill:url(#linearGradient866);stroke-width:.26458"/>
   <path d="m121.99 94.29q0-0.38383 0.47414-0.79023 0.49671-0.4064 0.94827-0.4064 0.74508 0 0.74508 0.69992 0 0.36125-0.33867 0.85796-0.31609 0.49672-0.83539 0.49672-0.49671 0-0.74507-0.24836-0.24836-0.27094-0.24836-0.60961z" style="fill:url(#linearGradient866);stroke-width:.26458"/>
   <path d="m126.36 93.567q0-2.1223 1.3547-5.6897 1.3547-3.5899 3.0932-6.3218 1.7385-2.7545 2.7319-2.7545 0.42898 0 0.65476 0.47414 0.24836 0.47414 0.27094 1.0837 0 1.0837-0.7225 2.7771-0.69991 1.6934-1.9417 3.3641-1.2418 1.6482-2.5739 2.4158-0.31609 0.58703-0.67734 1.9417-0.33867 1.3321-0.33867 2.5739 0 2.1901 1.1741 2.1901 0.58703 0 1.2644-0.54187 0.67734-0.51929 1.1063-1.3095-0.81281-0.45156-1.2644-1.2418-0.42898-0.81281-0.42898-1.7385 0-1.0837 0.58703-1.7611 0.58703-0.69992 1.4676-0.69992 0.76765 0 1.2192 0.58703 0.45156 0.56445 0.45156 1.6708 0 1.3998-0.67734 2.8448 0.0677 0 0.18062 0.02258 0.13547 0 0.22578 0 1.6934 0 2.9126-2.5062l0.33867 0.47414q-0.60961 1.3998-1.445 2.0772-0.8128 0.65476-2.0998 0.65476-0.31609 0-0.47414-0.02258-1.5353 2.4384-3.7705 2.4384-1.2644 0-1.9417-0.79023t-0.67734-2.2126zm3.2964-6.0735q1.3547-1.2418 2.5287-3.4544 1.1966-2.2126 1.2192-3.1158-0.49671 0.18062-1.7837 2.303-1.2644 2.0998-1.9643 4.2672zm1.5127 3.4093q0 1.445 0.97086 2.1223 0.4064-0.90312 0.4064-1.9191 0-1.5805-0.65476-1.5805-0.29352 0-0.5193 0.4064-0.2032 0.4064-0.2032 0.97085z" style="fill:url(#linearGradient866);stroke-width:.26458"/>
   <path d="m135.44 93.183q0-2.0546 1.8966-4.2221 1.9191-2.1901 3.9512-2.1901 1.6482 0 1.6482 1.5127 0 1.6256-1.7611 2.89-1.7611 1.2644-3.9286 1.4901-0.0452 0.22578-0.0452 0.51929 0 0.22578 0.0226 0.42898 0.0452 0.2032 0.18062 0.56445 0.15805 0.33867 0.54187 0.56445 0.40641 0.2032 0.99344 0.2032 1.3772 0 2.7997-1.1063 1.445-1.1289 2.3255-2.7997l0.45156 0.36125q-0.90312 2.032-2.5965 3.2738-1.6708 1.2418-3.477 1.2418-1.4224 0-2.2126-0.76765t-0.79023-1.9643zm2.0546-1.3547q1.3095-0.15805 2.7545-1.3095 1.4676-1.1515 1.4676-2.3481 0-0.42898-0.38383-0.42898-0.99343 0-2.1675 1.3095-1.1741 1.3095-1.6708 2.7771z" style="fill:url(#linearGradient866);stroke-width:.26458"/>
   <path d="m143.38 93.59q0-1.7611 1.2418-5.1478-0.58703-0.11289-0.79023-0.2032v-0.69992q0.54187 0.06773 1.0838 0.11289 1.016-2.5513 2.1675-4.3801 1.1741-1.8288 1.8966-1.8288 0.24835 0 0.42898 0.18062 0.2032 0.18062 0.2032 0.47414 0 0.4064-0.42898 1.2192-0.42898 0.79023-1.2192 2.1223t-1.2644 2.2804q2.5965 0 4.1318-0.15805v0.74507q-2.6868 0.27094-4.5382 0.27094-1.174 2.7771-1.174 4.5382 0 0.9257 0.29351 1.3095 0.29352 0.38383 0.9257 0.38383 1.1289 0 2.303-1.016 1.1966-1.0386 2.0772-2.7997l0.31609 0.22578q-0.92569 2.0998-2.3933 3.4319-1.4676 1.3095-3.048 1.3095-1.0386 0-1.6256-0.60961-0.58703-0.58703-0.58703-1.7611z" style="fill:url(#linearGradient866);stroke-width:.26458"/>
  </g>
 </g>
</svg>
