<svg width="192" height="25" viewBox="0 0 192 25" fill="none" xmlns="http://www.w3.org/2000/svg">
<path d="M23.1303 12.2111C23.1303 15.2429 22.0572 17.8314 19.9131 19.9766C17.7679 22.1217 15.1794 23.1938 12.1477 23.1938C9.11588 23.1938 6.52741 22.1217 4.38225 19.9766C2.23709 17.8314 1.16504 15.2429 1.16504 12.2111C1.16504 9.17936 2.23709 6.59088 4.38225 4.44572C6.52741 2.30056 9.11588 1.22852 12.1477 1.22852C15.1794 1.22852 17.7679 2.30163 19.9131 4.44572C22.0572 6.59088 23.1303 9.17936 23.1303 12.2111ZM22.0465 12.2111C22.0465 9.48307 21.08 7.15355 19.1458 5.22259C17.2117 3.29162 14.8789 2.3272 12.1466 2.3272C9.41426 2.3272 7.08048 3.29269 5.14739 5.22259C3.21429 7.15248 2.24668 9.48307 2.24668 12.2111C2.24668 14.9403 3.21322 17.2687 5.14739 19.1997C7.08048 21.1307 9.41426 22.0951 12.1466 22.0951C14.8789 22.0951 17.2127 21.1296 19.1458 19.1997C21.08 17.2687 22.0465 14.9392 22.0465 12.2111Z" fill="white" stroke="url(#paint0_linear)" stroke-width="2" stroke-miterlimit="10"/>
<path d="M36.6026 16.8554C36.6026 18.6074 35.9813 20.1014 34.7388 21.3386C33.4962 22.5748 32.0032 23.1929 30.2609 23.1929C29.126 23.1929 28.0667 22.9062 27.082 22.334C26.0974 21.7617 25.3216 20.9912 24.7536 20.0215C24.7014 19.9181 24.6758 19.8201 24.6758 19.7274C24.6758 19.3768 24.8665 19.2009 25.248 19.2009C25.4132 19.2009 25.5624 19.2936 25.6967 19.478C25.8 19.6421 25.9695 19.8883 26.2071 20.2165C27.2483 21.4676 28.5995 22.0931 30.2598 22.0931C31.7038 22.0931 32.941 21.5784 33.9725 20.5479C35.0041 19.5174 35.5199 18.2813 35.5199 16.8384C35.5199 15.3955 35.0041 14.1593 33.9725 13.1288C32.941 12.0984 31.707 11.5826 30.2683 11.5826C28.8297 11.5826 27.6053 11.0753 26.595 10.0598C25.5848 9.04526 25.0797 7.82615 25.0797 6.40457C25.0797 4.98299 25.5848 3.76388 26.595 2.74938C27.6053 1.73381 28.8276 1.22656 30.2609 1.22656C32.2302 1.22656 33.72 2.08228 34.7313 3.79478C34.7931 3.8875 34.824 3.98554 34.824 4.08891C34.824 4.43951 34.6333 4.61534 34.2517 4.61534C34.1175 4.61534 33.8809 4.42032 33.5399 4.03136C33.1168 3.52944 32.7247 3.16072 32.3645 2.92521C31.756 2.52559 31.0548 2.32631 30.2609 2.32631C29.126 2.32631 28.1594 2.72807 27.3602 3.53157C26.5609 4.33507 26.1613 5.29842 26.1613 6.42162C26.1613 7.54482 26.5609 8.50817 27.3602 9.31274C28.1594 10.1162 29.126 10.518 30.2609 10.518C32.0032 10.518 33.4962 11.1361 34.7388 12.3722C35.9813 13.6095 36.6026 15.1035 36.6026 16.8554Z" fill="white" stroke="url(#paint1_linear)" stroke-width="2" stroke-miterlimit="10"/>
<path d="M62.4356 22.6664C62.4356 23.017 62.2491 23.1929 61.8782 23.1929C61.599 23.1929 61.4285 23.0543 61.3667 22.7751L57.0988 3.53157L50.8338 18.1342C50.7102 18.4124 50.529 18.552 50.2924 18.552C50.0548 18.552 49.8747 18.4124 49.7511 18.1342L43.501 3.5305L39.2203 22.7751C39.1585 23.0533 38.988 23.1929 38.7088 23.1929C38.3369 23.1929 38.1504 23.0181 38.1504 22.6664C38.1504 22.6153 38.1557 22.5684 38.1664 22.5268L42.7913 1.73701C42.8627 1.39706 43.046 1.22656 43.3412 1.22656C43.565 1.22656 43.7376 1.36829 43.8602 1.65069L50.2946 16.6476L56.7311 1.64536C56.8441 1.36616 57.0189 1.22656 57.2554 1.22656C57.5432 1.22656 57.7286 1.39706 57.8106 1.73701L62.4206 22.5268C62.4302 22.5791 62.4356 22.6249 62.4356 22.6664Z" fill="white" stroke="url(#paint2_linear)" stroke-width="2" stroke-miterlimit="10"/>
<path d="M66.612 22.6504C66.612 23.0116 66.4319 23.1917 66.0707 23.1917C65.7094 23.1917 65.5293 23.0116 65.5293 22.6504V1.76889C65.5293 1.40764 65.7094 1.22754 66.0707 1.22754C66.4319 1.22754 66.612 1.40764 66.612 1.76889V22.6504Z" fill="white" stroke="url(#paint3_linear)" stroke-width="2" stroke-miterlimit="10"/>
<path d="M88.5919 22.6504C88.5919 23.0116 88.4054 23.1917 88.0335 23.1917C87.8683 23.1917 87.7074 23.1001 87.5529 22.9157L72.3503 3.34819V22.6504C72.3503 23.0116 72.1702 23.1917 71.8089 23.1917C71.4477 23.1917 71.2676 23.0116 71.2676 22.6504V1.76889C71.2676 1.40764 71.4498 1.22754 71.8164 1.22754C71.9784 1.22754 72.1361 1.32025 72.2885 1.50568L87.5092 21.0711V1.76889C87.5092 1.40764 87.6893 1.22754 88.0506 1.22754C88.4118 1.22754 88.5919 1.40764 88.5919 1.76889V22.6504Z" fill="white" stroke="url(#paint4_linear)" stroke-width="2" stroke-miterlimit="10"/>
<path d="M113.65 12.2102C113.65 15.2419 112.577 17.8304 110.433 19.9756C108.287 22.1207 105.699 23.1928 102.667 23.1928C99.6354 23.1928 97.0469 22.1207 94.9018 19.9756C92.7566 17.8304 91.6846 15.2419 91.6846 12.2102C91.6846 9.17838 92.7566 6.58991 94.9018 4.44475C97.0469 2.29959 99.6354 1.22754 102.667 1.22754C105.699 1.22754 108.287 2.30065 110.433 4.44475C112.578 6.58991 113.65 9.17838 113.65 12.2102ZM112.567 12.2102C112.567 9.48209 111.601 7.15257 109.666 5.22161C107.733 3.29065 105.4 2.32623 102.667 2.32623C99.9349 2.32623 97.6011 3.29171 95.668 5.22161C93.7349 7.15257 92.7673 9.48209 92.7673 12.2102C92.7673 14.9393 93.7338 17.2678 95.668 19.1987C97.6011 21.1297 99.9349 22.0941 102.667 22.0941C105.4 22.0941 107.733 21.1286 109.666 19.1987C111.601 17.2678 112.567 14.9382 112.567 12.2102Z" fill="white" stroke="url(#paint5_linear)" stroke-width="2" stroke-miterlimit="10"/>
<path d="M134.114 4.81577C134.114 5.18662 133.929 5.37311 133.558 5.37311C133.434 5.37311 133.305 5.31663 133.171 5.20367C130.925 3.28549 128.596 2.32534 126.186 2.32534C123.456 2.32534 121.124 3.29082 119.193 5.22072C117.261 7.15168 116.296 9.4812 116.296 12.2093C116.296 14.9384 117.262 17.2669 119.196 19.1978C121.129 21.1288 123.463 22.0932 126.195 22.0932C128.846 22.0932 131.124 21.1821 133.033 19.3598V12.2082C133.033 11.848 133.213 11.6679 133.574 11.6679C133.935 11.6679 134.115 11.848 134.115 12.2093V19.6028C134.115 19.7371 134.063 19.8607 133.961 19.9736C133.094 20.9636 131.908 21.7575 130.404 22.3554C128.991 22.9127 127.588 23.1908 126.196 23.1908C123.165 23.1908 120.576 22.1188 118.431 19.9736C116.286 17.8285 115.214 15.24 115.214 12.2082C115.214 9.17642 116.285 6.58795 118.429 4.44279C120.572 2.29763 123.158 1.22559 126.188 1.22559C129.31 1.22559 131.897 2.2987 133.947 4.44279C134.058 4.55895 134.114 4.68257 134.114 4.81577Z" fill="white" stroke="url(#paint6_linear)" stroke-width="2" stroke-miterlimit="10"/>
<path d="M150.665 16.866C150.665 18.619 150.046 20.1141 148.809 21.3513C147.571 22.5886 146.071 23.2077 144.307 23.2077L138.522 23.1917C138.161 23.1917 137.98 23.0116 137.98 22.6504V1.76889C137.98 1.40764 138.161 1.22754 138.522 1.22754H144.322C145.745 1.22754 146.965 1.73586 147.981 2.75143C148.996 3.76699 149.504 4.9861 149.504 6.40981C149.504 8.49317 148.587 10.0192 146.751 10.9879C147.926 11.4823 148.873 12.2634 149.59 13.3312C150.306 14.399 150.665 15.5766 150.665 16.866ZM148.422 6.41727C148.422 5.29514 148.02 4.33286 147.215 3.53042C146.411 2.72798 145.446 2.32623 144.323 2.32623H139.064V10.5094H144.323C145.448 10.5094 146.412 10.1087 147.215 9.30519C148.02 8.50169 148.422 7.53941 148.422 6.41727ZM149.582 16.866C149.582 15.4167 149.066 14.1774 148.035 13.149C147.003 12.1206 145.766 11.607 144.322 11.607H139.063V22.1101H144.322C145.776 22.1101 147.016 21.5964 148.042 20.5681C149.069 19.5387 149.582 18.3057 149.582 16.866Z" fill="white" stroke="url(#paint7_linear)" stroke-width="2" stroke-miterlimit="10"/>
<path d="M174.177 12.2102C174.177 15.2419 173.104 17.8304 170.96 19.9756C168.815 22.1207 166.226 23.1928 163.195 23.1928C160.163 23.1928 157.574 22.1207 155.429 19.9756C153.284 17.8304 152.212 15.2419 152.212 12.2102C152.212 9.17838 153.284 6.58991 155.429 4.44475C157.574 2.29959 160.163 1.22754 163.195 1.22754C166.226 1.22754 168.815 2.30065 170.96 4.44475C173.104 6.58991 174.177 9.17838 174.177 12.2102ZM173.094 12.2102C173.094 9.48209 172.128 7.15257 170.194 5.22161C168.261 3.29065 165.927 2.32623 163.195 2.32623C160.462 2.32623 158.128 3.29171 156.195 5.22161C154.262 7.15257 153.295 9.48209 153.295 12.2102C153.295 14.9393 154.261 17.2678 156.195 19.1987C158.128 21.1297 160.462 22.0941 163.195 22.0941C165.927 22.0941 168.261 21.1286 170.194 19.1987C172.128 17.2678 173.094 14.9382 173.094 12.2102Z" fill="white" stroke="url(#paint8_linear)" stroke-width="2" stroke-miterlimit="10"/>
<path d="M190.728 1.77635C190.728 2.14293 190.548 2.32516 190.187 2.32516H183.767V22.6504C183.767 23.0106 183.587 23.1917 183.226 23.1917C182.865 23.1917 182.684 23.0116 182.684 22.6504V2.32516H176.265C175.904 2.32516 175.724 2.14187 175.724 1.77635C175.724 1.41083 175.904 1.22754 176.265 1.22754H190.187C190.548 1.22754 190.728 1.41083 190.728 1.77635Z" fill="white" stroke="url(#paint9_linear)" stroke-width="2" stroke-miterlimit="10"/>
<defs>
<linearGradient id="paint0_linear" x1="12.1474" y1="0.162596" x2="12.1474" y2="24.2589" gradientUnits="userSpaceOnUse">
<stop stop-color="#65C8D0"/>
<stop offset="0.6159" stop-color="#838BC5"/>
<stop offset="1" stop-color="#BA9BC9"/>
</linearGradient>
<linearGradient id="paint1_linear" x1="30.6399" y1="0.161708" x2="30.6399" y2="24.258" gradientUnits="userSpaceOnUse">
<stop stop-color="#65C8D0"/>
<stop offset="0.6159" stop-color="#838BC5"/>
<stop offset="1" stop-color="#BA9BC9"/>
</linearGradient>
<linearGradient id="paint2_linear" x1="50.2926" y1="0.0697638" x2="50.2926" y2="24.258" gradientUnits="userSpaceOnUse">
<stop stop-color="#65C8D0"/>
<stop offset="0.6159" stop-color="#838BC5"/>
<stop offset="1" stop-color="#BA9BC9"/>
</linearGradient>
<linearGradient id="paint3_linear" x1="66.0703" y1="0.161619" x2="66.0703" y2="24.2579" gradientUnits="userSpaceOnUse">
<stop stop-color="#65C8D0"/>
<stop offset="0.6159" stop-color="#838BC5"/>
<stop offset="1" stop-color="#BA9BC9"/>
</linearGradient>
<linearGradient id="paint4_linear" x1="79.9293" y1="0.161619" x2="79.9293" y2="24.2579" gradientUnits="userSpaceOnUse">
<stop stop-color="#65C8D0"/>
<stop offset="0.6159" stop-color="#838BC5"/>
<stop offset="1" stop-color="#BA9BC9"/>
</linearGradient>
<linearGradient id="paint5_linear" x1="102.668" y1="0.161619" x2="102.668" y2="24.2579" gradientUnits="userSpaceOnUse">
<stop stop-color="#65C8D0"/>
<stop offset="0.6159" stop-color="#838BC5"/>
<stop offset="1" stop-color="#BA9BC9"/>
</linearGradient>
<linearGradient id="paint6_linear" x1="124.663" y1="0.161797" x2="124.663" y2="24.2581" gradientUnits="userSpaceOnUse">
<stop stop-color="#65C8D0"/>
<stop offset="0.6159" stop-color="#838BC5"/>
<stop offset="1" stop-color="#BA9BC9"/>
</linearGradient>
<linearGradient id="paint7_linear" x1="144.323" y1="0.161619" x2="144.323" y2="24.2734" gradientUnits="userSpaceOnUse">
<stop stop-color="#65C8D0"/>
<stop offset="0.6159" stop-color="#838BC5"/>
<stop offset="1" stop-color="#BA9BC9"/>
</linearGradient>
<linearGradient id="paint8_linear" x1="163.195" y1="0.161619" x2="163.195" y2="24.2579" gradientUnits="userSpaceOnUse">
<stop stop-color="#65C8D0"/>
<stop offset="0.6159" stop-color="#838BC5"/>
<stop offset="1" stop-color="#BA9BC9"/>
</linearGradient>
<linearGradient id="paint9_linear" x1="183.226" y1="0.161619" x2="183.226" y2="24.2579" gradientUnits="userSpaceOnUse">
<stop stop-color="#65C8D0"/>
<stop offset="0.6159" stop-color="#838BC5"/>
<stop offset="1" stop-color="#BA9BC9"/>
</linearGradient>
</defs>
</svg>
