<svg width="542" height="542" viewBox="0 0 542 542" fill="none" opacity="0.05" xmlns="http://www.w3.org/2000/svg">
<path d="M376.525 292.06C376.525 292.06 355.465 293.397 347.475 300.132C344.023 303.053 345.453 301.271 345.453 301.271" stroke="#56B6ED" stroke-width="8" stroke-miterlimit="10"/>
<path d="M296.083 305.282L344.171 331.082C344.171 331.082 354.726 332.518 356.797 328.358C358.869 324.199 361.878 318.603 356.797 313.651C351.717 308.699 309.054 273.34 270.436 259.821C265.257 258.038 258.747 259.821 258.747 259.821C258.747 259.821 243.556 284.186 223.334 281.561C214.9 280.471 218.648 271.161 227.427 259.029C236.207 246.896 242.372 238.725 242.372 238.725C242.372 238.725 261.706 230.802 299.437 233.129C307.279 233.624 325.182 241.944 338.351 237.834C344.714 235.853 344.714 235.853 344.714 235.853L379.584 293.644" stroke="#56B6ED" stroke-width="8" stroke-miterlimit="10"/>
<path d="M341.113 330.389C341.113 330.389 343.234 351.535 325.182 344.899C307.131 338.263 283.802 323.456 283.802 323.456" stroke="#56B6ED" stroke-width="8" stroke-miterlimit="10"/>
<path d="M322.272 345.097C322.272 345.097 324.59 367.926 308.462 362.429C292.334 356.932 271.175 346.137 271.175 346.137" stroke="#56B6ED" stroke-width="8" stroke-miterlimit="10"/>
<path d="M308.462 362.479C308.462 362.479 281.976 381.595 259.091 368.125" stroke="#56B6ED" stroke-width="8" stroke-miterlimit="10"/>
<path d="M181.755 333.658C186.687 337.322 193.642 336.282 197.292 331.33L202.717 323.951C206.367 318.999 205.331 312.017 200.399 308.352C195.467 304.688 188.512 305.728 184.863 310.68L179.437 318.058C175.787 323.011 176.823 329.993 181.755 333.658Z" stroke="#56B6ED" stroke-width="8" stroke-miterlimit="10"/>
<path d="M215.442 364.064C220.374 367.728 227.328 366.688 230.978 361.736L245.676 341.73C249.326 336.778 248.29 329.795 243.358 326.131C238.426 322.466 231.471 323.506 227.821 328.458L213.124 348.465C209.474 353.417 210.51 360.399 215.442 364.064Z" stroke="#56B6ED" stroke-width="8" stroke-miterlimit="10"/>
<path d="M197.489 351.386C202.421 355.051 209.375 354.011 213.025 349.058L224.221 333.806C227.871 328.854 226.835 321.871 221.903 318.207C216.971 314.542 210.016 315.582 206.367 320.534L195.171 335.787C191.521 340.739 192.557 347.721 197.489 351.386Z" stroke="#56B6ED" stroke-width="8" stroke-miterlimit="10"/>
<path d="M238.771 375.107C243.703 378.772 250.657 377.732 254.307 372.78L263.086 360.845C266.736 355.893 265.7 348.91 260.768 345.246C255.836 341.581 248.882 342.621 245.232 347.573L236.453 359.508C232.803 364.46 233.839 371.443 238.771 375.107Z" stroke="#56B6ED" stroke-width="8" stroke-miterlimit="10"/>
<path d="M161.139 292.406L182.051 314.493" stroke="#56B6ED" stroke-width="8" stroke-miterlimit="10"/>
<path d="M199.511 234.862C199.511 234.862 213.765 247.589 236.403 246.698" stroke="#56B6ED" stroke-width="8" stroke-miterlimit="10"/>
<path d="M413.171 299.588L401.63 306.818C396.55 309.987 389.842 308.452 386.686 303.351L342.494 232.14C339.337 227.039 340.866 220.304 345.946 217.135L357.487 209.905C362.567 206.735 369.275 208.27 372.432 213.371L416.624 284.583C419.83 289.683 418.251 296.418 413.171 299.588Z" stroke="#56B6ED" stroke-width="8" stroke-miterlimit="10"/>
<path d="M142.052 298.894L132.089 291.515C127.255 287.949 126.219 281.115 129.82 276.262L179.881 208.121C183.432 203.268 190.239 202.228 195.072 205.843L205.035 213.222C209.869 216.787 210.904 223.621 207.304 228.474L157.243 296.616C153.691 301.469 146.885 302.509 142.052 298.894Z" stroke="#56B6ED" stroke-width="8" stroke-miterlimit="10"/>
<circle cx="273" cy="271" r="179.5" stroke="#56B6ED" stroke-width="15"/>
<path d="M272 541.6H270.4C266.3 541.6 262.9 538.2 262.9 534.1C262.9 530 266.3 526.6 270.4 526.6H271.9C276 526.6 279.4 530 279.4 534.1C279.4 538.2 276.1 541.6 272 541.6ZM299.9 540.1C296.1 540.1 292.9 537.2 292.5 533.4C292.1 529.3 295 525.6 299.2 525.2L300.1 525.1C304.2 524.6 307.9 527.6 308.4 531.7C308.9 535.8 305.9 539.5 301.8 540L300.8 540.1C300.4 540.1 300.1 540.1 299.9 540.1ZM242.5 540C242.2 540 242 540 241.7 540L240.7 539.9C236.6 539.4 233.6 535.7 234.1 531.6C234.6 527.5 238.3 524.5 242.4 525L243.4 525.1C247.5 525.5 250.5 529.3 250 533.4C249.5 537.2 246.3 540 242.5 540ZM328.5 535.4C325.1 535.4 322 533 321.2 529.5C320.3 525.5 322.9 521.5 326.9 520.6L327.9 520.4C331.9 519.5 336 522 336.9 526.1C337.8 530.1 335.3 534.2 331.2 535.1L330.2 535.3C329.5 535.3 329 535.4 328.5 535.4ZM213.9 535.3C213.4 535.3 212.8 535.2 212.3 535.1L211.3 534.9C207.3 534 204.7 530 205.7 525.9C206.6 521.9 210.6 519.3 214.7 520.3L215.6 520.5C219.6 521.4 222.2 525.4 221.3 529.4C220.4 532.9 217.3 535.3 213.9 535.3ZM356.4 527.6C353.3 527.6 350.4 525.6 349.3 522.5C348 518.6 350.1 514.3 354 513L354.9 512.7C358.8 511.4 363.1 513.4 364.4 517.4C365.7 521.3 363.7 525.6 359.7 526.9L358.7 527.2C358 527.4 357.2 527.6 356.4 527.6ZM186 527.4C185.2 527.4 184.4 527.3 183.6 527L182.6 526.7C178.7 525.3 176.6 521.1 178 517.1C179.4 513.2 183.6 511.1 187.6 512.5L188.5 512.8C192.4 514.1 194.5 518.4 193.2 522.3C192 525.5 189.1 527.4 186 527.4ZM383.2 516.7C380.4 516.7 377.7 515.1 376.4 512.4C374.6 508.6 376.3 504.2 380 502.4L380.9 502C384.6 500.2 389.1 501.8 390.9 505.6C392.7 509.3 391.1 513.8 387.3 515.6L386.4 516C385.4 516.5 384.3 516.7 383.2 516.7ZM159.2 516.5C158.1 516.5 157 516.3 156 515.8L155.1 515.3C151.4 513.5 149.8 509 151.6 505.3C153.4 501.6 157.9 500 161.6 501.8L162.5 502.2C166.2 504 167.9 508.4 166.1 512.2C164.7 514.9 162 516.5 159.2 516.5ZM408.7 503C406.2 503 403.7 501.7 402.3 499.4C400.1 495.9 401.2 491.3 404.8 489.1L405.6 488.6C409.1 486.4 413.7 487.5 415.9 491C418.1 494.5 417 499.1 413.5 501.3L412.6 501.8C411.4 502.6 410 503 408.7 503ZM133.7 502.7C132.4 502.7 131 502.3 129.8 501.6L128.9 501C125.4 498.8 124.3 494.2 126.5 490.7C128.7 487.2 133.3 486.1 136.8 488.3L137.6 488.8C141.1 491 142.2 495.6 140.1 499.1C138.7 501.4 136.2 502.7 133.7 502.7ZM432.5 486.5C430.3 486.5 428.1 485.5 426.6 483.6C424.1 480.3 424.6 475.6 427.9 473.1L428.7 472.5C432 469.9 436.7 470.5 439.2 473.8C441.8 477.1 441.2 481.8 437.9 484.3L437.1 484.9C435.8 486 434.1 486.5 432.5 486.5ZM109.9 486.2C108.3 486.2 106.7 485.7 105.3 484.6L104.5 484C101.2 481.4 100.7 476.7 103.3 473.5C105.9 470.2 110.6 469.7 113.8 472.3L114.6 472.9C117.9 475.4 118.5 480.2 115.9 483.4C114.3 485.2 112.1 486.2 109.9 486.2ZM454.4 467.5C452.4 467.5 450.5 466.7 449 465.2C446.1 462.2 446.2 457.5 449.2 454.6L449.9 453.9C452.9 451 457.6 451.1 460.5 454C463.4 456.9 463.3 461.7 460.4 464.6L459.7 465.3C458.2 466.8 456.3 467.5 454.4 467.5ZM88.1003 467.1C86.2003 467.1 84.3003 466.4 82.9003 465L82.2003 464.3C79.2003 461.4 79.2003 456.6 82.1003 453.7C85.0003 450.7 89.7003 450.7 92.7003 453.6L93.4003 454.3C96.4003 457.2 96.4003 461.9 93.5003 464.9C92.0003 466.4 90.0003 467.1 88.1003 467.1ZM474.1 446.2C472.4 446.2 470.7 445.6 469.3 444.5C466.1 441.9 465.7 437.1 468.3 433.9L468.9 433.2C471.5 430 476.3 429.5 479.5 432.2C482.7 434.8 483.2 439.6 480.5 442.8L479.8 443.6C478.3 445.3 476.2 446.2 474.1 446.2ZM68.4003 445.8C66.2003 445.8 64.1003 444.9 62.6003 443.1L61.9003 442.3C59.3003 439.1 59.8003 434.4 63.0003 431.7C66.2003 429.1 70.9003 429.6 73.6003 432.8L74.2003 433.5C76.8003 436.7 76.4003 441.4 73.2003 444.1C71.8003 445.3 70.1003 445.8 68.4003 445.8ZM491.3 422.9C489.9 422.9 488.5 422.5 487.2 421.7C483.7 419.4 482.8 414.8 485.1 411.3L485.6 410.5C487.9 407 492.5 406.1 496 408.3C499.5 410.6 500.4 415.2 498.2 418.7L497.6 419.6C496.1 421.7 493.7 422.9 491.3 422.9ZM51.3003 422.5C48.9003 422.5 46.5003 421.3 45.0003 419.1L44.4003 418.3C42.1003 414.8 43.1003 410.2 46.6003 407.9C50.1003 405.6 54.7003 406.6 57.0003 410.1L57.5003 410.9C59.8003 414.4 58.8003 419 55.3003 421.3C54.1003 422.1 52.7003 422.5 51.3003 422.5ZM505.8 397.9C504.7 397.9 503.5 397.6 502.4 397.1C498.7 395.2 497.2 390.7 499.1 387L499.5 386.1C501.4 382.4 505.9 380.9 509.6 382.8C513.3 384.7 514.8 389.2 512.9 392.9L512.4 393.8C511.2 396.4 508.6 397.9 505.8 397.9ZM36.7003 397.5C34.0003 397.5 31.3003 396 30.0003 393.4L29.5003 392.5C27.6003 388.8 29.1003 384.3 32.8003 382.4C36.5003 380.5 41.0003 382 42.9003 385.7L43.3003 386.6C45.2003 390.3 43.7003 394.8 40.0003 396.7C39.1003 397.2 37.9003 397.5 36.7003 397.5ZM517.6 371.4C516.7 371.4 515.8 371.2 514.9 370.9C511 369.4 509.1 365.1 510.6 361.2L510.9 360.3C512.3 356.4 516.7 354.4 520.5 355.9C524.4 357.3 526.4 361.7 524.9 365.5L524.5 366.5C523.4 369.5 520.6 371.4 517.6 371.4ZM25.1003 370.9C22.1003 370.9 19.2003 369 18.1003 366L17.7003 365C16.3003 361.1 18.2003 356.8 22.1003 355.4C26.0003 354 30.3003 355.9 31.7003 359.8L32.0003 360.7C33.5003 364.6 31.5003 368.9 27.6003 370.4C26.9003 370.8 26.0003 370.9 25.1003 370.9ZM526.3 343.7C525.7 343.7 525.1 343.6 524.4 343.5C520.4 342.5 518 338.4 519 334.4L519.2 333.5C520.2 329.5 524.3 327 528.3 328C532.3 329 534.8 333.1 533.8 337.1L533.5 338.1C532.7 341.5 529.6 343.7 526.3 343.7ZM16.4003 343.3C13.0003 343.3 10.0003 341 9.10026 337.6L8.90026 336.6C7.90026 332.6 10.3003 328.5 14.4003 327.5C18.4003 326.5 22.5003 328.9 23.5003 333L23.7003 333.9C24.7003 337.9 22.3003 342 18.3003 343C17.7003 343.2 17.0003 343.3 16.4003 343.3ZM531.8 315.3C531.5 315.3 531.1 315.3 530.8 315.2C526.7 314.6 523.8 310.8 524.4 306.7L524.5 305.7C525.1 301.6 528.8 298.7 532.9 299.3C537 299.9 539.9 303.6 539.3 307.7L539.2 308.7C538.7 312.6 535.5 315.3 531.8 315.3ZM10.9003 314.9C7.20026 314.9 4.00026 312.2 3.50026 308.4L3.40026 307.4C2.90026 303.3 5.70026 299.5 9.80026 299C13.9003 298.4 17.7003 301.3 18.2003 305.4L18.3003 306.4C18.9003 310.5 16.0003 314.3 11.9003 314.9C11.6003 314.8 11.2003 314.9 10.9003 314.9ZM534.3 286.4C534.2 286.4 534.2 286.4 534.1 286.4C530 286.3 526.7 282.8 526.8 278.7V277.7C526.9 273.6 530.2 270.4 534.3 270.4C534.4 270.4 534.4 270.4 534.5 270.4C538.6 270.5 541.9 273.9 541.8 278.1V279.1C541.6 283.2 538.3 286.4 534.3 286.4ZM8.50026 286C4.50026 286 1.10026 282.8 1.00026 278.7V277.7C0.900261 273.6 4.20026 270.1 8.30026 270C12.4003 269.9 15.9003 273.2 16.0003 277.3V278.3C16.1003 282.4 12.9003 285.9 8.70026 286C8.70026 286 8.60026 286 8.50026 286ZM533.5 257.5C529.6 257.5 526.3 254.5 526 250.6L525.9 249.6C525.6 245.5 528.6 241.8 532.7 241.5C536.8 241.2 540.5 244.2 540.8 248.3L540.9 249.3C541.2 253.4 538.1 257 534 257.4C533.9 257.5 533.7 257.5 533.5 257.5ZM9.30026 257.1C9.10026 257.1 8.90026 257.1 8.70026 257.1C4.60026 256.8 1.50026 253.1 1.80026 249L1.90026 248C2.30026 243.9 5.90026 240.8 10.0003 241.2C14.1003 241.6 17.2003 245.2 16.8003 249.3L16.7003 250.3C16.5003 254.1 13.2003 257.1 9.30026 257.1ZM529.7 228.8C526.2 228.8 523 226.3 522.3 222.7L522.1 221.8C521.3 217.7 524 213.8 528 213C532.1 212.2 536 214.9 536.8 218.9L537 219.9C537.8 224 535.1 227.9 531 228.7C530.6 228.7 530.1 228.8 529.7 228.8ZM13.2003 228.4C12.7003 228.4 12.2003 228.4 11.8003 228.3C7.70026 227.5 5.10026 223.6 5.90026 219.5L6.10026 218.5C6.90026 214.4 10.8003 211.8 14.9003 212.6C19.0003 213.4 21.6003 217.3 20.8003 221.4L20.6003 222.4C19.9003 225.9 16.7003 228.4 13.2003 228.4ZM522.6 200.7C519.4 200.7 516.4 198.6 515.4 195.4L515.1 194.5C513.9 190.5 516.1 186.3 520 185.1C523.9 183.9 528.2 186.1 529.4 190L529.7 191C530.9 195 528.7 199.2 524.8 200.4C524.1 200.6 523.4 200.7 522.6 200.7ZM20.3003 200.3C19.6003 200.3 18.8003 200.2 18.1003 200C14.1003 198.8 11.9003 194.6 13.2003 190.6L13.5003 189.6C14.7003 185.7 19.0003 183.5 22.9003 184.7C26.8003 185.9 29.0003 190.2 27.8003 194.1L27.5003 195C26.5003 198.2 23.5003 200.3 20.3003 200.3ZM512.5 173.5C509.6 173.5 506.9 171.8 505.6 169L505.2 168.1C503.5 164.3 505.2 159.9 509 158.2C512.8 156.5 517.2 158.2 518.9 162L519.3 162.9C521 166.7 519.2 171.1 515.4 172.8C514.6 173.3 513.5 173.5 512.5 173.5ZM30.4003 173.1C29.4003 173.1 28.4003 172.9 27.4003 172.5C23.6003 170.8 21.9003 166.4 23.5003 162.6L23.9003 161.7C25.6003 157.9 30.0003 156.2 33.8003 157.9C37.6003 159.6 39.3003 164 37.6003 167.8L37.2003 168.7C36.1003 171.4 33.3003 173.1 30.4003 173.1ZM499.5 147.7C496.9 147.7 494.4 146.4 493 143.9L492.5 143.1C490.4 139.5 491.6 134.9 495.2 132.8C498.8 130.7 503.4 131.9 505.5 135.5L506 136.4C508.1 140 506.8 144.6 503.2 146.6C502.1 147.4 500.8 147.7 499.5 147.7ZM43.5003 147.3C42.2003 147.3 40.9003 147 39.8003 146.3C36.2003 144.2 35.0003 139.6 37.1003 136.1L37.6003 135.2C39.7003 131.6 44.3003 130.4 47.9003 132.5C51.5003 134.6 52.7003 139.2 50.6003 142.8L50.1003 143.6C48.6003 145.9 46.1003 147.3 43.5003 147.3ZM483.7 123.4C481.4 123.4 479.1 122.3 477.6 120.3L477 119.5C474.5 116.2 475.2 111.5 478.6 109C481.9 106.5 486.6 107.2 489.1 110.6L489.7 111.4C492.1 114.7 491.4 119.4 488.1 121.9C486.8 122.9 485.2 123.4 483.7 123.4ZM59.4003 123C57.9003 123 56.3003 122.5 55.0003 121.5C51.7003 119 51.0003 114.3 53.4003 111L54.0003 110.2C56.5003 106.9 61.2003 106.2 64.5003 108.6C67.8003 111.1 68.5003 115.8 66.1003 119.1L65.5003 119.9C64.0003 122 61.7003 123 59.4003 123ZM465.3 101C463.3 101 461.2 100.2 459.8 98.6001L459.2 97.9001C456.4 94.9001 456.6 90.1001 459.6 87.3001C462.6 84.5001 467.4 84.7001 470.2 87.7001L470.9 88.5001C473.7 91.6001 473.5 96.3001 470.4 99.1001C469 100.4 467.1 101 465.3 101ZM77.8003 100.6C76.0003 100.6 74.2003 99.9001 72.7003 98.6001C69.7003 95.8001 69.5003 91.1001 72.3003 88.0001L73.0003 87.2001C75.8003 84.2001 80.6003 84.0001 83.6003 86.8001C86.6003 89.6001 86.8003 94.4001 84.0003 97.4001L83.3003 98.1001C81.8003 99.8001 79.8003 100.6 77.8003 100.6ZM444.6 80.8001C442.8 80.8001 441.1 80.2001 439.7 78.9001L439 78.3001C435.9 75.6001 435.5 70.8001 438.3 67.7001C441 64.6001 445.8 64.2001 448.9 67.0001L449.7 67.7001C452.8 70.4001 453.1 75.2001 450.4 78.3001C448.8 79.9001 446.7 80.8001 444.6 80.8001ZM98.6003 80.4001C96.5003 80.4001 94.4003 79.5001 92.9003 77.8001C90.2003 74.7001 90.5003 69.9001 93.6003 67.2001L94.4003 66.5001C97.5003 63.8001 102.3 64.1001 105 67.3001C107.7 70.4001 107.4 75.2001 104.2 77.9001L103.5 78.5001C102.1 79.8001 100.3 80.4001 98.6003 80.4001ZM421.8 62.9001C420.3 62.9001 418.8 62.5001 417.5 61.5001L416.7 60.9001C413.3 58.5001 412.4 53.9001 414.8 50.5001C417.2 47.1001 421.8 46.2001 425.2 48.6001L426 49.2001C429.4 51.6001 430.2 56.2001 427.9 59.6001C426.5 61.8001 424.2 62.9001 421.8 62.9001ZM121.4 62.6001C119 62.6001 116.7 61.5001 115.2 59.4001C112.8 56.0001 113.7 51.3001 117.1 49.0001L117.9 48.4001C121.3 46.0001 126 46.9001 128.3 50.3001C130.6 53.7001 129.8 58.4001 126.4 60.7001L125.6 61.3001C124.4 62.2001 122.9 62.6001 121.4 62.6001ZM397.2 47.6001C396 47.6001 394.8 47.3001 393.6 46.7001L392.8 46.2001C389.2 44.2001 387.8 39.7001 389.8 36.0001C391.8 32.4001 396.3 31.0001 400 33.0001L400.9 33.5001C404.5 35.5001 405.9 40.0001 403.9 43.7001C402.4 46.2001 399.8 47.6001 397.2 47.6001ZM146 47.4001C143.3 47.4001 140.8 46.0001 139.4 43.5001C137.4 39.9001 138.8 35.3001 142.4 33.3001L143.3 32.8001C146.9 30.8001 151.5 32.2001 153.5 35.9001C155.5 39.5001 154.1 44.1001 150.4 46.1001L149.6 46.6001C148.5 47.1001 147.2 47.4001 146 47.4001ZM371 35.2001C370 35.2001 369.1 35.0001 368.1 34.6001L367.2 34.2001C363.4 32.6001 361.5 28.3001 363.1 24.4001C364.7 20.6001 369 18.7001 372.9 20.3001L373.9 20.7001C377.7 22.3001 379.6 26.7001 378 30.5001C376.8 33.4001 374 35.2001 371 35.2001ZM172.2 35.0001C169.2 35.0001 166.4 33.2001 165.3 30.3001C163.7 26.5001 165.6 22.1001 169.4 20.5001L170.3 20.1001C174.1 18.5001 178.5 20.4001 180.1 24.2001C181.7 28.0001 179.8 32.4001 176 34.0001L175.1 34.4001C174.1 34.8001 173.1 35.0001 172.2 35.0001ZM343.6 25.7001C342.9 25.7001 342.2 25.6001 341.5 25.4001L340.6 25.1001C336.6 24.0001 334.3 19.8001 335.4 15.8001C336.5 11.8001 340.7 9.5001 344.7 10.6001L345.7 10.9001C349.7 12.0001 352 16.2001 350.9 20.2001C349.9 23.5001 346.9 25.7001 343.6 25.7001ZM199.6 25.6001C196.3 25.6001 193.3 23.4001 192.4 20.1001C191.3 16.1001 193.6 12.0001 197.6 10.8001L198.6 10.5001C202.6 9.4001 206.7 11.7001 207.8 15.7001C208.9 19.7001 206.6 23.8001 202.6 24.9001L201.7 25.2001C200.9 25.5001 200.3 25.6001 199.6 25.6001ZM315.4 19.3001C315 19.3001 314.6 19.3001 314.1 19.2001L313.1 19.0001C309 18.3001 306.2 14.5001 306.9 10.4001C307.6 6.3001 311.4 3.6001 315.5 4.2001L316.5 4.4001C320.6 5.1001 323.3 9.0001 322.7 13.0001C322.2 16.7001 319 19.3001 315.4 19.3001ZM227.8 19.2001C224.2 19.2001 221 16.6001 220.4 12.9001C219.7 8.8001 222.5 5.0001 226.6 4.3001L227.6 4.1001C231.7 3.4001 235.5 6.2001 236.2 10.3001C236.9 14.4001 234.1 18.2001 230 18.9001L229 19.1001C228.7 19.2001 228.3 19.2001 227.8 19.2001ZM286.6 16.1001C286.5 16.1001 286.3 16.1001 286.2 16.1001L285.2 16.0001C281.1 15.8001 277.9 12.3001 278.1 8.1001C278.3 4.0001 281.8 0.800099 286 1.0001L287 1.1001C291.1 1.3001 294.3 4.9001 294.1 9.0001C293.9 13.0001 290.6 16.1001 286.6 16.1001ZM256.6 16.1001C252.6 16.1001 249.3 13.0001 249.1 9.0001C248.9 4.9001 252 1.3001 256.2 1.1001L257.2 1.0001C261.3 0.800099 264.9 4.0001 265.1 8.1001C265.3 12.2001 262.1 15.8001 258 16.0001L257 16.1001C256.9 16.0001 256.8 16.1001 256.6 16.1001Z" fill="#56B6ED"/>
</svg>
