<?xml version="1.0" encoding="UTF-8"?>
<svg width="183px" height="19px" viewBox="0 0 183 19" version="1.1" xmlns="http://www.w3.org/2000/svg" xmlns:xlink="http://www.w3.org/1999/xlink">
    <!-- Generator: Sketch 48.2 (47327) - http://www.bohemiancoding.com/sketch -->
    <title>betwinner-logo</title>
    <desc>Created with Sketch.</desc>
    <defs></defs>
    <g id="betwinner-logo-export" stroke="none" stroke-width="1" fill="none" fill-rule="evenodd" transform="translate(-213.000000, -267.000000)">
        <g id="2-var" transform="translate(121.000000, 70.000000)">
            <g id="betwinner-logo" transform="translate(92.000000, 197.000000)">
                <path d="M17.253,9.28 C18.063004,9.6400018 18.6884978,10.1304969 19.1295,10.7515 C19.5705022,11.3725031 19.791,12.1149957 19.791,12.979 C19.791,14.97701 18.9675082,16.479995 17.3205,17.488 C15.6734918,18.496005 13.554013,19 10.962,19 L0.054,19 L3.834,0.1 L13.851,0.1 C16.0650111,0.1 17.7479942,0.491496085 18.9,1.2745 C20.0520058,2.05750392 20.628,3.1689928 20.628,4.609 C20.628,5.67100531 20.331003,6.602496 19.737,7.4035 C19.142997,8.20450401 18.3150053,8.82999775 17.253,9.28 Z M9.207,4.555 L8.64,7.363 L11.88,7.363 C13.284007,7.363 13.986,6.81400549 13.986,5.716 C13.986,5.33799811 13.8420014,5.05000099 13.554,4.852 C13.2659986,4.65399901 12.8520027,4.555 12.312,4.555 L9.207,4.555 Z M11.313,14.545 C11.9610032,14.545 12.482998,14.3965015 12.879,14.0995 C13.275002,13.8024985 13.473,13.3750028 13.473,12.817 C13.473,12.420998 13.3245015,12.1150011 13.0275,11.899 C12.7304985,11.6829989 12.3570023,11.575 11.907,11.575 L7.803,11.575 L7.209,14.545 L11.313,14.545 Z M29.997,4.906 L29.565,7.12 L37.557,7.12 L36.639,11.71 L28.62,11.71 L28.134,14.194 L37.611,14.194 L36.639,19 L20.925,19 L24.705,0.1 L40.068,0.1 L39.096,4.906 L29.997,4.906 Z M45.981,5.041 L40.446,5.041 L41.445,0.1 L58.887,0.1 L57.888,5.041 L52.353,5.041 L49.572,19 L43.2,19 L45.981,5.041 Z" id="BET" fill="#FFCE06"></path>
                <path d="M93.587,0.1 L83.759,19 L76.928,19 L75.848,9.037 L70.664,19 L63.833,19 L61.565,0.1 L67.856,0.1 L69.071,10.873 L74.687,0.1 L80.546,0.1 L81.626,11.035 L87.323,0.1 L93.587,0.1 Z M95.396,0.1 L101.768,0.1 L97.988,19 L91.616,19 L95.396,0.1 Z M123.476,0.1 L119.696,19 L114.458,19 L109.031,10.198 L107.276,19 L101.066,19 L104.846,0.1 L110.084,0.1 L115.511,8.902 L117.266,0.1 L123.476,0.1 Z M145.184,0.1 L141.404,19 L136.166,19 L130.739,10.198 L128.984,19 L122.774,19 L126.554,0.1 L131.792,0.1 L137.219,8.902 L138.974,0.1 L145.184,0.1 Z M153.554,4.906 L153.122,7.12 L161.114,7.12 L160.196,11.71 L152.177,11.71 L151.691,14.194 L161.168,14.194 L160.196,19 L144.482,19 L148.262,0.1 L163.625,0.1 L162.653,4.906 L153.554,4.906 Z M182.768,6.31 C182.768,7.98400837 182.322504,9.44649375 181.4315,10.6975 C180.540496,11.9485063 179.285008,12.8799969 177.665,13.492 L180.824,19 L174.209,19 L171.536,14.248 L169.97,14.248 L169.025,19 L162.653,19 L166.433,0.1 L174.911,0.1 C177.395012,0.1 179.325493,0.644494555 180.7025,1.7335 C182.079507,2.82250545 182.768,4.34799019 182.768,6.31 Z M176.315,6.931 C176.315,5.65299361 175.523008,5.014 173.939,5.014 L171.806,5.014 L170.915,9.442 L173.534,9.442 C174.416004,9.442 175.099998,9.22150221 175.586,8.7805 C176.072002,8.3394978 176.315,7.72300396 176.315,6.931 Z" id="WINNER" fill="#FFFFFF"></path>
            </g>
        </g>
    </g>
</svg>