<svg xmlns="http://www.w3.org/2000/svg" width="191" height="40" viewBox="0 0 191 40">
    <g fill="none" fill-rule="evenodd">
        <path fill="#FFD000" d="M113.912 17.168c2.124 1.26 3.168 3.132 3.168 5.652 0 2.232-.756 4.032-2.304 5.364-1.548 1.332-3.6 2.016-6.156 2.016H98V5h9.936c5.04 0 8.316 2.736 8.316 7.164 0 2.124-.792 3.78-2.34 5.004zm-6.156-6.408h-3.312v3.96h3.312c1.152 0 2.052-.72 2.052-1.98 0-1.188-.864-1.98-2.052-1.98zm-3.312 13.68h3.996c1.296 0 2.196-.864 2.196-2.124 0-1.296-.9-2.124-2.196-2.124h-3.996v4.248zm24.663 6.264c-2.664 0-4.932-.9-6.804-2.736-1.872-1.836-2.808-4.104-2.808-6.768 0-2.664.936-4.896 2.808-6.732 1.872-1.836 4.14-2.772 6.804-2.772 2.7 0 4.968.936 6.804 2.772 1.872 1.836 2.808 4.068 2.808 6.732 0 2.664-.936 4.932-2.808 6.768-1.836 1.836-4.104 2.736-6.804 2.736zm0-5.76c2.124 0 3.636-1.548 3.636-3.744s-1.512-3.744-3.636-3.744c-2.052 0-3.6 1.548-3.6 3.744s1.548 3.744 3.6 3.744zm21.567 5.76c-2.664 0-4.932-.9-6.804-2.736-1.872-1.836-2.808-4.104-2.808-6.768 0-2.664.936-4.896 2.808-6.732 1.872-1.836 4.14-2.772 6.804-2.772 2.7 0 4.968.936 6.804 2.772 1.872 1.836 2.808 4.068 2.808 6.732 0 2.664-.936 4.932-2.808 6.768-1.836 1.836-4.104 2.736-6.804 2.736zm0-5.76c2.124 0 3.636-1.548 3.636-3.744s-1.512-3.744-3.636-3.744c-2.052 0-3.6 1.548-3.6 3.744s1.548 3.744 3.6 3.744zm33.483-13.248c4.176 0 6.768 2.844 6.768 7.488V30.2h-6.012V19.868c0-1.692-.756-2.52-2.232-2.52-1.62 0-2.484 1.152-2.484 3.024V30.2h-5.976V19.868c0-1.692-.756-2.52-2.268-2.52-1.62 0-2.484 1.152-2.484 3.024V30.2h-5.976v-18h5.976v1.692c1.116-1.476 2.736-2.196 4.86-2.196 2.052 0 3.6.756 4.608 2.304 1.26-1.548 2.988-2.304 5.22-2.304z"/>
        <path fill="#E80012" d="M15.912 17.311c2.124 1.26 3.168 3.132 3.168 5.652 0 2.232-.756 4.032-2.304 5.364-1.548 1.332-3.6 2.016-6.156 2.016H0v-25.2h9.936c5.04 0 8.316 2.736 8.316 7.164 0 2.124-.792 3.78-2.34 5.004zm-6.156-6.408H6.444v3.96h3.312c1.152 0 2.052-.72 2.052-1.98 0-1.188-.864-1.98-2.052-1.98zm-3.312 13.68h3.996c1.296 0 2.196-.864 2.196-2.124 0-1.296-.9-2.124-2.196-2.124H6.444v4.248zM27.399 9.859c-1.332 1.332-3.456 1.332-4.86 0-1.332-1.404-1.332-3.528 0-4.86 1.404-1.332 3.528-1.332 4.86 0 1.404 1.332 1.404 3.456 0 4.86zm.576 20.484H22v-18h5.976v18zM42.99 11.839c3.888 0 6.624 2.736 6.624 7.74v10.764h-5.976V20.335c0-1.872-1.08-2.844-2.7-2.844-1.872 0-2.952 1.152-2.952 3.276v9.576H32.01v-18h5.976v1.8c1.08-1.548 2.736-2.304 5.004-2.304zm23.295 2.232v-1.728h5.904v17.28c0 5.976-4.752 8.46-9.468 8.46-3.996 0-7.272-1.512-8.856-4.392l4.968-2.88c.864 1.368 2.124 2.052 3.816 2.052 2.16 0 3.636-1.116 3.636-3.24v-1.728c-1.224 1.476-2.916 2.232-5.04 2.232-2.484 0-4.536-.9-6.156-2.664-1.62-1.764-2.412-3.924-2.412-6.48 0-2.556.792-4.716 2.412-6.48 1.62-1.764 3.672-2.664 6.156-2.664 2.124 0 3.816.756 5.04 2.232zm-6.588 9.612c.72.684 1.656 1.044 2.772 1.044 1.116 0 2.052-.36 2.736-1.044.72-.72 1.08-1.62 1.08-2.7s-.36-1.98-1.08-2.664c-.684-.72-1.62-1.08-2.736-1.08s-2.052.36-2.772 1.08c-.684.684-1.044 1.584-1.044 2.664s.36 1.98 1.044 2.7zm25.24 7.164c-2.664 0-4.932-.9-6.804-2.736-1.872-1.836-2.808-4.104-2.808-6.768 0-2.664.936-4.896 2.808-6.732 1.872-1.836 4.14-2.772 6.804-2.772 2.7 0 4.968.936 6.804 2.772 1.872 1.836 2.808 4.068 2.808 6.732 0 2.664-.936 4.932-2.808 6.768-1.836 1.836-4.104 2.736-6.804 2.736zm0-5.76c2.124 0 3.636-1.548 3.636-3.744s-1.512-3.744-3.636-3.744c-2.052 0-3.6 1.548-3.6 3.744s1.548 3.744 3.6 3.744z"/>
    </g>
</svg>
