<svg id="buffbet_affiliates" data-name="buffbet affiliates" version="1.1" width="200px" height="88.865px" viewBox="0 0 200 88.865" xmlns="http://www.w3.org/2000/svg">
 <defs>
  <style>.cls-1{fill:url(#linear-gradient);}.cls-2{fill:#ef502a;}.cls-3{fill:#fff;}</style>
  <linearGradient id="linear-gradient" x1="7.7816" x2="49.41" y1="22.55" y2="28.976" gradientUnits="userSpaceOnUse">
   <stop stop-color="#ffc50a" offset=".0583"/>
   <stop stop-color="#fb9f10" offset=".2485"/>
   <stop stop-color="#f0411e" offset=".7348"/>
   <stop stop-color="#ec1c24" offset=".9542"/>
  </linearGradient>
 </defs>
 <title>buffbet-affiliates</title>
 <g id="buffbet_affiliates_logo" transform="matrix(2.2832 0 0 2.2861 -44.928 -17.94)" data-name="buffbet affiliates logo">
  <path class="cls-1" d="m35.412 46.719a3.1484 3.1484 0 0 1-2.0453-0.7538l-12.591-10.778a3.1476 3.1476 0 0 1-1.0456-2.9611l3.04-16.303a3.149 3.149 0 0 1 2.0433-2.3859l15.63-5.5122a3.1518 3.1518 0 0 1 3.0866 0.5752l4.9058 4.201a1.292 1.292 0 1 1-1.68 1.9631l-4.9058-4.2a0.56 0.56 0 0 0-0.547-0.1016l-15.63 5.5123a0.5573 0.5573 0 0 0-0.3623 0.422l-3.04 16.302a0.5567 0.5567 0 0 0 0.1854 0.5236l12.591 10.778a0.5555 0.5555 0 0 0 0.5457 0.1022l9.4381-3.3286a1.2922 1.2922 0 1 1 0.86 2.4371l-9.4381 3.3286a3.1219 3.1219 0 0 1-1.0408 0.1782z" style="fill:url(#linear-gradient)"/>
  <path class="cls-2" d="m78.419 31.662-0.569 3.2268h-3.2277l0.569-3.2268z" style="fill:#ef502a"/>
  <path class="cls-2" d="m82.844 19.601 2.653-0.4038-0.9175 5.2028h3.3475a1.8716 1.8716 0 0 1 0.8354 0.1822 1.7639 1.7639 0 0 1 0.6186 0.494 1.9493 1.9493 0 0 1 0.356 0.7272 1.9747 1.9747 0 0 1 0.03 0.8567l-1.0526 5.97a2.4767 2.4767 0 0 1-0.3362 0.8781 2.9744 2.9744 0 0 1-1.4015 1.2 2.3362 2.3362 0 0 1-0.8993 0.1805h-5.929zm0.2844 13.029h2.1379a0.9893 0.9893 0 0 0 0.6592-0.2528 1.0187 1.0187 0 0 0 0.361-0.6139l0.747-4.2362a0.7269 0.7269 0 0 0-0.1442-0.6155 0.7 0.7 0 0 0-0.57-0.2512h-2.1383z" style="fill:#ef502a"/>
  <path class="cls-2" d="m91.381 26.66a2.5491 2.5491 0 0 1 0.3226-0.8567 2.964 2.964 0 0 1 0.6018-0.7272 2.8962 2.8962 0 0 1 0.7937-0.494 2.3019 2.3019 0 0 1 0.8987-0.1821h3.53a1.8708 1.8708 0 0 1 0.8353 0.1822 1.7715 1.7715 0 0 1 0.6187 0.494 1.8518 1.8518 0 0 1 0.3461 0.7272 2.0955 2.0955 0 0 1 0.02 0.8567l-0.3627 2.0566a2.5254 2.5254 0 0 1-0.3246 0.8683 3.03 3.03 0 0 1-0.6 0.7156 2.8888 2.8888 0 0 1-0.7929 0.494 2.3064 2.3064 0 0 1-0.8993 0.1806h-0.6048q-0.4444 0-0.95 0.0115-0.5064 0.01-0.96 0.01h-0.6549l-0.1742 0.9881a0.5224 0.5224 0 0 0 0.11 0.4629 0.5571 0.5571 0 0 0 0.4422 0.1822h3.7513l-0.3982 2.2584h-4.78a1.89 1.89 0 0 1-0.8348-0.1805 1.7726 1.7726 0 0 1-0.62-0.4941 1.87 1.87 0 0 1-0.347-0.7172 2.0651 2.0651 0 0 1-0.0188-0.8666zm5.4289 0.6648a0.5448 0.5448 0 0 0-0.1174-0.4744 0.5738 0.5738 0 0 0-0.4507-0.19h-1.6134a0.7281 0.7281 0 0 0-0.4972 0.19 0.8075 0.8075 0 0 0-0.2659 0.4744l-0.2489 1.4115h2.2995a0.7227 0.7227 0 0 0 0.4973-0.19 0.8031 0.8031 0 0 0 0.265-0.4743z" style="fill:#ef502a"/>
  <path class="cls-2" d="m106.2 24.422-0.3806 2.1583h-1.8153l-0.9492 5.3836a0.5574 0.5574 0 0 0 0.1083 0.4743 0.5371 0.5371 0 0 0 0.44 0.1921h3.67l-0.3983 2.2584h-4.6578a1.8956 1.8956 0 0 1-0.8356-0.1805 1.955 1.955 0 0 1-0.63-0.4842 1.7919 1.7919 0 0 1-0.37-0.7058 1.9578 1.9578 0 0 1-0.0283-0.8682l1.07-6.07h-1.2507l0.3094-1.7546 1.3219-0.4037 0.7908-2.1994 2.2489-0.4022-0.4587 2.6016z" style="fill:#ef502a"/>
  <path class="cls-3" d="m43.272 27.285a1.6316 1.6316 0 0 1 0.9432 1.8555l-0.4587 2.6015a3.2748 3.2748 0 0 1-0.4583 1.17 4.5628 4.5628 0 0 1-1.904 1.7037 2.62 2.62 0 0 1-1.1371 0.2724h-6.5144l2.66-15.086h6.0105a2.1354 2.1354 0 0 1 1.0428 0.2626 2.6086 2.6086 0 0 1 0.8153 0.696 2.8344 2.8344 0 0 1 0.4913 0.988 2.6031 2.6031 0 0 1 0.0475 1.16l-0.5121 2.9044a2.012 2.012 0 0 1-0.3611 0.8469 2.4092 2.4092 0 0 1-0.6649 0.6253zm-4.3728-4.9413-0.6473 3.6709h2.0574a1.1534 1.1534 0 0 0 0.7673-0.293 1.1863 1.1863 0 0 0 0.4192-0.7156l0.2915-1.6537a0.8415 0.8415 0 0 0-0.1666-0.7164 0.8141 0.8141 0 0 0-0.6641-0.2922zm-1.0953 6.2117-0.6687 3.7922h2.5613a1.1559 1.1559 0 0 0 0.768-0.2921 1.1906 1.1906 0 0 0 0.4183-0.7156l0.3132-1.776a0.8456 0.8456 0 0 0-0.1659-0.7164 0.8167 0.8167 0 0 0-0.6649-0.2921z" style="fill:#fff"/>
  <path class="cls-3" d="m47.192 19.802h2.9446l-2.0345 11.538a0.8442 0.8442 0 0 0 0.166 0.7156 0.8142 0.8142 0 0 0 0.6649 0.2921h1.5733a1.1521 1.1521 0 0 0 0.7671-0.2921 1.1874 1.1874 0 0 0 0.4191-0.7156l2.0345-11.538h2.9445l-2.1053 11.94a3.29 3.29 0 0 1-0.4583 1.17 4.5378 4.5378 0 0 1-0.8415 0.9979 4.481 4.481 0 0 1-1.0625 0.7058 2.6224 2.6224 0 0 1-1.1371 0.2724h-3.59a2.0538 2.0538 0 0 1-1.041-0.2724 2.71 2.71 0 0 1-0.8135-0.7058 2.7984 2.7984 0 0 1-0.49-0.9979 2.6576 2.6576 0 0 1-0.0456-1.17z" style="fill:#fff"/>
  <path class="cls-3" d="m60.052 26.478h4.84l-0.4409 2.5006h-4.84l-1.0421 5.91h-2.9445l2.2191-12.585a2.9178 2.9178 0 0 1 0.3672-0.9889 3.1574 3.1574 0 0 1 0.6806-0.8067 3.31 3.31 0 0 1 0.9076-0.5441 2.7456 2.7456 0 0 1 1.031-0.2019h6.0943l-0.4409 2.5006h-5.1434a0.5841 0.5841 0 0 0-0.3885 0.1411 0.6024 0.6024 0 0 0-0.2052 0.3636z" style="fill:#fff"/>
  <path class="cls-3" d="m69.894 26.478h4.84l-0.4409 2.5006h-4.84l-1.042 5.91h-2.9446l2.2191-12.585a2.92 2.92 0 0 1 0.3672-0.9889 3.1614 3.1614 0 0 1 0.6806-0.8067 3.3124 3.3124 0 0 1 0.9076-0.5441 2.7457 2.7457 0 0 1 1.0311-0.2019h6.0942l-0.4409 2.5006h-5.1431a0.5838 0.5838 0 0 0-0.3884 0.1411 0.6031 0.6031 0 0 0-0.2053 0.3636z" style="fill:#fff"/>
 </g>
</svg>
