<svg width="300px" height="54.1px" viewBox="0 0 300 54.1" xmlns="http://www.w3.org/2000/svg"><path d="m27.9 9.1-2.7 11.6h38.8l-2.1 9.1h-38.8l-3.5 15.1h38.8l-2.1 9.1h-48.7c-2.5 0-4.6-1-6.1-2.7-1.4-1.8-1.9-4.3-1.3-6.9l8-34.5c1.3-5.5 6.7-9.9 12.2-9.9h48.4l-2.1 9.1z" fill="#ffa000"/><path d="m102.8 20.7-2.1 9.1h9.7l-3.4 15.1h-19.5l8.3-35.8h38.9l2.1-9.1h-48.5c-5.4 0-10.9 4.4-12.1 9.9l-8 34.5c-.6 2.6-.1 5.1 1.3 6.9 1.4 1.7 3.5 2.7 6.1 2.7h38.8c5.4 0 10.9-4.5 12.2-9.9l5.4-23.4zm98.5-18c-1.4-1.7-3.6-2.7-6.1-2.7h-48.7l-12.5 54.1h48.4c5.5 0 10.9-4.5 12.2-9.9l2-8.6c.6-2.6.1-5.1-1.3-6.9s-3.9-2.7-6.5-2.7l.2-.5.2-.8c5.4 0 10.9-4.4 12.2-9.9l1.2-5.2c.6-2.6.1-5.1-1.3-6.9zm-26.4 42.2h-19.4l3.5-15.1h19.5zm5.6-24.2h-19.4l2.7-11.6h19.4zm38.3 14.7-3 13.1h15l-1.3 5.6h-14.4c-1.6 0-3-.6-3.9-1.7-.9-1.2-1.2-2.7-.8-4.4l2.7-11.6c.8-3.6 4.4-6.5 7.9-6.5h14.1l-1.3 5.6h-15zm81 .6-4.2 18.1h-5.5l4.3-18.7h-9.5l-4.3 18.7h-5.5l4.3-18.7h-9.4l-4.3 18.7h-5.5l5.5-24.3h14.4c1.1 0 2.1.3 2.9.8l.3.2.4-.2c1.1-.6 2.3-.9 3.4-.9h7.9c1.6 0 3 .6 3.9 1.7 1 1.3 1.3 2.9.9 4.6zm-41.1-4.4c-.9-1.1-2.3-1.7-3.9-1.7h-9c-3.6 0-7.1 2.9-7.9 6.5l-2.6 11.6c-.4 1.7-.1 3.3.8 4.4s2.3 1.7 3.9 1.7h9c3.6 0 7.1-2.9 7.9-6.5l2.7-11.7c.3-1.6 0-3.2-.9-4.3zm-7.6 16.9h-10.4l3-13.1h10.4zm-44.9 0-1.3 5.6h-5.5l1.3-5.6z" fill="#fff"/></svg>