<?xml version="1.0" encoding="UTF-8"?>
<svg width="125px" height="24px" viewBox="0 0 125 24" version="1.1" xmlns="http://www.w3.org/2000/svg" xmlns:xlink="http://www.w3.org/1999/xlink">
    <!-- Generator: Sketch 50.2 (55047) - http://www.bohemiancoding.com/sketch -->
    <title>Group</title>
    <desc>Created with Sketch.</desc>
    <defs></defs>
    <g id="Page-1" stroke="none" stroke-width="1" fill="none" fill-rule="evenodd">
        <g id="Artboard">
            <g id="Group">
                <g id="Rounded-Rectangle-1" fill="#FF7D02">
                    <path d="M59.7691,24 L51.9354,24 L53.2925,16.3734 L61.1263,16.3734 L59.7691,24 Z M12.8338,9.18253 L12.1503,13.259 L16.6864,13.259 L16.1421,16.3088 C16.0568,16.7895 15.7263,18.4495 15.2791,18.8261 C14.8775,19.1048 14.39,19.2383 13.8994,19.2041 L11.5469,19.2041 C10.2299,19.2041 9.07659,18.8963 8.45007,17.5594 C7.83546,16.1536 8.30708,13.3057 8.53849,12.0034 C8.77744,10.6665 9.23526,8.28267 10.3039,6.94581 C10.8478,6.28725 11.5423,5.76392 12.3311,5.41837 C13.1198,5.07282 13.9805,4.9148 14.8432,4.95714 L23.7437,4.95714 L26.8701,0.00547065 L12.1948,0.00547065 C11.5382,0.00547065 8.3146,0.0393228 5.81415,1.65008 C2.26448,3.91265 1.16635,8.33438 0.489023,12.14 C-0.0722759,15.2932 -0.602845,19.6472 1.64486,21.9744 C2.95749,23.3457 5.40086,23.9975 7.37262,23.9975 L18.8225,23.9975 C19.8003,24.0052 20.7569,23.7182 21.5631,23.1752 C22.4646,22.4961 23.0631,21.5009 23.2332,20.3981 L24.5039,13.2584 L24.5829,12.809 L25.0476,10.2043 L25.2288,9.18253 L12.8338,9.18253 Z M39.2425,9.18253 L38.5595,13.259 L43.0951,13.259 L42.5526,16.3081 C42.4673,16.7888 42.1368,18.4488 41.6896,18.8255 C41.288,19.1041 40.8005,19.2377 40.3099,19.2034 L37.9556,19.2034 C36.6386,19.2034 35.4846,18.8957 34.8581,17.5588 C34.2429,16.153 34.7157,13.3051 34.9472,12.0027 C35.1848,10.6659 35.6433,8.28206 36.712,6.9452 C37.2558,6.28663 37.9504,5.76331 38.7391,5.41776 C39.5279,5.07221 40.3886,4.91418 41.2513,4.95653 L50.1524,4.95653 L53.2794,0.00485516 L38.6041,0.00485516 C37.9468,0.00485516 34.7239,0.0387074 32.2228,1.64946 C28.6725,3.91203 27.575,8.33376 26.8977,12.1394 C26.3364,15.2932 25.8039,19.6484 28.0529,21.9762 C29.3655,23.3476 31.8089,23.9994 33.7813,23.9994 L45.2312,23.9994 C46.2089,24.0071 47.1656,23.72 47.9718,23.1771 C48.873,22.4978 49.4715,21.5026 49.6419,20.4 L50.9131,13.2602 L50.9922,12.8109 L51.4563,10.2055 L51.6375,9.18376 L39.2425,9.18376 L39.2425,9.18253 Z" id="Shape"></path>
                </g>
                <g id="Vector" transform="translate(53.000000, 0.000000)" fill="#FFFFFF">
                    <path d="M29.1389,23.9988 C28.1355,23.9988 27.1446,23.9299 26.345,23.1765 C25.4042,22.2533 25.5736,21.2913 25.7755,20.1606 L28.7024,3.70652 C28.8284,2.63256 29.3757,1.64901 30.2283,0.964484 C31.1215,0.301832 32.2207,-0.0373845 33.3396,0.00430848 L49.0547,0.00430848 L45.929,4.95044 L37.8895,4.95044 C37.4401,4.934 36.9963,5.05346 36.6183,5.29266 C36.2757,5.59136 36.0652,6.00928 36.0313,6.45779 L35.5446,9.18137 L45.2153,9.18137 L44.4916,13.2578 L34.8209,13.2578 L33.9761,18.0027 C33.9289,18.1547 33.9214,18.3159 33.9542,18.4716 C33.9871,18.6272 34.0593,18.7722 34.1643,18.8933 C34.5837,19.1728 35.0967,19.283 35.5967,19.201 L46.8227,19.201 L45.9691,23.9976 L29.1389,23.9976 L29.1389,23.9988 Z M52.1503,23.9988 L55.5444,4.92398 L49.7032,4.92398 L50.578,0 L71.2,0 L68.0787,4.92398 L63.3606,4.92398 L59.9671,23.9964 L52.1503,23.9964 L52.1503,23.9988 Z M23.6326,10.4579 C24.6974,9.47635 25.3636,8.14922 25.5077,6.72246 C25.7881,5.14494 26.0057,2.95131 24.9,1.57937 C23.8088,0.184649 21.7875,0.0135409 20.0898,0.00307748 L3.21255,0.00307748 L2.52708,3.86471 C2.52708,3.86901 2.52708,3.87271 2.52708,3.87763 L0.857603,13.2578 L14.9572,13.2578 C15.2756,13.21 15.6013,13.2485 15.8991,13.3691 C16.1968,13.4897 16.4554,13.6879 16.6467,13.9422 C16.7985,14.2431 16.8458,14.5844 16.7816,14.9141 C16.7816,14.9141 16.3582,17.3145 16.357,17.3213 C16.2525,17.8418 16.0115,18.3266 15.6577,18.7277 C15.489,18.8988 14.9842,19.2078 13.4966,19.2078 L11.2162,19.2078 L8.20592,23.9982 L16.108,23.9982 C18.1826,23.9982 19.9819,23.9982 21.8364,22.3192 C23.6043,20.7416 23.9123,18.8213 24.1863,17.2795 C24.4491,15.8053 24.688,14.2635 23.6275,13.0325 C22.9386,12.302 21.9895,11.8598 20.9772,11.7978 L21.0017,11.6612 C22,11.592 22.9376,11.1648 23.6357,10.461 L23.6326,10.4579 Z M17.8151,6.42763 C17.8151,6.44425 17.8057,6.4658 17.8019,6.48364 L17.6376,7.3915 L17.6157,7.5146 C17.6119,7.53122 17.6088,7.54784 17.6038,7.56507 C17.5309,7.90915 17.3928,8.23673 17.1967,8.53079 C16.9422,8.78552 16.6298,8.97741 16.2851,9.09071 C15.9404,9.20402 15.5732,9.23551 15.2137,9.1826 L9.40127,9.1826 L9.58001,8.17811 L9.74996,7.22716 C9.76627,7.13299 9.78069,7.04252 9.79888,6.95142 L9.9287,6.22452 C9.93174,6.02859 9.97735,5.83556 10.0625,5.65831 C10.1476,5.48105 10.2702,5.32366 10.4223,5.19664 C10.7246,4.97733 11.1006,4.87898 11.474,4.92151 L15.9362,4.92151 C16.4554,4.92151 17.2162,4.92151 17.6157,5.40222 C17.8173,5.70602 17.8881,6.07581 17.8126,6.43071 L17.8151,6.42763 Z" id="Shape"></path>
                </g>
            </g>
        </g>
    </g>
</svg>