<svg xmlns="http://www.w3.org/2000/svg" width="856.01px" height="120px" viewBox="0 0 856.01 120"><defs><style>.cls-1,.cls-4{fill:#fff;}.cls-1,.cls-3{fill-rule:evenodd;}.cls-2,.cls-3{fill:#fb4d00;}</style></defs><title>Asset 5</title><g id="Layer_2" data-name="Layer 2"><g id="Layer_5" data-name="Layer 5"><path class="cls-1" d="M705,40H681L669.3,100H642.81l11.67-60H631l3.89-20h74ZM572,40,570,50h35L601.1,70h-35l-1.94,10H604l-3.89,20H533.81l15.55-80H615L611.1,40ZM506.63,59a18.78,18.78,0,0,1,7.92,6.21,15.86,15.86,0,0,1,2.79,9.41q0,12.65-10.43,19T480.07,100H434l16-79.8h42.29q14,0,21.32,5a16,16,0,0,1,7.3,14.08A19.33,19.33,0,0,1,517.12,51,24.73,24.73,0,0,1,506.63,59ZM464.1,80h16a6.37,6.37,0,0,0,6-5,4,4,0,0,0-4-5H466Zm21.77-40h-14l-1.94,10h14a6.37,6.37,0,0,0,6-5A4,4,0,0,0,485.87,40ZM402,40,390.3,100H363.81l11.67-60H352l3.89-20h74L426,40Zm-86.34.38a45.26,45.26,0,0,0-11.57-1.48q-5.58,0-8.66,1.59t-3.08,3.76q0,2.18,2.79,3.42a54.59,54.59,0,0,0,9.18,2.74,100.49,100.49,0,0,1,13.05,3.88,23.5,23.5,0,0,1,9.18,6.38q3.87,4.33,3.88,11.4a25.82,25.82,0,0,1-4.91,15.62,31.49,31.49,0,0,1-14,10.43,56.71,56.71,0,0,1-21.43,3.7,82.11,82.11,0,0,1-19.49-2.22,52.33,52.33,0,0,1-15.05-5.87l10.37-19.84a53.13,53.13,0,0,0,26.91,7.41,19.38,19.38,0,0,0,7.86-1.25q2.75-1.26,2.74-3.42t-2.8-3.31a56.71,56.71,0,0,0-8.83-2.73,109.92,109.92,0,0,1-13.22-4.16,24.44,24.44,0,0,1-9.18-6.5q-3.93-4.4-3.93-11.57a26.46,26.46,0,0,1,4.84-15.79,30.88,30.88,0,0,1,14-10.49q9.11-3.7,21.54-3.7a74.51,74.51,0,0,1,16.59,1.76,46.25,46.25,0,0,1,13.28,5.08l-9.69,19.6A36.69,36.69,0,0,0,315.62,40.38ZM72,100l7.11-36.61L52.72,100H44.78L33.42,64.06l-7,35.94H0L15.53,20H42.44L55.87,62.49,86.49,20H114L98.45,100Z"/><circle class="cls-2" cx="184.98" cy="60" r="60"/><path class="cls-3" d="M840.43,100H713l15.58-80H856Z"/><path class="cls-4" d="M774.59,43.47Q770.22,40,762.36,40h-17.9l-8,39.9h13.46l2-10h3.31l5.64,10h14l-6.67-11.63a16.62,16.62,0,0,0,8-5.9A15.53,15.53,0,0,0,779,53.13,11.61,11.61,0,0,0,774.59,43.47Zm-10.8,14.88a6.23,6.23,0,0,1-4.33,1.39h-5.53l1.88-9.34h4.5c3.34,0,5,1.35,5,4A5,5,0,0,1,763.79,58.35ZM819.08,40l-4.33,21.72q-.91,4.44-2.57,6.33A5.83,5.83,0,0,1,807.56,70a5.58,5.58,0,0,1-4-1.31,5.31,5.31,0,0,1-1.36-4,13.79,13.79,0,0,1,.34-2.91L806.88,40H793.43L789,62a22.33,22.33,0,0,0-.46,4.21,14.25,14.25,0,0,0,2.08,7.76,13.57,13.57,0,0,0,6,5.1,22,22,0,0,0,9.26,1.79q9.12,0,14.59-4.61t7.3-13.68L832.3,40Z"/><path class="cls-4" d="M186,79.8l27.34,16.33-7.22-30.81,24.16-20.74-31.83-2.69L186,12.84,173.56,41.9l-31.83,2.73,24.13,20.71-7.25,30.82Z"/></g></g></svg>