<svg style="enable-background:new 0 0 853 227" version="1.1" width="853px" height="227px" viewBox="0 0 853 227" xml:space="preserve" xmlns="http://www.w3.org/2000/svg">
<style type="text/css">
	.st0{fill:#77160D;}
	.st1{fill:#FDC743;}
	.st2{fill:#FFFFFF;}
</style>
	<circle class="st0" cx="115.8" cy="113.6" r="92.7"/>
	<path class="st1" d="m118.9 179.1c2.1 0.9 5.6 2.3 8 2.8 3 0.6 4.9 1 5.5 1.1s0.4 0.4 0.1 0.8c-0.3 0.3-3.3 2.7-3.7 2.8s-0.7 0.2-2.5-0.7-6.7-3.9-9.4-5.4-6.1-3-6.1-3c-0.5-0.2-0.6-0.4-0.5-1 0 0 0.1-0.8 0.5-0.8 0.3 0 3.4 1.3 5.5 2.2h0.1c0.1-0.1 0.3-0.1 0.4-0.2 2.1-0.9 3.7-1.9 3.9-2 0.3 0 0.2 1.4 0.2 1.4 0.1 0.6-0.3 0.8-0.8 1 0 0 0.5-0.2-0.8 0.4-0.2 0.1-0.4 0.3-0.6 0.3l0.2 0.3zm-3.5 1.6c0.1 0.2-0.4 0.2-0.6 0.3-2.8 1.6-6.8 4-8.4 4.8-1.8 0.9-2.1 0.9-2.5 0.7-0.4-0.1-3.4-2.5-3.7-2.8s-0.5-0.6 0.1-0.8c0.6-0.1 2.6-0.5 5.5-1.1 2.1-0.4 4.8-1.4 6.8-2.3 0.2-0.1 0.4-0.2 0.5-0.2 0.2 0.1 2 0.5 2.3 1.4zm-30.9-5.6c0.6-0.1 2.1-0.8 2.9-1.7 4.5-4.7 5.6-6.7 12.1-4.4 2.3 0.8 7.6 3.1 8.8 3.7s1.1 1.9 1.1 2.7-0.6 1-1.4 1-2 0.2-2.3 0-0.7-1.1-0.7-1.5 0.1-1.2-0.7-0.8c-5.1 2.7-10 5.5-17.1 2.9-1.9-0.7-2.8-1.2-2.9-1.4s0-0.3 0-0.3c0-0.1 0.2-0.2 0.2-0.2zm-5.4-11.6c-1.3-0.8-3.8-1.1-6.5-0.5-2.6 0.6-6.4 2.1-6.9 2.2-0.4 0.1-0.5 0.2-0.4 0.5s4.1 4.3 5 5.1c0.9 0.9 2.7 3 6.4 3.2 3.8 0.1 6-0.3 7.5-1.5 1.6-1.2 1.7-1.5 1.5-1.8-0.1-0.3-5.9-6.8-6.6-7.2zm0.1-14.4c0.7 0.4 6.7 3.9 8 4.7 1.4 0.8 4.6 3.3 5.7 5 1.2 1.7 2.8 5.8 2.9 6.4s0.8 1.6-0.4 1.6-3.6 0.1-4 0.7-1.8 1.9-2.6 1.9-2.8-1-3.8-2.6c-1.1-1.6-2.6-5.5-3.1-7.6-0.5-2.2-1.2-4.4-1.8-5.9-0.3-0.6-1.5-4.1-1.4-4.2 0.2-0.2 0.5 0 0.5 0zm-30.8-9.9c1.1 0.2 5.9 2.1 7.3 2.3 1.5 0.2 5.4 2 6.6 4.4s3.6 6 4.2 7.3c0.7 1.3 3.8 4.6 4.3 5 0.5 0.3 1.2 1.1 1.1 0.6s-3.5-3.1-4.7-6.8-1.8-5.5-1.4-9.5 1.5-6.8 1.6-7.7c0.2-0.9 0.3-1.8 0.6-1.5s2.7 4.6 3.7 6.5 2.5 4.6 2.8 7.7 0.3 8.8 0.4 9.8-0.1 1.5 0.4 2.1 1.2 1.8 0.3 2.1-3.2 0.2-3.9-0.2-1.6-1.6-2.9-1.2c-5.7 1.7-7.5 2.7-12.4-1.9-3.4-3.2-6-8.7-7.3-14.3-0.3-1.1-0.6-3-0.9-3.6s-0.3-0.8-0.3-0.9c0.2-0.3 0.5-0.2 0.5-0.2zm-5.4-25.2c-0.2 2.5-0.3 6.7 0.4 10s2.1 6.7 4.5 8.2c2.3 1.5 4.1 1.2 4.7 1.8 0.7 0.7 3.8 5 4.8 5.9 1.1 0.9 3.1 2.4 4.2 3.6s2.7 3.7 2.8 3.8c0.2 0.1 0.4-0.2 0.2-0.9s-1.7-3.7-1.9-4.2-0.3-1.2-0.1-1.6c0.3-0.4 2.3-3.4 2.7-5.7s0.8-8.6 0.8-11-0.1-4-0.4-4.7-1-2.7-1.1-3.3c-0.1-0.5-0.1-1.5-0.5-1.1-0.4 0.5-3.1 6.2-4 8-1 1.8-2.2 5.3-2.4 7-0.2 1.6-0.1 5.2 0.2 6.1s1.9 3.5 1.5 3.6c-0.4 0.2-1.3-0.6-2.1-1.7s-1.6-4.8-1.6-6.5 0-2.9 0.3-4.1c0.4-1.3 3.8-6.5 4.2-8.9s1-5.7 1.3-8.2c0.2-1.5-0.4-8.3-1.5-7.4-0.8 0.6-3.5 3.7-4.6 5.3s-3.3 4.8-4 6.5c-0.8 1.7-1.2 4.9-1.2 7.1s-0.9 0-0.8-0.7c0.1-0.8 0.2-3.9-0.7-5.5s-2.8-4.4-3-4.7-1.4-1.8-1.4-1.8c-1.6-3-1.2 4.5-1.3 5.1zm10.9-27.3c1.8 4.6 3.2 10 1.4 15-0.7 2-2.3 6.1-2.6 7.1-0.4 1-1.6 4.6-1.9 5.1-0.2 0.4-0.9 1.2-1 0.1s-0.5-3.5-0.4-4.5c0.1-1.1 0-1.9 0.7-2.1s1.4 0.1 1.3-0.7c0-0.7-1-1.8-1.8-2.7s-3.1-3.7-2.8-9.8 1.1-10 1.7-12 1-2.6 1.2-2.5c1.5 0.6 3.6 5.4 4.2 7zm9.1-4.8c1.8-1.5 4.9-3.8 8.2-4.3s4.6-0.2 4.7-0.2 0.6 0.3 0.2 1.1-2.8 6.4-3.7 8c-0.9 1.5-2.7 3.7-4.5 4.6s-4 1.9-5.1 2.5-3.1 2.4-3.7 2.3-0.7-0.7-0.5-1.6-0.9-2.1-1.3-2.6-0.4-1.3-0.3-1.8c0.5-2.9 4.3-6.6 6-8zm-5.1-12.6c-2.5 3.3-4 6-4.7 10.3-0.2 1.1 0 2.3 0.2 3.1s1.2 2.9 1.4 3.2 1.3 2.3 1.8 1.9 2.2-2.5 3.2-3.9c1-1.3 2.3-3.2 2.5-5.6 0.1-2.3 0.8-6.7 0.5-8.9s-0.5-4-0.4-4.5c0.1-0.6 0.2-1-0.1-1-1.3 0.3-3.4 4.2-4.4 5.4zm24.3-17.7s-2.1 0.4-4.9 2.5c-3.7 2.7-7.5 6.1-7.1 12 0 0.5-0.2 1.1-0.2 1.1s-0.8-0.4-1-0.3c-0.2 0-2.6 3.6-3 4.3s-1.1 1.8-1.1 2.8c0 0.9-0.1 4.2 0.2 4.2s3.8-5.9 3.8-5.9 0.8-0.6 2.2-0.8 4.7-0.6 6-2.3c1.4-1.7 3.6-5.3 4.2-8.8s1-7.4 1.1-8c0.1-0.4 0.2-1-0.2-0.8zm0.5 8.7c-0.1-0.3 1.3-2.7 5.1-4.1 3.9-1.4 5.1-1.4 7.7-1.1 2.6 0.2 4.8 0.6 6.3 0.9 1.4 0.2 4.1 0.4 4 0.8 0 0.4-0.2 1.9-2.4 4s-5.2 4.2-8.7 4.8c-3.4 0.5-6.2-1-8-1.1-1.9-0.1-4.5 0.4-4.7 0-0.1-0.4 0.9-3.5 0.7-4.2zm0.3-3.8s1.4-5.9 7-8.7 8.3-2.5 11.1-3.1 4.4-0.8 4.5-0.7c0 0.1-3.6 5.1-4.6 6.3s-3.8 3.8-5.3 3.6c-1.4-0.2-2-0.4-3.1-0.1s-6.2 1.3-6.9 1.7-2.1 1.4-2.5 1.4c-0.3 0-0.2-0.4-0.2-0.4zm64.4 118.7c0.1 0 0.1 0.1 0 0.3s-1 0.7-2.9 1.4c-7 2.6-12-0.2-17.1-2.9-0.7-0.4-0.7 0.5-0.7 0.8 0 0.4-0.4 1.3-0.7 1.5s-1.5 0-2.3 0-1.4-0.2-1.4-1-0.1-2.1 1.1-2.7 6.4-2.8 8.8-3.7c6.5-2.3 7.6-0.3 12.1 4.4 0.9 0.9 2.3 1.5 2.9 1.7 0 0.1 0.2 0.2 0.2 0.2zm-1.5-4.5c-0.2 0.3 0 0.6 1.5 1.8 1.6 1.2 3.8 1.6 7.5 1.5 3.8-0.1 5.5-2.3 6.4-3.2s4.8-4.9 5-5.1c0.1-0.3 0-0.4-0.4-0.5s-4.3-1.6-6.9-2.2-5.1-0.3-6.5 0.5c-0.7 0.4-6.4 6.9-6.6 7.2zm7.1-21.7c0.2 0.1-1.1 3.6-1.4 4.2-0.6 1.4-1.2 3.7-1.8 5.9-0.5 2.2-2.1 6.1-3.1 7.6-1.1 1.6-3 2.6-3.8 2.6s-2.2-1.3-2.6-1.9-2.7-0.7-4-0.7c-1.2 0-0.5-1-0.4-1.6s1.7-4.6 2.9-6.4c1.2-1.7 4.3-4.2 5.7-5s7.4-4.3 8-4.7c0 0.1 0.3-0.1 0.5 0zm30.6-9.8c0 0.1 0 0.3-0.3 0.9s-0.6 2.5-0.9 3.6c-1.3 5.7-3.9 11.2-7.3 14.3-4.9 4.6-6.7 3.5-12.4 1.9-1.3-0.4-2.3 0.8-2.9 1.2-0.7 0.4-3 0.5-3.9 0.2s-0.2-1.5 0.3-2.1 0.4-1.1 0.4-2.1c0.1-1 0.1-6.7 0.4-9.8s1.8-5.9 2.8-7.7c1-1.9 3.4-6.2 3.7-6.5s0.5 0.6 0.6 1.5c0.2 0.9 1.2 3.7 1.6 7.7s-0.3 5.8-1.4 9.5-4.6 6.4-4.7 6.8c-0.1 0.5 0.6-0.3 1.1-0.6s3.7-3.6 4.3-5c0.6-1.3 3-4.9 4.2-7.3s5.2-4.2 6.6-4.4c1.5-0.2 6.3-2.1 7.3-2.3 0.2 0.2 0.5 0.1 0.5 0.2zm3.8-30.4s-1.2 1.5-1.4 1.8-2.1 3.1-3 4.7-0.8 4.7-0.7 5.5-0.8 3-0.8 0.7c0-2.2-0.4-5.4-1.2-7.1s-3-4.9-4-6.5c-1.1-1.6-3.8-4.6-4.6-5.3-1.1-0.9-1.6 5.9-1.5 7.4 0.3 2.5 0.9 5.9 1.3 8.2 0.4 2.4 3.9 7.6 4.2 8.9 0.4 1.3 0.3 2.4 0.3 4.1s-0.8 5.4-1.6 6.5-1.7 1.9-2.1 1.7 1.2-2.7 1.5-3.6 0.4-4.5 0.2-6.1-1.5-5.2-2.4-7c-1-1.8-3.7-7.6-4-8-0.4-0.5-0.3 0.5-0.5 1.1-0.1 0.5-0.8 2.5-1.1 3.3-0.3 0.7-0.4 2.3-0.4 4.7s0.4 8.7 0.8 11 2.4 5.3 2.7 5.7 0.1 1.1-0.1 1.6-1.6 3.5-1.9 4.2c-0.2 0.7 0 1 0.2 0.9s1.7-2.6 2.8-3.8 3.2-2.6 4.2-3.6c1.1-0.9 4.1-5.2 4.8-5.9s2.4-0.4 4.7-1.8c2.3-1.5 3.8-4.9 4.5-8.2 0.6-3.3 0.6-7.5 0.4-10-0.1-0.5 0.3-8-1.3-5.1zm-5.4-29.1c0.2-0.1 0.6 0.5 1.2 2.5s1.4 5.9 1.7 12-2.1 8.9-2.8 9.8c-0.8 0.9-1.8 2-1.8 2.7s0.7 0.4 1.3 0.7c0.7 0.2 0.6 1 0.7 2.1s-0.3 3.4-0.4 4.5-0.7 0.4-1-0.1c-0.2-0.4-1.5-4-1.9-5.1-0.4-1-1.9-5.1-2.6-7.1-1.8-5-0.5-10.4 1.4-15 0.6-1.6 2.7-6.4 4.2-7zm-7.3 10c0.1 0.5 0.1 1.3-0.3 1.8s-1.5 1.7-1.3 2.6c0.2 1 0.1 1.5-0.5 1.6s-2.6-1.7-3.7-2.3-3.3-1.6-5.1-2.5-3.6-3.1-4.5-4.6-3.3-7.2-3.7-8 0.1-1 0.2-1.1c0.1 0 1.4-0.3 4.7 0.2s6.4 2.8 8.2 4.3c1.7 1.6 5.5 5.3 6 8zm-5.4-25.8c-0.2-0.1-0.1 0.4-0.1 1 0.1 0.6-0.1 2.3-0.4 4.5s0.4 6.6 0.5 8.9 1.5 4.3 2.5 5.6 2.7 3.5 3.2 3.9 1.6-1.6 1.8-1.9 1.2-2.4 1.4-3.2 0.4-2 0.2-3.1c-0.7-4.3-2.1-7-4.7-10.3-0.9-1.2-3-5.1-4.4-5.4zm-20-11.5c0.1 0.6 0.5 4.4 1.1 8 0.6 3.5 2.8 7.1 4.2 8.8s4.6 2.1 6 2.3 2.2 0.8 2.2 0.8 3.5 5.9 3.8 5.9 0.2-3.2 0.2-4.2c0-0.9-0.7-2-1.1-2.8-0.4-0.7-2.9-4.3-3-4.3s-1 0.3-1 0.3-0.2-0.7-0.2-1.1c0.4-5.9-3.4-9.3-7.1-12-2.8-2.1-4.9-2.5-4.9-2.5-0.4-0.2-0.3 0.4-0.2 0.8zm0.3 12.1c-0.2 0.4-2.8-0.2-4.7 0-1.9 0.1-4.6 1.7-8 1.1-3.4-0.5-6.5-2.6-8.7-4.8-2.2-2.1-2.4-3.6-2.4-4s2.6-0.6 4-0.8 3.6-0.6 6.3-0.9c2.6-0.2 3.8-0.3 7.7 1.1s5.2 3.8 5.1 4.1c-0.1 0.7 0.9 3.8 0.7 4.2zm-1.2-7.5c-0.4 0-1.8-1-2.5-1.4s-5.8-1.4-6.9-1.7-1.6-0.1-3.1 0.1c-1.4 0.2-4.2-2.4-5.3-3.6-1-1.2-4.6-6.2-4.6-6.3s1.7 0.1 4.5 0.7 5.5 0.3 11.1 3.1 7 8.7 7 8.7 0.2 0.3-0.2 0.4z"/>
	<path class="st1" d="m115.8 210.3c-53.4 0-96.8-43.4-96.8-96.8s43.4-96.8 96.8-96.8 96.8 43.4 96.8 96.8-43.4 96.8-96.8 96.8zm0-183.9c-48.1 0-87.1 39.1-87.1 87.1 0 48.1 39.1 87.1 87.1 87.1 48.1 0 87.1-39.1 87.1-87.1 0.1-48-39-87.1-87.1-87.1z"/>
	<path class="st2" d="m357 103.3c0-16.5-5.7-30.4-16.5-40.1-9.6-8.6-22.5-13.4-36.3-13.4s-26.7 4.7-36.3 13.4c-10.8 9.7-16.5 23.6-16.5 40.1s5.7 30.4 16.5 40.2c9.6 8.6 22.5 13.4 36.3 13.4s26.7-4.8 36.3-13.4c10.8-9.8 16.5-23.7 16.5-40.2zm-28.3 0c0 18.3-12.7 26.7-24.5 26.7s-24.5-8.3-24.5-26.7c0-18.2 12.7-26.4 24.5-26.4 11.8-0.1 24.5 8.2 24.5 26.4z"/>
	<polygon class="st2" points="412.7 50 367 149.5 367 149.8 367 155 393.7 155 418.8 97 444.3 155 471 155 471 149.8 425.1 50"/>
	<polygon class="st2" points="524 99.9 524 52 496 52 496 155 506.1 155 556 106.2 556 155 584 155 584 51 573.8 51"/>
	<polygon class="st2" points="666.3 94.7 627.3 51.4 627 51 616 51 616 155 644 155 644 110.9 664.6 132 668.2 132 688 110.9 688 155 717 155 717 51 706.2 51"/>
	<polygon class="st2" points="749 52 749 155 777 155 777 77 806 77 806 155 835 155 835 52"/>
	<path class="st2" d="m275.5 180.4c-0.3-0.4-0.8-0.7-1.2-1s-0.3-0.5-1.3-0.7c1-0.2 0.8-0.4 1.1-0.7s0.7-0.6 1-0.9 0.5-0.7 0.7-1.1 0.3-0.9 0.3-1.4c0-0.6-0.1-1.2-0.4-1.7-0.2-0.5-0.6-1-1.1-1.5-0.5-0.4-1.1-0.8-1.9-1s-1.6-0.4-2.7-0.4h-13v0.8s0.5 0 0.7 0.1 0.3 0.3 0.3 0.5v15.4c0 0.2-0.1 0.4-0.3 0.5s-0.7 0.1-0.7 0.1v0.6h12.8c1.2 0 2.2-0.1 3.1-0.3 0.9-0.3 1.6-0.6 2.1-1s0.9-0.9 1.2-1.5c0.2-0.6 0.4-1.2 0.4-1.8s-0.1-1.1-0.3-1.6c-0.2-0.6-0.5-1-0.8-1.4zm-13.5-7.4h7.4c0.3 0 0.7 0.1 1 0.1s0.6 0.2 0.9 0.3c0.2 0.2 0.5 0.4 0.6 0.6 0.2 0.3 0.2 0.6 0.2 1.1 0 0.8-0.3 1.3-0.9 1.6s-1.2 0.3-1.8 0.3h-7.4v-4zm9.9 11.4c-0.5 0.4-1.3 0.6-2.6 0.6h-7.3v-5h6.7c1.4 0 2.4 0.3 3 0.7s0.9 1.1 0.9 1.9-0.2 1.4-0.7 1.8z"/>
	<path class="st2" d="m300.7 186.6-6.6-14c-0.1-0.3-0.3-0.6-0.4-0.8s-0.2-0.4-0.2-0.6 0.1-0.3 0.2-0.3 0.3-0.1 0.3-0.1v-0.8h-6v0.8 0.1c0.1 0 0 0.1 0 0.3s-0.1 0.4-0.2 0.7c-0.1 0.2-0.2 0.5-0.4 0.9l-6.1 13.3c-0.1 0.2-0.3 0.5-0.5 0.7-0.2 0.3-0.8 0.4-0.8 0.5v0.6h6v-0.6c-1 0-0.7 0-0.8-0.1s-0.3-0.2-0.3-0.4v-0.5l0.2-0.4 1.1-2h8.8l1.1 2.1c0.1 0.2 0.2 0.3 0.2 0.4 0.1 0.1 0.1 0.2 0.1 0.4s0 0.3-0.1 0.4c-0.2 0.1-0.3 0.1-0.3 0.1v0.5h6v-0.6c-1-0.1-0.5-0.1-0.7-0.2-0.2 0-0.5-0.1-0.6-0.4zm-13.2-5.6 2.9-6.9 3.3 6.9h-6.2z"/>
	<path class="st2" d="m327 170.8s0.5 0 0.6 0.1 0.4 0.3 0.4 0.5v13.6h-7v-13.6c0-0.2 0.3-0.4 0.4-0.5s-0.4-0.1 0.6-0.1v-0.8h-6v0.8c1 0 0.5 0 0.6 0.1s0.4 0.3 0.4 0.5v13.6h-7v-13.6c0-0.2 0.3-0.4 0.4-0.5s0.6-0.1 0.6-0.1v-0.8h-5v0.8l0.1 0.1s-0.1 0.3-0.1 0.5v15.4c0 0.2 0.2 0.4 0.1 0.5s-0.1 0.1-0.1 0.1v0.6h26v-0.6l-0.1-0.1s0.1-0.3 0.1-0.5v-15.4c0-0.2-0.2-0.4-0.1-0.5s0.1-0.1 0.1-0.1v-0.8h-5v0.8z"/>
	<path class="st2" d="m357 186.6-6.6-14c-0.1-0.3-0.3-0.6-0.4-0.8s-0.2-0.4-0.2-0.6 0-0.3 0.1-0.3 0.2-0.1 0.2-0.1v-0.8h-6v0.8c0 0.1 0.1 0.1 0.2 0.1s0.1 0.1 0.1 0.3-0.1 0.4-0.1 0.7c-0.1 0.2-0.2 0.5-0.4 0.9l-6.1 13.3c-0.1 0.2-0.5 0.5-0.7 0.7-0.2 0.3 0 0.4-1 0.5v0.6h6v-0.6s-0.5 0-0.6-0.1-0.2-0.2-0.2-0.4c0-0.1 0-0.3 0.1-0.5s0.1-0.2 0.3-0.4l1.1-2h8.8l1.1 2.1c0.1 0.2 0.1 0.3 0.2 0.4s0.1 0.2 0.1 0.4-0.1 0.3-0.3 0.4-0.5 0.1-0.5 0.1v0.5h6v-0.6c0-0.1-0.4-0.1-0.6-0.2-0.3 0-0.5-0.1-0.6-0.4zm-13.2-5.6 2.9-6.9 3.3 6.9h-6.2z"/>
	<path class="st2" d="m386.2 177h-7.2v-4h9.9c0.4 0 0.7 0 1 0.2s0.4 0.8 0.4 0.8h0.7v-4h-0.7s-0.1 0.1-0.4 0.2c-0.3 0-0.6-0.2-1-0.2h-14.9v0.8s0.5 0 0.7 0.1 0.3 0.3 0.3 0.5v15.4c0 0.2-0.1 0.4-0.3 0.5s-0.7 0.1-0.7 0.1v0.6h12.2c2.2 0 3.9-0.4 5-1.3s1.7-2.2 1.7-4.3c0-3.7-2.2-5.4-6.7-5.4zm1.9 7.3c-0.5 0.5-1.2 0.7-2 0.7h-7.1v-5h7.2c0.8 0 1.5 0.1 2 0.5s0.8 1 0.8 1.9c-0.1 0.9-0.3 1.4-0.9 1.9z"/>
	<path class="st2" d="m410 170.8c1 0 1 0.1 1 0.4 0 0.2 0.1 0.3 0 0.5s-0.2 0.4-0.3 0.6l-3.8 6.4-4.3-6.4c-0.2-0.3-0.3-0.5-0.4-0.6s-0.1-0.3-0.1-0.4c0-0.2 0.2-0.3 0.4-0.4s0.6-0.1 0.6-0.1v-0.8h-7v0.8s0.5 0.1 0.7 0.2 0.4 0.3 0.6 0.5l7.4 10.7-2.7 4.5c-0.2 0.4-0.6 0.6-0.9 0.7s-0.1 0.2-1.1 0.2v0.4h7v-0.4c-1 0-0.8-0.1-0.8-0.3s0-0.5 0.2-0.8 0.4-0.7 0.7-1.1l8.6-13.9c0.2-0.4 0.3-0.6 1.3-0.6v-0.9h-7v0.8h-0.1z"/>
	<path class="st2" d="m438.6 186.6c-0.4-0.4-0.8-0.8-1.2-1.3l-6.5-8 6.7-5.5c0.7-0.5 1.3-0.8 1.3-0.9v-0.9h-7v0.7c1 0 0.5 0 0.7 0.1 0.1 0.1 0.3 0.2 0.3 0.3s-0.2 0.4-0.7 0.8c-0.5 0.5-1.1 1-1.9 1.7s-1.6 1.4-2.6 2.2-1.8 1.6-2.8 2.3v-6.7c0-0.4 0-0.6 1-0.6v-0.8h-6v0.8c1 0 1 0.2 1 0.6v15.4c0 0.4 0 0.6-1 0.6v0.6h6v-0.6c-1 0-1-0.2-1-0.6v-4.6l3.1-2.5 5 6.2c0.4 0.4 0.6 0.7 0.7 0.9s0.4 0.3 0.4 0.5-0.2 0.2-0.2 0.2v0.6h6v-0.6c-0.9-0.2-0.9-0.5-1.3-0.9z"/>
	<path class="st2" d="m460 170.8s0.3 0.1 0.3 0.4c0 0.1 0 0.2-0.2 0.4-0.1 0.2-0.3 0.5-0.4 0.8l-5 9.2-5-9.2c-0.2-0.3-0.3-0.6-0.4-0.8s0.1-0.3 0.1-0.4c0-0.2-0.4-0.4 0.6-0.4v-0.8h-6v0.8s0.1 0 0.1 0.1c0.1 0.1-0.1 0.3-0.1 0.7v15c0 0.3 0.2 0.5 0.1 0.6s-0.1 0.1-0.1 0.2v0.6h4v-0.6-0.6-11.8h-0.2l6.6 13h0.3l7-13h0.3v11.8c0 0.4 0 0.6-1 0.6v0.6h5v-0.6s-0.5 0-0.6-0.1-0.4-0.3-0.4-0.5v-15.4c0-0.2 0.3-0.4 0.4-0.4 0.1-0.1 0.6-0.1 0.6-0.1v-0.9h-6v0.8z"/>
	<path class="st2" d="m488.9 184.7c-0.2 0.2-0.5 0.3-0.8 0.3h-10.1v-5h5.6c0.5 0 1 0.2 1.3 0.3s0.4 0.7 0.3 0.7h0.8v-4h-0.8s-0.1 0.2-0.3 0.2c-0.2 0.1-0.6-0.2-1-0.2h-5.9v-4h9.6c0.8 0 1.3 0 1.3 1h1.1v-5h-1.1c0 1-0.4 1-1.3 1h-14.6v0.8s0.5 0 0.6 0.1 0.4 0.3 0.4 0.5v15.4c0 0.2-0.3 0.4-0.4 0.5s-0.6 0.1-0.6 0.1v0.6h15.1c0.3 0 0.6 0.3 0.8 0.3s0.3-0.3 0.3 0.7h0.8v-5h-0.8c0 1-0.1 0.5-0.3 0.7z"/>
	<path class="st2" d="m513.8 186.6c-0.4-0.4-0.8-0.8-1.1-1.3l-6.5-8 7.1-5.5c0.7-0.5 0.7-0.8 1.7-0.9v-0.9h-7v0.7s0.1 0 0.3 0.1c0.1 0.1 0.2 0.2 0.2 0.3s-0.3 0.4-0.8 0.8c-0.5 0.5-1.2 1-2 1.7s-1.7 1.4-2.7 2.2-1.9 1.6-2.9 2.3v-6.7c0-0.4 0-0.6 1-0.6v-0.8h-5v0.8 0.6 15.4 0.6 0.6h5v-0.6c-1 0-1-0.2-1-0.6v-4.6l3.3-2.5 5.1 6.2c0.4 0.4 0.6 0.7 0.7 0.9s0.3 0.3 0.3 0.5-0.3 0.2-0.3 0.2v0.6h6v-0.6c-1.2-0.2-1-0.5-1.4-0.9z"/>
	<path class="st2" d="m534.5 184.7c-0.2 0.2-0.5 0.3-0.8 0.3h-10.7v-5h6.2c0.5 0 1 0.2 1.3 0.3s0.4 0.7 0.3 0.7h1.2v-4h-1.1s-0.1 0.2-0.3 0.2c-0.2 0.1-0.6-0.2-1-0.2h-6.6v-4h10.2c0.8 0 1.3 0 1.3 1h0.5v-5h-0.5c0 1-0.4 1-1.3 1h-14.2v0.8l0.1 0.1s-0.1 0.3-0.1 0.5v15.4c0 0.2 0.2 0.4 0.1 0.5l-0.1 0.1v0.6h14.7c0.3 0 0.6 0.3 0.8 0.3s0.3-0.3 0.3 0.7h1.1v-5h-1.1c0.1 1 0 0.5-0.3 0.7z"/>
	<path class="st2" d="m557.8 171.2c-1.1-0.8-2.8-1.2-5-1.2h-11.8v0.8c1 0 1 0.2 1 0.6v15.4c0 0.4 0 0.6-1 0.6v0.6h6v-0.6c-1 0-1-0.2-1-0.6v-5.8h6.8c2.2 0 3.9-0.6 5-1.3 1.1-0.8 1.7-2.2 1.7-4.2s-0.6-3.5-1.7-4.3zm-3.1 6.2c-0.5 0.3-1.2 0.6-2 0.6h-6.7v-5h6.7c0.8 0 1.5 0.2 2 0.6 0.5 0.3 0.8 1.1 0.8 1.9 0 0.9-0.3 1.6-0.8 1.9z"/>
	<path class="st2" d="m579 182v0.4 0.3c0 0.2-0.2 0.5-0.6 0.8s-0.9 0.6-1.5 0.8c-0.6 0.3-1.3 0.5-2.1 0.7s-1.5 0.3-2.3 0.3-1.6-0.1-2.3-0.4c-0.8-0.3-1.5-0.7-2.1-1.3s-1.1-1.2-1.5-2-0.6-1.7-0.6-2.6c0-1 0.2-1.9 0.5-2.6 0.3-0.8 0.8-1.4 1.4-1.9s1.3-0.9 2.1-1.2 1.7-0.4 2.7-0.4c0.8 0 1.6 0.1 2.3 0.2 0.7 0.2 1.3 0.3 1.8 0.6 0.5 0.2 0.9 0.4 1.2 0.7 0.3 0.2 0.4 0.4 0.4 0.6v0.2 0.2l0.5 0.3 2.7-3.9-0.5-0.3c-0.1 0.1-0.2 0.1-0.3 0.2s-0.2 0.1-0.3 0.1c-0.2 0-0.5-0.1-0.9-0.3s-1-0.4-1.6-0.7c-0.7-0.2-1.4-0.5-2.3-0.7s-1.8-0.3-2.9-0.3c-1.3 0-2.6 0.2-3.9 0.6s-2.4 1-3.4 1.7c-1 0.8-1.8 1.7-2.4 2.9-0.6 1.1-0.9 2.5-0.9 4s0.3 2.9 0.9 4c0.6 1.2 1.4 2.1 2.3 2.9 1 0.8 2.1 1.3 3.3 1.7s2.5 0.5 3.7 0.5 2.3-0.1 3.3-0.3 1.9-0.5 2.6-0.8c0.8-0.3 1.4-0.6 1.9-0.8s0.8-0.4 1.1-0.4c0.1 0 0.4 0.1 0.7 0.2l0.4-0.2-3.1-4.4-0.3 0.6z"/>
	<path class="st2" d="m604.9 186.6c-0.4-0.4-0.7-0.8-1-1.3l-6.5-8 7-5.5c0.7-0.5 0.6-0.8 1.6-0.9v-0.9h-7v0.7s0.3 0 0.4 0.1c0.2 0.1 0.2 0.2 0.2 0.3s-0.3 0.4-0.8 0.8c-0.5 0.5-1.2 1-2 1.7s-1.9 1.4-2.9 2.2-2.1 1.6-3.1 2.3v-6.7c0-0.4 1-0.6 1-0.6v-0.8h-5v0.8 0.6 15.4 0.6 0.6h5v-0.6s-1-0.2-1-0.6v-4.6l3.4-2.5 5.1 6.2c0.4 0.4 0.6 0.7 0.8 0.9 0.1 0.2 0.2 0.3 0.2 0.5s-0.5 0.2-0.5 0.2v0.6h6v-0.6c0.2-0.2-0.5-0.5-0.9-0.9z"/>
	<path class="st2" d="m627.8 186.6-6.6-14c-0.1-0.3-0.3-0.6-0.4-0.8s-0.2-0.4-0.2-0.6 0.1-0.3 0.2-0.3 0.3-0.1 0.3-0.1v-0.8h-6v0.8c0 0.1 0 0.1 0.1 0.1s0 0.1 0 0.3-0.1 0.4-0.2 0.7c-0.1 0.2-0.2 0.5-0.4 0.9l-6.1 13.3c-0.1 0.2-0.4 0.5-0.6 0.7-0.2 0.3 0.1 0.4-0.9 0.5v0.6h6v-0.6c-1 0-0.6 0-0.7-0.1s-0.3-0.2-0.3-0.4c0-0.1 0-0.3 0.1-0.5s0.1-0.2 0.2-0.4l1.1-2h8.8l1.1 2.1c0.1 0.2 0.2 0.3 0.2 0.4 0.1 0.1 0.1 0.2 0.1 0.4s-0.1 0.3-0.2 0.4c-0.2 0.1-0.4 0.1-0.4 0.1v0.5h6v-0.6c0-0.1-0.5-0.1-0.6-0.2-0.2 0-0.5-0.1-0.6-0.4zm-13.1-5.6 2.9-6.9 3.3 6.9h-6.2z"/>
	<path class="st2" d="m634.2 171.2c-1.4 0.8-2.1 2.2-2.1 4.1 0 0.7 0.1 1.4 0.4 2s0.6 1.1 1.1 1.5 1 0.8 1.5 1c0.5 0.3 1.1 0.5 1.7 0.6l-4 5.9c-0.2 0.3-0.6 0.5-0.9 0.7s0 0.3-1 0.3v0.6h6v-0.6s-0.4-0.1-0.4-0.4 0.3-0.6 0.7-1.2l3.2-4.8h6.4v5.8c0 0.2-0.2 0.4-0.4 0.5s-0.6 0.1-0.6 0.1v0.6h5v-0.6-0.6-15.4-0.6-0.7h-11.1c-2.2 0-4.1 0.4-5.5 1.2zm12.8 1.8v5h-6.9c-2.7 0-4-0.9-4-2.6 0-0.7 0.3-1.3 1-1.7 0.6-0.4 1.7-0.7 3-0.7h6.9z"/>
	<path class="st2" d="m688.1 186.6c-0.4-0.4-0.6-0.8-1-1.3l-6.4-8 6.9-5.5c0.7-0.5 1.5-0.8 1.5-0.9v-0.9h-7v0.7s0.4 0 0.6 0.1 0.3 0.2 0.3 0.3-0.2 0.4-0.7 0.8c-0.5 0.5-1.2 1-2 1.7s-1.5 1.4-2.5 2.2-1.7 1.6-2.7 2.3v-6.7-0.6-0.8h-5v0.8s1 0.2 1 0.6v15.4c0 0.4-1 0.6-1 0.6v0.6h5v-0.6-0.6-4.6l3-2.5 5 6.2c0.4 0.4 0.5 0.7 0.7 0.9 0.1 0.2 0 0.3 0 0.5s0.4 0.2-0.6 0.2v0.6h6v-0.6c-0.2-0.2-0.8-0.5-1.1-0.9z"/>
	<path class="st2" d="m710.1 172.1c-1-0.8-2.1-1.3-3.5-1.7-1.3-0.4-2.7-0.6-4.2-0.6s-2.9 0.2-4.2 0.6-2.5 1-3.5 1.7c-1 0.8-1.8 1.7-2.3 2.9-0.6 1.2-0.9 2.5-0.9 4.1s0.3 2.9 0.9 4.1 1.4 2.1 2.3 2.9c1 0.8 2.1 1.3 3.5 1.7 1.3 0.3 2.7 0.5 4.2 0.5s2.9-0.2 4.2-0.5 2.5-0.9 3.5-1.7 1.8-1.7 2.3-2.9c0.6-1.2 0.9-2.5 0.9-4.1s-0.3-2.9-0.9-4.1-1.4-2.1-2.3-2.9zm-1.4 9.6c-0.4 0.8-0.9 1.4-1.6 2-0.7 0.5-1.4 0.9-2.2 1.2s-1.7 0.4-2.6 0.4-1.7-0.1-2.6-0.4c-0.8-0.3-1.6-0.7-2.2-1.2-0.7-0.5-1.2-1.2-1.6-2s-0.6-1.6-0.6-2.6 0.2-1.9 0.6-2.6c0.4-0.8 0.9-1.4 1.6-1.9s1.4-0.9 2.2-1.2 1.7-0.4 2.6-0.4 1.7 0.1 2.6 0.4c0.8 0.3 1.6 0.7 2.2 1.2 0.7 0.5 1.2 1.2 1.6 1.9 0.4 0.8 0.6 1.6 0.6 2.6s-0.2 1.9-0.6 2.6z"/>
	<path class="st2" d="m733 170.8c1 0 0.5 0 0.6 0.1s0.4 0.3 0.4 0.5v5.6h-11v-5.6c0-0.2 0.3-0.4 0.4-0.5s0.6-0.1 0.6-0.1v-0.8h-5v0.8l0.1 0.1s-0.1 0.3-0.1 0.5v15.4c0 0.2 0.2 0.4 0.1 0.5l-0.1 0.1v0.6h5v-0.6s-0.5 0-0.6-0.1-0.4-0.3-0.4-0.5v-5.8h11v5.8c0 0.2-0.3 0.4-0.4 0.5s0.4 0.1-0.6 0.1v0.6h6v-0.6c-1 0-0.5 0-0.6-0.1s-0.4-0.3-0.4-0.5v-15.4c0-0.2 0.3-0.4 0.4-0.5s-0.4-0.1 0.6-0.1v-0.8h-6v0.8z"/>
	<path class="st2" d="m760.5 169.8c-0.2 0.1-0.4 0.2-0.6 0.2h-14.6c-0.2 0-0.4-0.1-0.6-0.2s-0.3-0.8-0.3-0.8h-0.4v5h0.3s0.1-0.6 0.3-0.7 0.4-0.3 0.6-0.3h5.8v13.8c0 0.2-0.3 0.4-0.4 0.5s-0.6 0.1-0.6 0.1v0.6h5v-0.6-0.6-13.8h4.8c0.2 0 0.4 0.2 0.6 0.3s0.3 0.7 0.3 0.7h0.3v-5h-0.3s0 0.7-0.2 0.8z"/>
	<path class="st2" d="m783 172.1c-1-0.8-2.1-1.3-3.5-1.7-1.3-0.4-2.7-0.6-4.2-0.6s-2.9 0.2-4.2 0.6-2.5 1-3.5 1.7c-1 0.8-1.8 1.7-2.3 2.9-0.6 1.2-0.9 2.5-0.9 4.1s0.3 2.9 0.9 4.1 1.4 2.1 2.3 2.9c1 0.8 2.1 1.3 3.5 1.7 1.3 0.3 2.7 0.5 4.2 0.5s2.9-0.2 4.2-0.5 2.5-0.9 3.5-1.7 1.8-1.7 2.3-2.9c0.6-1.2 0.9-2.5 0.9-4.1s-0.3-2.9-0.9-4.1c-0.5-1.2-1.3-2.1-2.3-2.9zm-1.3 9.6c-0.4 0.8-0.9 1.4-1.6 2-0.7 0.5-1.4 0.9-2.2 1.2s-1.7 0.4-2.6 0.4-1.7-0.1-2.6-0.4c-0.8-0.3-1.6-0.7-2.2-1.2-0.7-0.5-1.2-1.2-1.6-2s-0.6-1.6-0.6-2.6 0.2-1.9 0.6-2.6c0.4-0.8 0.9-1.4 1.6-1.9s1.4-0.9 2.2-1.2 1.7-0.4 2.6-0.4 1.7 0.1 2.6 0.4c0.8 0.3 1.6 0.7 2.2 1.2 0.7 0.5 1.2 1.2 1.6 1.9 0.4 0.8 0.6 1.6 0.6 2.6s-0.2 1.9-0.6 2.6z"/>
	<path class="st2" d="m807.6 171.2c-1.1-0.8-2.8-1.2-5-1.2h-11.6v0.8s1 0.2 1 0.6v15.4c0 0.4-1 0.6-1 0.6v0.6h5v-0.6-0.6-5.8h6.6c2.2 0 3.9-0.6 5-1.3 1.1-0.8 1.7-2.2 1.7-4.2-0.1-2-0.6-3.5-1.7-4.3zm-3.1 6.2c-0.5 0.3-1.2 0.6-2 0.6h-6.5v-5h6.5c0.8 0 1.5 0.2 2 0.6 0.5 0.3 0.8 1.1 0.8 1.9 0 0.9-0.3 1.6-0.8 1.9z"/>
	<path class="st2" d="m831.9 186.6-6.6-14c-0.1-0.3-0.3-0.6-0.4-0.8s-0.2-0.4-0.2-0.6 0-0.3 0.1-0.3 0.2-0.1 0.2-0.1v-0.8h-6v0.8c0 0.1 0.1 0.1 0.2 0.1s0.1 0.1 0.1 0.3-0.1 0.4-0.2 0.7c-0.1 0.2-0.2 0.5-0.4 0.9l-6.1 13.3c-0.1 0.2-0.4 0.5-0.6 0.7-0.2 0.3 0 0.4-1 0.5v0.6h6v-0.6s-0.5 0-0.7-0.1c-0.1-0.1-0.3-0.2-0.3-0.4 0-0.1 0-0.3 0.1-0.5s0.1-0.2 0.3-0.4l1.1-2h8.8l1.1 2.1c0.1 0.2 0.2 0.3 0.2 0.4 0.1 0.1 0.1 0.2 0.1 0.4s-0.1 0.3-0.3 0.4-0.5 0.1-0.5 0.1v0.5h6v-0.6c0-0.1-0.4-0.1-0.6-0.2 0 0-0.2-0.1-0.4-0.4zm-13.1-5.6 2.9-6.9 3.3 6.9h-6.2z"/>
</svg>
