<svg version="1.1" width="200px" height="48.927px" viewBox="0 0 200 48.927" xmlns="http://www.w3.org/2000/svg">
 <title>1545C528-CA89-476F-8423-375FE99609E0</title>
 <desc>Created with sketchtool.</desc>
 <g id="Symbols" transform="matrix(2.0408 0 0 2.0408 0 -.052308)" style="fill-rule:evenodd;fill:none">
  <g id="logoPinnacle">
   <polygon points="0 24 98 24 98 20 0 20" style="fill:#f50"/>
   <polygon points="87 17 77 17 77 1 80.822 1 80.822 13.34 87 13.34" style="fill:#fff"/>
   <polygon points="91.685 13.449 91.685 10.731 98 10.731 98 7.1808 91.685 7.1808 91.685 4.5506 98 4.5506 98 1 88 1 88 17 98 17 98 13.449" style="fill:#fff"/>
   <g style="fill:#fff">
    <path d="m3.8271 4.5874v4.8276h2.0824c1.3778 0 2.4056-0.95671 2.4056-2.4028s-1.0278-2.4248-2.4056-2.4248zm-3.8271-3.5374h6.0625c3.7396 0 6.1233 2.692 6.1233 5.9399 0 3.2704-2.3619 6.029-6.1452 6.029h-2.2135v4.2714h-3.8271z"/>
    <polygon points="13.171 17.29 17.02 17.29 17.02 1.0501 13.171 1.0501"/>
    <polygon points="28.978 17.29 21.962 6.9116 21.962 17.29 18.157 17.29 18.157 1.05 22.224 1.05 28.978 10.77 28.978 1.05 32.762 1.05 32.762 17.29"/>
    <path d="m54.015 12.158 1.4361-3.1858 1.4361 3.1858zm5.1859 5.1328h4.455l-8.0688-17.265h-0.27204l-8.0688 17.265h4.455l0.80091-1.7766h5.8978z"/>
    <path d="m73.235 11.017c-0.656 1.5351-1.9682 2.6474-3.8708 2.6474-2.5368 0-4.2645-2.0245-4.2645-4.4938 0-2.5141 1.7713-4.5386 4.3082-4.5386 1.7496 0 3.018 0.91215 3.7396 2.3582l3.346-2.1579c-1.4215-2.4028-4.024-4.0045-7.1075-4.0045-4.7018 0-8.179 3.6039-8.179 8.3427 0 0.014046 9.06e-4 0.027809 9.76e-4 0.041855l3.1052 6.6443c1.3441 1.0412 3.0708 1.6563 5.0728 1.6563 3.4116 0 6.0139-1.8909 7.3699-4.5829z"/>
    <polygon points="44.772 10.77 38.018 1.05 33.95 1.05 33.95 17.29 37.755 17.29 37.755 6.9116 44.772 17.29 45.919 17.29 46.094 16.916 48.555 11.65 48.555 1.05 44.772 1.05"/>
   </g>
  </g>
 </g>
</svg>
