<?xml version="1.0" encoding="UTF-8"?>
<!DOCTYPE svg PUBLIC "-//W3C//DTD SVG 1.1//EN" "http://www.w3.org/Graphics/SVG/1.1/DTD/svg11.dtd">
<!-- Creator: CorelDRAW X7 -->
<svg xmlns="http://www.w3.org/2000/svg" xml:space="preserve" width="62px" height="78px" version="1.1" style="shape-rendering:geometricPrecision; text-rendering:geometricPrecision; image-rendering:optimizeQuality; fill-rule:evenodd; clip-rule:evenodd"
viewBox="0 0 4763 5821"
 xmlns:xlink="http://www.w3.org/1999/xlink">
 <defs>
  <style type="text/css">
   <![CDATA[
    .fil2 {fill:none}
    .fil4 {fill:#FEFEFE}
    .fil0 {fill:white}
    .fil3 {fill:#FEFEFE;fill-rule:nonzero}
    .fil1 {fill:url(#id0)}
   ]]>
  </style>
  <linearGradient id="id0" gradientUnits="userSpaceOnUse" x1="2373.91" y1="205.58" x2="2373.91" y2="5537.78">
   <stop offset="0" style="stop-opacity:1; stop-color:#0089E3"/>
   <stop offset="1" style="stop-opacity:1; stop-color:#006196"/>
  </linearGradient>
 </defs>
 <g id="Слой_x0020_1">
  <metadata id="CorelCorpID_0Corel-Layer"/>
  <rect class="fil0" x="144" y="95" width="4459" height="5558" rx="176" ry="173"/>
  <path class="fil1" d="M4338 206l-3928 0c-85,0 -154,97 -154,217l0 4897c0,120 69,218 154,218l3928 0c84,0 154,-98 154,-218l0 -4897c0,-120 -70,-217 -154,-217z"/>
  <path class="fil2" d="M2748 1134c0,0 -2252,507 -340,1955"/>
  <path class="fil3" d="M3579 3362c0,-1 -48,-33 -13,-123 5,-12 -3,-26 -5,-40 -84,-593 -511,-2525 -2408,-1013 -7,6 -21,8 -40,9l-16 1 -13 8 -3 -2 -14 8 -19 -26 -7 4 -2 1 -12 7 -15 -9 0 0 -16 3 -11 10 -27 -15 -11 11 -39 15c0,0 0,0 -1,1l-5 13 -28 4 -6 14 -12 9 -7 12 -28 4 -6 12 -3 2 -17 7 -1 -3 15 -35c0,-1 1,-2 2,-2l25 -23c83,-72 162,-139 240,-200l8 -7 7 -12 26 -7 6 -12 1 0c2175,-1691 2484,767 2519,1257 4,50 268,34 268,35l6 44 -338 38z"/>
  <path class="fil3" d="M1687 1334c738,857 1717,857 2017,-515 14,-66 -40,-155 -27,-230l43 -25c-12,74 135,250 121,317 -2,9 -66,16 -68,26 -512,2335 -2109,452 -2114,446l28 -19z"/>
  <path class="fil4" d="M1384 1205c167,5 287,250 304,271 17,22 -123,185 -300,255 -176,70 -303,-126 -304,-271 -1,-145 133,-259 300,-255z"/>
  <path class="fil3" d="M3386 448l0 0c71,10 131,47 171,99 39,51 59,116 51,184l0 1 0 5 0 0 -1 1c-9,70 -46,130 -98,170 -51,39 -116,59 -184,52l-1 0 -5 -1 0 0 -1 0c-70,-10 -130,-47 -170,-99 -39,-50 -59,-116 -52,-184l0 0 1 -6 0 0 0 0c9,-71 46,-131 99,-171 50,-39 116,-59 184,-52l0 1 6 0 0 0zm-8 65l0 0 0 1 -5 -1 0 0c-51,-6 -100,9 -137,38 -39,30 -67,75 -74,127l0 0 0 0 0 5 0 0c-6,51 9,100 38,137 30,39 75,67 127,74l0 0 0 0 5 0 0 0c51,6 99,-9 137,-38 39,-30 66,-75 73,-127l0 0 0 0 1 -5 0 0c5,-51 -10,-99 -38,-137 -30,-39 -75,-67 -127,-74z"/>
  <path class="fil3" d="M2534 2789c104,64 202,135 292,209 11,-19 22,-38 31,-58 52,-113 67,-228 45,-336 -81,-23 -178,-40 -289,-42 1,4 1,9 1,14 0,43 -10,88 -31,132 -13,28 -29,55 -49,81zm-235 1342l6 0c125,0 244,-25 354,-69 -47,-90 -91,-176 -132,-259 -1,0 -1,0 -2,0 -222,82 -460,84 -679,7 6,78 17,154 34,227 127,60 269,94 419,94zm-973 -974l0 2c0,47 3,92 10,137 5,11 10,23 16,34 14,-50 35,-106 63,-166 -14,-25 -27,-52 -37,-80 -16,-42 -26,-87 -30,-131 -14,65 -22,134 -22,204zm554 -125c-33,-7 -65,-16 -94,-30 -51,-24 -92,-57 -121,-97 -88,83 -150,171 -193,254 54,86 136,155 239,203 31,14 63,26 96,35 16,-128 42,-252 73,-365zm918 11c-91,-77 -191,-150 -298,-214 -67,72 -158,131 -262,170 -1,0 -2,1 -3,1 40,109 88,230 146,363 176,-68 322,-181 417,-320zm-467 338c-57,-133 -106,-255 -146,-365 -87,25 -174,33 -254,24 -33,114 -59,240 -74,371 149,33 314,23 474,-30zm-623 -764c-5,9 -10,18 -15,28 -29,63 -33,125 -14,180 89,-75 200,-144 338,-200 -115,-23 -220,-21 -309,-8zm100 338c27,13 56,22 87,28 37,-120 81,-225 127,-304 -131,54 -235,120 -319,192 24,34 60,63 105,84zm-51 819c-155,-71 -285,-178 -382,-311 0,0 0,1 0,1 77,231 237,424 446,542 -14,-70 -23,-142 -28,-216 -12,-5 -24,-10 -36,-16zm818 9c41,83 85,169 132,259 234,-108 419,-308 507,-553 -40,-57 -86,-116 -139,-176 -106,212 -281,377 -500,470zm594 -1060c0,-1 0,-1 0,-1 8,50 12,100 12,150 0,133 -28,265 -82,390 50,56 95,112 135,166 25,-86 38,-176 38,-270 0,-157 -37,-304 -103,-435zm-205 -24c0,87 -21,176 -60,262 -11,25 -24,48 -38,71 71,62 136,125 195,188 69,-171 86,-355 49,-532 -39,-22 -91,-46 -152,-67 3,26 6,52 6,78zm-972 -366c1,-1 2,-1 4,-2 -6,-37 -9,-69 -11,-94 -204,70 -378,205 -496,381 44,-16 108,-37 189,-50 66,-100 179,-186 314,-235zm1046 939c-60,-66 -127,-132 -200,-196 -101,145 -254,264 -437,335 45,102 95,210 151,326 215,-91 386,-255 486,-465zm-594 -943c76,36 129,90 154,159 3,6 5,13 7,20 107,1 200,15 281,36 -1,-5 -2,-10 -4,-14 -48,-132 -150,-232 -280,-293 -36,12 -96,37 -171,88 4,1 9,3 13,4zm502 231c57,18 106,38 147,59 -4,-14 -8,-27 -12,-41 -70,-93 -156,-174 -254,-237 44,50 80,107 104,171 5,16 10,32 15,48zm-1502 549c46,-82 109,-168 195,-248 -3,-6 -5,-11 -8,-17 -24,-67 -20,-142 14,-216 -117,24 -190,62 -192,62l-4 -6c-9,17 -19,35 -28,53 -34,113 -33,225 5,329 6,15 12,29 18,43zm305 -550c87,-8 189,-5 298,20 -20,-77 -33,-141 -43,-196 -105,40 -195,103 -255,176zm-59 850c-103,-47 -185,-114 -244,-196 -29,66 -47,127 -58,177 94,146 228,263 390,337 4,2 9,4 13,6 -3,-94 1,-190 10,-283 -38,-11 -76,-25 -111,-41zm365 -1043c10,56 24,123 44,202 76,-95 150,-167 217,-222 -81,-13 -171,-6 -261,20zm449 1390c-56,-116 -107,-225 -152,-327 -168,56 -343,67 -501,33 -9,97 -13,195 -8,292 212,80 444,81 661,2zm-135 -1452c60,-44 113,-73 155,-92 -72,-18 -147,-27 -225,-27 -91,0 -179,13 -263,36 2,24 5,55 11,94 112,-32 225,-35 322,-11zm181 201c-20,-55 -65,-99 -128,-129 -13,-6 -27,-11 -41,-15 -67,50 -142,120 -221,214 144,-43 274,-62 391,-66 0,-1 -1,-3 -1,-4zm-61 258c19,-25 35,-50 47,-76 20,-43 28,-85 26,-125 -112,2 -238,20 -376,59 106,39 207,87 303,142zm-322 205c-37,-105 -67,-198 -91,-280 -47,76 -92,180 -130,302 69,7 146,-1 221,-22zm51 -17c1,0 1,0 2,0 93,-35 174,-87 234,-149 -104,-59 -215,-110 -332,-149 25,87 56,186 96,298l0 0z"/>
  <path class="fil3" d="M1168 4469l0 -70 383 0 -303 654 288 0 0 71 -400 0 305 -655 -273 0zm514 -70l415 0 0 71 -343 0 0 227 340 0 0 71 -340 0 0 284 340 0 0 72 -412 0 0 -725zm541 725l0 -725 16 0 482 555 0 -555 71 0 0 725 -16 0 -478 -548 0 548 -75 0zm736 -725l72 0 0 725 -72 0 0 -725zm166 70l0 -70 398 0 0 70 -162 0 0 655 -74 0 0 -655 -162 0z"/>
 </g>
</svg>
